<mxfile host="Electron" agent="Mozilla/5.0 (Windows NT 10.0; Win64; x64) AppleWebKit/537.36 (KHTML, like Gecko) draw.io/24.7.8 Chrome/128.0.6613.36 Electron/32.0.1 Safari/537.36" version="24.7.8">
  <diagram name="PÃ¡gina-1" id="4tEYT7AZ6MiVWFtFd2NR">
    <mxGraphModel dx="4543.5" dy="1393" grid="1" gridSize="10" guides="1" tooltips="1" connect="1" arrows="1" fold="1" page="1" pageScale="0.75" pageWidth="1169" pageHeight="827" math="0" shadow="0">
      <root>
        <mxCell id="0" />
        <mxCell id="1" parent="0" />
        <mxCell id="fCth6MuDegtPYip4IIY3-8" value="" style="rounded=0;whiteSpace=wrap;html=1;strokeWidth=5;strokeColor=#141415;" parent="1" vertex="1">
          <mxGeometry x="-1380" y="30" width="2700" height="1170" as="geometry" />
        </mxCell>
        <mxCell id="S9Cv3rVsNq0ONA8z7l8G-19" value="" style="rounded=0;whiteSpace=wrap;html=1;verticalAlign=middle;align=center;strokeWidth=4;" parent="1" vertex="1">
          <mxGeometry x="-150" y="140" width="1410" height="1000" as="geometry" />
        </mxCell>
        <mxCell id="S9Cv3rVsNq0ONA8z7l8G-9" value="" style="rounded=0;whiteSpace=wrap;html=1;dashed=1;strokeWidth=3;strokeColor=#FF8000;" parent="1" vertex="1">
          <mxGeometry x="140" y="260" width="1020" height="190" as="geometry" />
        </mxCell>
        <mxCell id="S9Cv3rVsNq0ONA8z7l8G-79" style="edgeStyle=orthogonalEdgeStyle;rounded=0;orthogonalLoop=1;jettySize=auto;html=1;exitX=0.5;exitY=1;exitDx=0;exitDy=0;fontFamily=Helvetica;fontSize=12;fontColor=#80d402;dashed=1;strokeColor=#66CC00;strokeWidth=2;" parent="1" source="3Y24ioC7CP_jq3oPdULe-38" target="3Y24ioC7CP_jq3oPdULe-35" edge="1">
          <mxGeometry relative="1" as="geometry">
            <Array as="points">
              <mxPoint x="-1152" y="750" />
            </Array>
          </mxGeometry>
        </mxCell>
        <mxCell id="S9Cv3rVsNq0ONA8z7l8G-82" style="edgeStyle=orthogonalEdgeStyle;rounded=0;orthogonalLoop=1;jettySize=auto;html=1;exitX=1;exitY=0.5;exitDx=0;exitDy=0;fontFamily=Helvetica;fontSize=12;fontColor=default;strokeWidth=3;entryX=0.007;entryY=0.454;entryDx=0;entryDy=0;entryPerimeter=0;strokeColor=#0000FF;endArrow=baseDash;endFill=0;" parent="1" source="3Y24ioC7CP_jq3oPdULe-38" target="S9Cv3rVsNq0ONA8z7l8G-32" edge="1">
          <mxGeometry relative="1" as="geometry">
            <mxPoint x="-860" y="602" as="targetPoint" />
          </mxGeometry>
        </mxCell>
        <mxCell id="S9Cv3rVsNq0ONA8z7l8G-157" style="edgeStyle=orthogonalEdgeStyle;rounded=0;orthogonalLoop=1;jettySize=auto;html=1;exitX=1;exitY=0.75;exitDx=0;exitDy=0;fontFamily=Helvetica;fontSize=12;fontColor=default;dashed=1;entryX=0;entryY=0.514;entryDx=0;entryDy=0;entryPerimeter=0;strokeColor=#66CC00;strokeWidth=2;" parent="1" source="3Y24ioC7CP_jq3oPdULe-38" target="S9Cv3rVsNq0ONA8z7l8G-32" edge="1">
          <mxGeometry relative="1" as="geometry">
            <mxPoint x="-860" y="625.7142857142858" as="targetPoint" />
          </mxGeometry>
        </mxCell>
        <mxCell id="3Y24ioC7CP_jq3oPdULe-38" value="" style="shape=image;verticalLabelPosition=bottom;labelBackgroundColor=default;verticalAlign=top;aspect=fixed;imageAspect=0;image=data:image/png,iVBORw0KGgoAAAANSUhEUgAAAGAAAABhCAYAAAApxKSdAAAAAXNSR0IArs4c6QAAAARnQU1BAACxjwv8YQUAAAAJcEhZcwAADsMAAA7DAcdvqGQAAA3hSURBVHhe7Z0HjBVVF8fPNpSyC4hUBakahSgfYmgawYoQRDGaaIIxiIqA+UCCJkCigBorBCxRY0NCaBqxANYoVUJkEVRAqkooUlQ6W97ON7/z9ozDc/djRXhzH84f7s6bmTvz5v3/55x755aZLM/HgQMHpFatWpKVlSUx0gOfduU7u3xdwcYYpxZlZWUB+br0/wQeYDuO5wnkOx6qkuffBOPUeDGeAwGqVasmf/zxh2zevFl+++03OXr0qKoVRmXCpJKt6zH/AeANfgtqF8j5558vZ511lpxxxhmSnZ39pwAHDx6U999/Xz744APZsmWLsK20tDQ4gS0thZEqAKho278VEF29enWpX7++9OrVS26++WZp3bq1ihAI8Nlnn8nIkSPlyJEj0qxZs6BQDhNeEfmGmPD/j+LiYlm/fr38+uuv8thjj8ldd92lgkCct3//fq979+5efn6+N3r0aM8PQ16iNOElEgnPD0NBinHi2Ldvn/fSSy95vmF7HTt29AoLC72ioiIvqAUtWLBA6tatKz169JDGjRtLVnbVLD9G1VCzZk3p27evXHjhhbJp0yb1CMqFQABfJMnNzdUCgh0xTh6ozPjWLgX5BVoesF5SUqLLY+4DzNJjyz+5gPQzzzxTcnJz9DOVG1KFAhhi4k8utMrpc0qkIZlxHyNAjPQjFiBixAJEjFiAiBELEDFiASJGLEDEiAWIGLEAESMWIGJkvABliWQfq4H2lUQiccw2l5H5HpAl4pUl21eAtrWE1l1HRgqgJJcTTINWUXGRdqkeOnRIrT87J9nwlQlwXoAw2QYjlzZ1wACCwsJCWbdunXapAkJRGBWdxwVkjAeEyeMzlg7J9Gd//vnn8uabb8rq1auDgQSVEe6aCBkhgJFJMstGgG3btsm7774rL774osyfP1/27NkTtLtbzxOgTHAVzgsQjuUmAP2phJspU6bIE088IUuXLlXLz8nJ+YtQQLeVi+Ba2ZARHoA1kwCF7ddffy2PP/64TJgwQX755Rcln/5sAPEmAoKwTrlwtOjoX6qsLiBjygBIZkzNvHnz5P7779fQA8FYNAmvgFwLQUY+o/wWLFygQiFCLEAVYFZsIN5v3LhRJk+eLEOHDtUBTgzzYDs1IcimJnT48GEVghEIWP2uXbtk5syZMnjwYFmzZo0KY57kCpwUAJLsZoq6/SeffCKjRo1SAfbt26fDZszaSXhHu3btpH379nL22WerIBs2bJBx48bJiBEjtHDmPC7C2RCkcdu36unTp8vYsWPliy++0HWIx+rZzzI/P18GDBggTz75pFxxxRVaRrz33nvy4IMPyrRp09RLOIali3BWgERZQl577TV5/fXXZe3atVrfJzRh8YyxgVSs/eGHH5Zh/x0mnTt3lp07d8pzzz0njz76qCxbtkzFID+hp3bt2rp0DU4KgGV/+umnMnv2bI3dFuep6diova5du8r48ePljjvukJatWsrixYvlqaeekrffflvLCzvGwLqLcFIALPejjz6S77//XgtUs2KsvkaNGtKzZ0+1/GuvvVby8vJk1qxZ8sILL2gNaceOHXoOs3Y7jvOwdA1OCkC4sTkKFr8JPw0aNJCbbrpJhg0bJldddZXWcl5++WUlf9GiRTrBBMIRzGBe4GL4AU4K8PvvvwcWC/HUcqh2dunSRe69917p0KGDVkVfeeUVbQNatWpVhbUcEyNVFJfgrABW40EA0Lx5c7nuuuu0usk0KsingN67d6+S6yrBx4OTV00Vkxsqs14K35YtW0qH/3TQfV9++aVWTxGHRDlAqCGvq6GmMjgpgBWWJgA1H6bzNGzUUHbv3q0tn3gIwliIChewJkRYEFu6BicFMOJtyWS2OnXq6EQ3Qg4FdCrCAmQSMiZwcvOFEHgA/QCZD596zy+7ytechjWw4RGEnBOxdisjXENGCADhJAtLpOOBvCTKBxC+K3YDvhFlpUxRchVGfHh5PFgevAe41xhXXtHQv44DMsOkV0WAMAoKCnT2Z1U8J91wUoDK4nw4FFUGO46l3SNwE9eqVaug29IN+L/B8z26fM0pmMVbMuJBRQIY2SxTQxSWf+ONN+rkc3c8gOujTHJUANp9KDSxWJbciGHJkAysk8US29lGXqqr1mQN+bSY3nrrrbotVbjogPX71LvqATQ5W7WRjpSLL75Yp/gbTAgDIgDyY+Uci8X37t1bhgwZouHHHfL/BFftpAB0rmPRCEHHy3333ad9AEYi3hAGpLONY6j10GzRr18/eeihh+Syyy7TPE4K4F+SkwLQtEzTwy233CKPPPKI9gHUrFFTTQYi6d3C6sOkIgCh65JLLpEHHnhAhg8fLi2atwi8hSXJvCV6JK/DSQEaNWokY8aMkdGjR0vbtm2TMd//xxNcwrACF2JZXn311fosnkGDBkmTJk10v46I4z+jLOxzedkRKbL4fr/SkFxzCwwvueaaa1SIVEAcxHKHS9M0nyEbT6FDvlOnThrCtEm7pFhKE6VSUlqSfPyOnxAyeuCVfnIxBBFeIA+CiecQTg2GGhFk0yBHMmD1U6dOlYEDB2qXJfl42hctp+TLzUnWpFxEtm8LzgkAgdXyqmlYgTgLMywJRfQDAGo2zzzzjI6EwGMg3YQiP+HG4r/LcE4AyOO5OhSqYctFAADRhCfGDN1+++3SpnWbZAEdBnG+PNSEyw3OTXID/vW53BhnhBOCsHxCU15unrS9qK3WchiIRcgxD+FfULASW8u3u4vktTorgAESIZOUm5cr9RvUl44dOwYCVQa3rL1yZIwA5gksifOk0wHOCwAoTKkV2fBCCzUVWbjtC8KR43BSAAsfYYI1BJXXcGymC3G/ImQK+SAjPEDJ9+vzpOys5CXrXe1pgIwQAIsO38HaXW04VeIMziNyASoLFxb3WaoAZvEnSLTemPmhy3QMh7coQ1akAvDDIZjCtaK7VvZbzafM8/OVJsf8G3lWTlQlAc6BJ9l6GCpyBEJEKgBEQCiFKxZqIxiAFbp2R2z5wIkQpeT7x/GdtDXRpIG45mGGdAvhRBkACYcOH9JR0fv37w9mO1rV04hiCtK3336r4pDMuiuy6FSoiNk5OsALIVVMeE6/0R+DyAVgnD8zIGnDv/vuu3VKKRPy6JRBEIagM+2IqUq8XILHEiDS3wUiMe8M4plztmLFCtm1e1dg8SaiWX+6PCHtAtgPw7p5wsnzzz+vD9uoV6+ejv1nYjXTUb/55hsdiAtRy5cvV4+gX5jJGXiEnYtQom3//v4gpPjhjM8kvsdaUPECPGDGjBk6rWnr1q1aJmj543NthKeDeENkHoB1L1y4UGcz8loP3iiB9eMJEIBn4AWEIAg0IiEQIlnnrR8TJ07UJmn6BBg1TR4Ee+utt+Sdd96RV199VXvJPvzwQxXp448/1nnHc+fO1f3frf4u8A4TKgyu5VQKEokHQN727dvlxx9/1FEP/fv3lzZt2sg555wj119/vdxzzz36shuAAMR7rByvYPIeRDEtiXAE6UzEZjuC8DiDVatX6QwatvFQD0Las88+q5O3yYsQiMukbx5fYDd3USDt34y7QypEMNScidbnnXee1nbYh3XjEUy6ZoyPbQMcB2nMomSGDILQN3DbbbdpHojGcwAFedOmTeXOO+/Uqaw84INZl927d9ftdOjccMMNcmmHSzU/x9OLlm6kXQDcnYKQH0yMtvDCj0cEPmPFxH/y0suF15APLwCEIUIXoyB++OEHJdeOZ6Yk+fAsRkgwpqhbt256LqyewVqMFSXRuROu2mpKcxNH2gUgnEA+VkiYoSwgZkMwFs7U1DfeeEPn/NrseLb7lc2AHMiEfMhjCZmMH+L1UIQyK5A5DrDOMYjL97OPbezXAri8FstnCuV0IhIPgAQm3V1++eVKxNNPP61WjDVTA+IZD1grBJu3cCNF4lhCE8NVCDNXXnml9OnTRz2A0ATJJKyZfIDPAIKNeDyFcMaoCc4J+B5SOpFWAQI3LyeEbkXm/XJzRSxnGioPYaJGpIOxfOsm3EAoxBFiGLBFGOGZQRdccIHmJa4zc557BUZCQCIeZZaPiGy3eWYU9NxLMIxlzpw5ej2J0mSV1a4tXQhe5IYb83Y3ns9A7OTCTyX4oVgkVvzzzz9r4cl3Quq5554bDKZlNjx5GKbIEuKwfo7Fgu1xBpDL9fMADwp47prr1qkrTZs11f3cfDHOqGHDhuop1J6soObFdam/N1WIk8EHRsFrwni4ICGWCMAX6Yvc/P2e/wO8lStXpvWlbXyXHxI8nxQMQT+zzbdefZGcb5X62ZJPmuf/EN1H8kOVHusXvJoXsPRJ94qLir3SklI9H+t2blvnGM7JejrA9/le7/nG5H311Vd6nWkvA1KBZVlharUStpnFEU4IPZaI68RsS3gGx7Ld4jdLPCivWl7wENfwmCFb5xjOad8VBSIXoDJAbmXEWKFZFURJblXgrABmqalg298RwHU4LUBlcN2q/w5OH1PKUMQCRIxYgIgRCxAxYgEiRixAxIgFiBixABHB7mUCAegWpOVxyZIl2iNVRueE92fzcZz+WaJ/gwEBtPy2aNFC27DgOGiOph1+0qRJ+mQRZqDQrHs63XFGCQSgCZymc972wSRyZnXS7B4IgPUzhIN2avpj6bZDoRj/HAgAGPtEH4A9vwIvCASgKfinn37SZ3Ly8GsUQ4DTqeErStD8jcXz9Bb6wq1RMRCANnUjnB4kPIDPsQAnB0a49UkkvULkf2RB7t0hp2MGAAAAAElFTkSuQmCC;" parent="1" vertex="1">
          <mxGeometry x="-1200" y="553" width="96" height="97" as="geometry" />
        </mxCell>
        <mxCell id="3Y24ioC7CP_jq3oPdULe-75" style="edgeStyle=orthogonalEdgeStyle;rounded=0;orthogonalLoop=1;jettySize=auto;html=1;entryX=0.5;entryY=0;entryDx=0;entryDy=0;endArrow=baseDash;endFill=0;" parent="1" source="3Y24ioC7CP_jq3oPdULe-15" target="3Y24ioC7CP_jq3oPdULe-45" edge="1">
          <mxGeometry relative="1" as="geometry">
            <Array as="points">
              <mxPoint x="250" y="500" />
              <mxPoint x="650" y="500" />
            </Array>
          </mxGeometry>
        </mxCell>
        <mxCell id="3Y24ioC7CP_jq3oPdULe-15" value="&lt;h1&gt;GLPI&lt;/h1&gt;" style="fontStyle=0;verticalAlign=middle;align=center;spacingTop=-2;rounded=0;whiteSpace=wrap;html=1;strokeWidth=0;container=0;collapsible=0;expand=0;recursiveResize=0;fillColor=#dae8fc;strokeColor=#6c8ebf;fillStyle=solid;" parent="1" vertex="1">
          <mxGeometry x="170" y="300" width="160" height="120" as="geometry" />
        </mxCell>
        <mxCell id="3Y24ioC7CP_jq3oPdULe-65" value="&lt;h1&gt;MariaDB&lt;/h1&gt;" style="fontStyle=0;verticalAlign=middle;align=center;spacingTop=-2;rounded=0;whiteSpace=wrap;html=1;strokeWidth=0;container=1;collapsible=0;expand=0;recursiveResize=0;fillColor=#f8cecc;strokeColor=#b85450;fillStyle=solid;" parent="1" vertex="1">
          <mxGeometry x="370" y="300" width="160" height="120" as="geometry" />
        </mxCell>
        <mxCell id="qQ-bPgCeEkWFOZFpEfJL-2" value="" style="sketch=0;pointerEvents=1;shadow=0;dashed=0;html=1;strokeColor=none;labelPosition=center;verticalLabelPosition=bottom;verticalAlign=top;outlineConnect=0;align=center;shape=mxgraph.office.security.key_permissions;fillColor=#7FBA42;fontFamily=Helvetica;fontSize=12;fontColor=default;" parent="3Y24ioC7CP_jq3oPdULe-65" vertex="1">
          <mxGeometry x="135" y="80" width="20" height="36" as="geometry" />
        </mxCell>
        <mxCell id="3Y24ioC7CP_jq3oPdULe-67" value="&lt;h1&gt;nginx&lt;/h1&gt;" style="fontStyle=0;verticalAlign=middle;align=center;spacingTop=-2;rounded=0;whiteSpace=wrap;html=1;strokeWidth=0;container=1;collapsible=0;expand=0;recursiveResize=0;fillColor=#d5e8d4;strokeColor=#82b366;" parent="1" vertex="1">
          <mxGeometry x="570" y="300" width="160" height="120" as="geometry" />
        </mxCell>
        <mxCell id="3Y24ioC7CP_jq3oPdULe-78" style="edgeStyle=orthogonalEdgeStyle;rounded=0;orthogonalLoop=1;jettySize=auto;html=1;entryX=0.5;entryY=0;entryDx=0;entryDy=0;endArrow=baseDash;endFill=0;" parent="1" source="3Y24ioC7CP_jq3oPdULe-69" target="3Y24ioC7CP_jq3oPdULe-45" edge="1">
          <mxGeometry relative="1" as="geometry">
            <Array as="points">
              <mxPoint x="850" y="500" />
              <mxPoint x="650" y="500" />
            </Array>
          </mxGeometry>
        </mxCell>
        <mxCell id="3Y24ioC7CP_jq3oPdULe-69" value="&lt;h1&gt;ssh-sftp&lt;/h1&gt;" style="fontStyle=0;verticalAlign=middle;align=center;spacingTop=-2;rounded=0;whiteSpace=wrap;html=1;strokeWidth=0;container=1;collapsible=0;expand=0;recursiveResize=0;fillColor=#bac8d3;strokeColor=#23445d;" parent="1" vertex="1">
          <mxGeometry x="770" y="300" width="160" height="120" as="geometry" />
        </mxCell>
        <mxCell id="3Y24ioC7CP_jq3oPdULe-71" value="&lt;h1&gt;backup&lt;/h1&gt;" style="fontStyle=0;verticalAlign=middle;align=center;spacingTop=-2;rounded=0;whiteSpace=wrap;html=1;strokeWidth=0;container=0;collapsible=0;expand=0;recursiveResize=0;fillColor=#b0e3e6;strokeColor=#0e8088;" parent="1" vertex="1">
          <mxGeometry x="970" y="300" width="160" height="120" as="geometry" />
        </mxCell>
        <mxCell id="S9Cv3rVsNq0ONA8z7l8G-106" style="edgeStyle=orthogonalEdgeStyle;rounded=0;orthogonalLoop=1;jettySize=auto;html=1;fontFamily=Helvetica;fontSize=12;fontColor=default;dashed=1;strokeColor=#66CC00;strokeWidth=2;" parent="1" edge="1">
          <mxGeometry relative="1" as="geometry">
            <mxPoint x="-90" y="570" as="sourcePoint" />
            <Array as="points">
              <mxPoint x="-210" y="570" />
              <mxPoint x="-210" y="570" />
            </Array>
            <mxPoint x="-280" y="570" as="targetPoint" />
          </mxGeometry>
        </mxCell>
        <mxCell id="S9Cv3rVsNq0ONA8z7l8G-20" value="" style="pointerEvents=1;shadow=0;dashed=0;html=1;strokeColor=none;fillColor=#666666;labelPosition=center;verticalLabelPosition=bottom;verticalAlign=top;outlineConnect=0;align=center;shape=mxgraph.office.concepts.firewall;" parent="1" vertex="1">
          <mxGeometry x="-70" y="562" width="50" height="58.5" as="geometry" />
        </mxCell>
        <mxCell id="S9Cv3rVsNq0ONA8z7l8G-21" value="&lt;font style=&quot;font-size: 19px;&quot;&gt;Firewall&lt;/font&gt;" style="text;html=1;strokeColor=none;fillColor=none;align=center;verticalAlign=middle;whiteSpace=wrap;rounded=0;fontStyle=1" parent="1" vertex="1">
          <mxGeometry x="-70" y="625" width="60" height="30" as="geometry" />
        </mxCell>
        <mxCell id="S9Cv3rVsNq0ONA8z7l8G-22" value="network_twingate" style="text;strokeColor=#FF8000;fillColor=none;html=1;fontSize=22;fontStyle=1;verticalAlign=middle;align=left;" parent="1" vertex="1">
          <mxGeometry x="140" y="220" width="320" height="40" as="geometry" />
        </mxCell>
        <mxCell id="S9Cv3rVsNq0ONA8z7l8G-26" value="" style="rounded=0;whiteSpace=wrap;html=1;dashed=1;strokeWidth=3;strokeColor=#FF8000;" parent="1" vertex="1">
          <mxGeometry x="530" y="854" width="260" height="217" as="geometry" />
        </mxCell>
        <mxCell id="S9Cv3rVsNq0ONA8z7l8G-1" value="&lt;h1&gt;vault&lt;/h1&gt;" style="fontStyle=0;verticalAlign=middle;align=center;spacingTop=-2;rounded=0;whiteSpace=wrap;html=1;strokeWidth=0;container=0;collapsible=0;expand=0;recursiveResize=0;strokeColor=#23445d;fillColor=#bac8d3;movable=1;resizable=1;rotatable=1;deletable=1;editable=1;locked=0;connectable=1;" parent="1" vertex="1">
          <mxGeometry x="560" y="882.5" width="200" height="160" as="geometry" />
        </mxCell>
        <mxCell id="S9Cv3rVsNq0ONA8z7l8G-23" value="network_twingate" style="text;strokeColor=#FF8000;fillColor=none;html=1;fontSize=22;fontStyle=1;verticalAlign=middle;align=left;" parent="1" vertex="1">
          <mxGeometry x="525" y="813" width="260" height="40" as="geometry" />
        </mxCell>
        <mxCell id="S9Cv3rVsNq0ONA8z7l8G-29" value="" style="sketch=0;pointerEvents=1;shadow=0;dashed=0;html=1;strokeColor=none;fillColor=#505050;labelPosition=center;verticalLabelPosition=bottom;outlineConnect=0;verticalAlign=top;align=center;shape=mxgraph.office.clouds.cloud;" parent="1" vertex="1">
          <mxGeometry x="-400" y="556.5" width="140" height="93.5" as="geometry" />
        </mxCell>
        <mxCell id="S9Cv3rVsNq0ONA8z7l8G-35" value="" style="group;strokeWidth=2;fillColor=default;gradientColor=none;gradientDirection=north;strokeColor=default;" parent="1" connectable="0" vertex="1">
          <mxGeometry x="-850" y="420" width="280" height="400" as="geometry" />
        </mxCell>
        <mxCell id="S9Cv3rVsNq0ONA8z7l8G-32" value="" style="rounded=0;whiteSpace=wrap;html=1;labelBackgroundColor=none;labelBorderColor=none;textShadow=0;fillColor=none;" parent="S9Cv3rVsNq0ONA8z7l8G-35" vertex="1">
          <mxGeometry width="280" height="400" as="geometry" />
        </mxCell>
        <mxCell id="3Y24ioC7CP_jq3oPdULe-34" value="" style="shape=image;imageAspect=0;aspect=fixed;verticalLabelPosition=bottom;verticalAlign=top;image=data:image/png,iVBORw0KGgoAAAANSUhEUgAAAbAAAACPCAYAAACbFY7mAAAAAXNSR0IArs4c6QAAAARnQU1BAACxjwv8YQUAAAAJcEhZcwAADsMAAA7DAcdvqGQAAEEaSURBVHhe7Z0HYBRFF8df6L2DSEeaUpWi9CKCICAdVJoICipNUAREpXwWQJFePkEQUECa5VNBEEERkN6RGnpvIZBQk2/+b3eSy2X3ci3lyPuFIbm9LbNT3pvy5k1QpIIEQRAEIcBIYf4WBEEQhIBCFJggCIIQkIgCEwRBEAISUWCCIAhCQCIKTBAEQQhIRIEJgiAIAYkoMEEQBCEgEQUmCIIgBCSiwARBEISARBSYIAiCEJCIAhMEQRACElFggiAIQkAiCkwQBEEISESBCYIgCAGJKDBBEAQhIBEFJgiCIAQkosAEQRCEgEQUmCAIghCQiAITBEEQAhJRYIIgCEJAIgpMEARBCEhEgQmCIAgBiSgwQRAEISARBSYIgiAEJEGRCvPvgEa/RoT6FRFxn1IEBVHKlCn5mCAIgvDg8UAoMLwCwt179+nv9RvoxvUQqlGjOuXIkYOClCITBEEQHjwCfggxIiKCldf169dp4cKFNHz4MNqwYQPdunXLPEMQBEF4EAl4BQbldeLECRo9ejSHvXv30u07t7nnJb0vQRCEB5eAVWDoed29d4+2bd9Bb7zZm+bO+5bOnjtHkRGRpFSXeZYgCILwoBKwCuzOnTu0ZMkS6tCxI23avInCwsJUd8z8UhAEQXjgCRgFpm1N7qke1s2wW9Sv/wDq3acvXbp4iXtjgiAIQvIioHpgMMzYu2cP1a1blxZ9t4gi7kcYc10yZCgIgpDsSPIKDL2re/fu0YULF+ibb76hNm3a0tGjR81vBUEQhORKklZgGDa8ffs27du/n0aMGEHDVbhy5Yr5rSAIgpCcSbIKDMrr8uXL9NvKVfTuoMG0eMkyunEzzPxWEJIOen5WEISEJckpMIiCe/cj6PCRIzRr9mwaOXIkbd68me7eu2ucIAiJDMpopPq5e/cunT9/gYKPHaPzFy7QvXv3o74TBCH+SVKupBCV8PBbtHX7dpo3dx6tWrWKrl27Zn7rPi936UwDBvSnfPnymUc8RyeLLIYWHEGpuHX7Nm3dupW2b99BwcHBFBJynbJmzUJFihShihUr0pNPVqY0qVIZF4iBkSDEG0lCgcEBL0TD5ctX6Ndff6UFCxfStm3b6c6d2+q45zaGvigwJAfCzp076ZFHHlGCKav5jQCQNslVqePdb4aF0y+//EqzZ8+mXbt3qwaXuf5QJUnatOmofPly1KlTR2rbujWlTp1aGkCCEI8k+hAihML9+xF07NgJGvvFOPpi3HjatGkT3b1zh1VXQlV/rbjCw8Ppu+++o1GjRvEcHI4lBHiO9uuYVIOOX3IE733//n36888/aerUabR5yxYKU8osarRQ/b51K5y2bNlKUyZPpdWr/2CvMIIgxB+J0gNzfCSEwvqN/9CkSZNo0z+bKDQ01PzGezzpgem4QNacOXOG5s6dyx4+Ll66RCtXLKeSJUuqVjTOiD9VijjMmTuP9uzdSxEqPZIqRQoXoi5dulCWLFnMI8kEVTZQSo4fP0Gjx4yhpUuX8vyXMzgHjszSpklFDRs0oLGff045c8qOCIIQXyTaECIeCyEwY8YMmjPvG17bhUlwQwT4VuE9VWBYZ7ZZtZz/++UM+uuvP3neDcNBf/y+0lRgSKL466wiDj16vk4rfvuN45JUqVzxCZo5cyblypXLPJJMUPmDUvn76tW8lGPf3n3mF7GJUMoqhTq7RPESNGb0p1SzZk1RYIIQTyToECIENcJ91d25cPES9XzjTRrz+Vg6dPAQKy9U84QaNIRKuh9BdCMsnBYvXUbvDhpEK1SPC8pLRTGBYhENfDvC08it8KQbbqs4Iv+SK1evXKUrl+Neh4gkunEjlE6ePGkeEQQhPkgwBaaVF8L69eupXbv29L+f/kch10L4+wRvoyohc/7CeRo3bhwNHTqU9u/fT3du3+Hj0l4WnEGZgOp2W4GrXhd6XtL7EoT4I0EUWISq9Fghc/vuHZo0ZTJ1696d9uzdw/Nf/q3gGOiBY19rIaMVKIbp/v13P/Xu3ZvGj59A166qXpdMuAt2oIyqfzmyZ+U5LQwo4seKIFZwkZQ5YwYqWLCg+wpPEExQZMLDb9OVqyF0SfX67UJISAhPwyTnMpYgCgyK6uSJU/TOO+/SmDGf0+VLl+10jPcoAZM2bVqqU6cOtWrVinLnzh0rY/EZRiLLV6ygF154kf5Y/QdFRCRdowkh6YCy8+ijj1KFChUoVcpUqrjZNLzUeTCfL1asGJUvX948KAieAb+vTz/9NJc3y1C+Ar3yyivJ3i9svCowVHrs07Vp02YaOHAgLV68hML86A4K6gnPCEoRpBRWHurcuTN99tlnVK1aNUqVSgkZs3enHQKfPH2Gxk+cxAYTJ0+fNoZ47ASRIDjx8MMPU9OmTah8hfKUKnUq7oXpJpL+O0XKFFSyRAl6+eWXKVOmTMaXguABEFuwRnY5J34rnOfNnRvpyY14U2BI1hs3btDKVato+PARtOaPtXT3DkyP/aMwcH/cKW3aNFS2TBnq3/8tGjRoEBUuXNhQTCrgHISw8HBet9OnTx8aP348F4Akqbh8KIzeX+kOOiWTLyhPKVKkoHp161G/vn2prurp58+XjzJkSK96XKkofbp0lDfvQ1T1qae4sYYtf3Q5FASPQblR/yKl+LgkXszoccerISHsVWPatGm0b98+s6XgP7WBu2XJnEkJktrc2q1RowYP3TgCa8fTZ87QH3/8QV988QWdPOG+VVg6JZBWJ6AZfc+ePWnlypV0h5cSeA689mN/NDswO5gyZUpKq4QtK3cPMoKbAiqOlSpVoi+//JKHZ5Mz6NFjzeC6deto+/btPCydPn16evzxx6levXq8fEOUl+AL0/87g74Y9wWdv3hRCWnWZU5EUvVqVWnMmDFUqlSpZFvW/K7AcLsbN27STz//TBMnTqSDBw6qpNaP8E2B4T76+kKFClHz5s15zRf+RutYgzhgyHDnrt3slgoLTzHhGRUNN0hIBQbg/ePAgQNK6Xq6u7RSL+p94Tfy338PmMdigzeAa6xaNapTtqxZPW7Z4fT8+fNT+/btKXPmzMbBZA7SHfO7CCh/aCCI4hL8gSgw9/CrAsOtMG67du1a+mTUaNq9ew+O8nf+6HtBgaVKEURVq1alF154gZo1a8bzDDrz9KtgLRdc/syeM5f++ecfjpOnz09oBRbDTZO7UXXIOVhULvxusfkpNki75557joZ98D4VLVrU/WcAh+cgrR0bC0J0uQOivAR/IArMPfwmiVCJIYQPHzlKU6dNp7179uKoCkhY7xMXghd3wf9o+Xfo2JHef/99ateuXZTywrON50fSkaPBNPOrWTRq9Gj6+++/vVJeiYFuwadMqX7jb3cCn2+EuAow0gCnwMjAo2cgODxHlFdskPY6JB2MWmOEhMLxmQn53ITiQX+/2GjZipAU8as0unnzJi1Y+B1t/GcTvzALTXXct2ptXA3XPAMGvE0D+vfnuRhHK0OAOaCNqrc15rPP6MsZM+jgwcN0n717JCWh4g46xdwJvmB1P7sgCO7woJeV5FUXnJVWUlRiflNgmAeAsQYc4d6zcHTqKehx4Se16i00fKY+DfvwA+rcsQPPw0Bx6VbBfZWm166H0rLvf6ARI0fS//73P7qout1JMbEDAXfSTae9P3B1L/2dq3PcxZ172J3jzrUad87V57h7T43jdVh3j9lSd4Knz/EFPEoHjiOCOh4r8DnR7+McR7vjzrhzjiscn4MQFWcE9b1jwGNihujrHLE65ozdtZ5id72v97e6ztFNhA7RaRP9PB0SAr/NgaEHhKG9mbO+xtuYR70Hd8iUKSO1b9eWOnXsyOO8adKkiep16Tmj02fPsYPZ77//ns6cOasUqeEM19eeV0LPgfnKm2++qXq/i8xP1jzXpDENH/YhPYI5MIv0QXoiXeMaDtNFxtfhxIR8ni4vru6B7/U5jvFx51or7N5JPwe4em8NznG8Br8vXLxMW7dtVY3G/XTxwgW6GRbGa4dSpkrJQ+t58+al0qVL82Lq3Dlz8rAxcOd53sBxwz8VsJPDzp07aN+//3KdDAu7yUZVqJOw1syh4lO8WFGqoOKGTUBRr53T3PF9XcVZlx9fywbugUb42fMXae/ePXTo0CG6dPEShYWHcTww4pM1cxZeC1imTBl6VMmjDBnT83U6aHTcHY9Zoc+xOs/dObDRo0fzAnsrdPp5mjaO8cc6XqQF9r47fvwkXbl6hadlMF2TWqVJRiWjH3roISpZvBhb4SJ99DtZvZe/8ZsCO68yGyvHzymF4huITiTlUwnx6quvUps2bSl37lxRQ4YobACFDf4LR/znI94/7OaNm3zcXyRHBQaOHDlCX82aRUeDj5lHrKlerRr1evMN/tvbgnpP5eHff2/gHQnumQ0PKwa+PYAFsbOQ8wS45Vm6bCn9/vvv5hELIiPoqSefpL59+0Y9Bzl/9VoI/fTTT7R8+XI+Fhe5lIB+vWcPViAxwd0MZTTr6zm0Zs0ay21ZAATCSy++oMpfKbNGBLEz5dW/r6Zly5axKza4QMPu0Pfu3VX1wWgbI94pU6TkhdbYUSFXrpzstQFGT0899RQruJTq1bxNR40hNtS74G8VMH2A98EIyJ49e9jxMQTdnbt3WNhFqrRVIo2dDqRMibil4TltKLBnnnmGWjZvrgRhnhjC9oq6x0hVv+GzNCZG3IPUPVu1akmNGzemjBkz8rG4cBR3+DsyKAXHfeGChapsrKLgY8fYYhkNcihdLW8A5oCxVCcdp2sueqz0Y9S6VSuqU7cupcI8NKeEwfoNG+mHH37kPQWtSJ82LTVv8Ty/u5EVMfMjbgVGlD17do5DzAXzOFOVA3VN584dqWHDhm4pME4L8w3w9/Zt22jx4sW0Tf0+f/4CKzLkJaZlIlS684nqUSlUWcM6SHhByqLys1DhwryUpFWL5tyIAihrvpY3O/ymwH5Z/ht17tQpRgHxDmxFUYz69etHTZo0iWFlCFCgEH744QcaMWIknT13npUZkh+gkviD5NoDQ4WbNm06TZg0ySikFuC83Hly07Ytm6Naz95wQVXOceMm0JczvrTNNzyr68ud6ZNPPmEB4i2HDh+lXr168botOzBAMnbsWHrppZeiyhySYPeefTR06Hu0UQmluMD5+fM9TFMmT6Lq1asbB6MwEhRVZPCQ9+ibb75lQWlF5UoV6cMPhlKVJ5/i9YzYKHPCxAm0ceNGXqbCLtBs8gdE1QcloNH7goCvXas2DRs+jAoXLOB1nmmQL3iPcBX/Vat+p5kzZ9Bu1UqHMtA7S+jzbIWXOox4pEmdhtOse/dunPYZMmTgr8+fP0/Pt2hFx5VSiQnuZ7zf2wP6U0/VWHB3jzrER/9G2k+eMo2+nf8tnTt3TjUmoLBip6tOSwP1bLyTijfSNX36DFS5ciUuW7Vr1oh61yVLl9KoUWPoxMkT/NmZzBkz0aBBA9U7d1fX4IhxncYdBabTL2bdwd/qAhXHjz/+D7ubcievIUMxHbNhwwaaPGkybdq8iRsgUOKu/MQaaWPGwIwPZMLDqjGCZU54PhQZ0sXXMmeF3+6IiuXYWvEKlQCPPfYYffjhh6rn1SaG8tKKK/zWHRr6wYe8FQvcQSHhAZLQTggK7oG0RquuRMkSrCzQK+KC7RSQD1euXOHFvN4CAXLWXGSOBdhWz0HAs7CODztlewt6AJcuX6J/sc7O4hl4T/QGIYywf5cGcUSL86QSQrt27bK81jKoOGtBaQfey/JaHdT3kBt3lFCdO28e9Xy9J/322290PeQ6DxXGkKkWRNUH8x3Qq0AvsmGDhrxmUNcnT8F76XD8xAmeNuithPff6/7muBmGU9HYKi+g3gF5D0F5+OhRGvzeUOrStRtdMXeoQL5hSsAyfVQwNn+NIyEc4Hir2EVEBtE/m7ZQo+ea0KejRtGx4GPsnccuXXVaGj/mO5npeiM0lHue3bt1p08//ZR7KngOesQQ/jjHOsTs3XmFmX6WaePGvfGqUFr31KkYQRv4zkDq2LEjj1IgL7E7R1xOznWaMGZ8wsPCVU/2hGoET6a27V6gRYuX8EgD4oS08Sd+U2C7du10XVjjAEMLUF6DhwzmbjW3LMz74aXvqAQ4dPgwvfjSi/Tf//6XE8oh6QQ/gXTHwnCM87sC6b902TLzk+egkl1Ulebkqbi9o2BdX7Q3F8/BHMxff61jYeOKp5+ux15GHMvd1atXeTnG9evXVf30b+VzBSr79dAbNGPmTBo95jOlRE8ZEsdH0MNGbx3DQ8gDT0EU4IMPw/YYJfn666/pxs0bnDZxpQ++1cEZrsvqiz9Wr+aRl5On1PvGcT9PQF4ioCGEIetXur3CQ53ocSG/7WSXqzhrUCyvXr1CU6ZOpfeUEo4yIgsA8YS8/PPPtfTyy125JwpftVH56GX8dVpCRsA5w3vvvccjKGfPnvVdaTvhNwV2/Phx8y/PgfIqXLgg9evTixo1bMCt/6hEUGl5U7WO/lItvO6vvkbr/17vujQJPgPfkvXq1OY1YHbcVxV/ydJldJv9W3rO1ZBQ+kspBnd6Vmiq/PjTz+Ynz4Agua4U19q1a1wUGwxvBLHgxByHaj/zUcigc+fOs/IDCdlgwnwXdk2YO2cuXTx/3ucnI+5aUF++eo0+/mQUrf1znWp9G4I9LrQCuHP3Pm34ZxO9N/QDWqfqJBKV723+2IEnRKpnOwZL1GEYDXTo2EkpMe97+I5w3NXv6zducoOAh+ZUmuq426E6arGCFXw4KAWF37pNi5cupc+/GEcX42PHDbfQD7VXFDgDPa8bN8Lopx9/4v0Qt23dyj1DwDmp8sdV2rgDnoOUv6Z61DO+mkWfjh5Dh44cpbuq9+kv/KbA0OX0Kr9UGmXNmpW7rs8//zwrM8feF1q+P6pEHjJ4CO3ft9+obL6lq+ACpDuGbuGtA/lii8oGWGmdOn3aPOA+KCdosWIoy71CE0T/+/l/7HPQU9Dig5UeDH7sHxZJBQoUoPLlKxjGQmYBu3v3Dh08eJCOqJ5/QnPq1Gn65Zdf6bB6tm4R438dYn4yjoDov1xz5uwZmjBhAp04YT1HYwV6bPv27WXLt+07dphH3SdI1d0UZlAVmY85x9cQm0Hccv/gww9UD8EPS3LUszA3t2jRIrZYvnDhonGc/7cHc08pzMDT4C4uQIlBvDEU+f33P/Ac/e071vOb/kRHyzm4RJ0QFhauytcvSpmPYxd0MMywui76ntF/WYfYGLUIhiHGriTo9U+bOo2OHzvuVe/fCr8psPBbaElbv4grYMUCR7xwyJsqVWpKYSouFDoM38Di6vPPPqOjwUc5IYAWMEL8geHccuXKmZ+sQZ6vWL7caFR4AOYazp45ywXZPSLp0qVLrIQ8HYLA2Pvf69dzA8tVuan/dH22dtUNJ4DG0++rV9Ot2wnvzeXatat08eIFs8zrZ+NvI6RKmYIyZ8pIuXPlVCEXZcmahVKnienM2g68C1rbGEJbuGABp1FceYjv0WuZPHkyz3cb8YgbxN84E2bXKSlN2jRsIanaqVHH9RmOQMBt27pNNZIMZeMLKDPr12+gefPmccMAqYk0cJWjRqyi45VSRZhHJDje0T/O4Mjly5dor0rbK5evGAfjCZ1+KnNiBeMXfqs/HMBnKNZ/VB5+NesrOqQaaOoof2eZHup8HM+YIQMVKqgaeeXKUpXKleipJ6tQpYpP0KOlSnIZhHWrFcY9jf9hNLNk6RJasHAB12d/DCf6TYGhErhbyXWSogDkzJGdXnv1VcqaJQsP4+BlkcjYigUt0GnTp9Ox48eQjtEXCvEO1t1VwL5XqkdiBybfV6xY4fG+RBg2XLN2jdnoiRuUK5SvX39drgq9Z4UAQ3Erlq9wGb90adNS7do1o6zfdBnEfNGWzZsoTerUbCqMwBXVQcnFF4aANX4MVM9FPffhvHmpdq1a7EqtR48e7AMT2wS93rMnvfTii1Sndi3e1sWoS/bvjG+goOFRn3t5ceQfLAsXL1lKP/74o3nEHi3YEYdCBQtSrVo1qGWL5tThpRepS6eO1FH9xmfEtWjRIpQ2TRrzKuM6DNXhvdErQL77At7raHAwffvtt6ywo2NnB76N5DJRtEgRqlWzBj3ftCm1bdOW2rdvR61atqAGzzzDa9hcObWGybk/h8qsgOJAXFq1asHLCZwD+zx1AtUnWKXHN99+Q9u37+A0NrAo06rbmS1bVpV/Namr6mAMHjyY57JgqYsAP4wjRozgZSdYTvDYY4+yZaaRxrFTGXmKnvC38+er+r+W5Yev+M2MPmeuPOZfcROhKiKGE/CibVRCT5o0iece0PpFdCAQ16xZS6NVz2vnzp2Jst1/cl0HBpAHCN/OX0CfjhrN1oJWoJCikn+nWlSoLO6YyaLVhSGc1m3bqR7VPi7UbqFOK1umLC37fhllV70Nx56SKw4ePkqNGzfiNVN2lCtXhqZOmcJKW78D4omKDsGH3oB+HtbHrd+wQSm3K5YxR0nJnz8fTZsymUcWYmKUYxT9dwcNVj2Cb2zN6B1BOmdIn47X3j377LPszBr73jmufUJ+QSAcO3aMnWnDcnP3nr1KAdgLUdw3T+7c1K9vH3rttdcs80+Lh737D7AAd7XO0xBaRo4WVuWijlJc2FwW6+HgQQeLmPEMpC2GlNCjQ68aBiFwvn34aDD3DDE/ZsgHO/AEo2cwcODbvBWRlRk94o69AL+eM49GjfqUh6Bdl7dI1VhJRcWLF1dCuxa7rMMi4Tx58nDcUQbuKaWEkSHM+W9VCgC9UZiee7pRb2aVd4OHDOJ0N4pWzHi5s5AZvSAoEMgoK7A2y9H5A7h8NYRmzZpFEydMoNAbGJJ3TBHjLwz64f5lypSmFi1asFFdiRIl+H78vXk/XTYADK3gOB3rAH/++WcKCb0R487OVK1WlcaMHsULwt2RG3YkqlRG6x7bczgnMlqE8xcsMK2EXBVkIT5AXqBQYeFr2bJldLm2JES14levXm1+ihsIr9OnTylBG2wecRNVDLCgFXNS7oDKhQALK95Kxw71bticEkLKsQzi/WGNOWDAAHr33XejQuvWrXkRa0JgiBFSiiqTavm34g1bMVeM4V29xEQHxBc9SHzXqVMneuutt3gIGM6bDcViRRBdU2kDJeLKmAa9oOnTp7EVmWsieaitbt06NPjdgTRkyBBeDgOLVizPQKMQdR2/c+TIwcoBAvKdd95hSzX0Jrgh61J5uQ/y/8C/B+iXX35WyuuGOhK7IDumTTqlpGDIg6UBb7/9NrVs2ZKVLyxTkd5oMGBeGI2H2rVrU+9eb9IH7w+lXm+8QUWKFDLvknDA2A3xQk8QCtw5QOE4lmmY9mPIEF6LtPKKiS5xSjk+9STnH3r5yD/kmS5rGv0ZIVu2bNSgQQPupb3++uuUM2dO8yxrtmzZwiMjaHQ5KkJPSVQFho3/qlSpYn4ywNAh1lWs++svbj3GLnJCQoGKij3EIHTsCFUKDC1+9JrdAb0ZDA2j4Kqibx51Dww//L7qd7cLPJQlWoP4bQWEV+ZMmamiamlbDQehgYWWNwIqsBbAjpU4vjDe0HDX81zjxtzLgDcSPN9VixVxg6DFjtBQdnDtg5tZpRjeAn5LYchx8qT1cgakNb6HIVVc+ZUqRUpq2uQ5GvjO29S8+fMsxFyllRZ+UGaNVM9ykFJ6zzdryvNj/gCKF8svtm7dyjG3vK2ZMEhXDBNCmaLHAYWr4+eMPo68Ka0aDD16vEZ9+/SlYsWK8e3sGwyJB/IRPUcM+RvzXkZ6xHo71d3DUODQoUPYs5LuecYFzkG5RHnD4mUEXGsF0ge783+36DtuFAWcAkMLC0nyuKqQaEFo8CIYtlmphBR2dI472YT4BIYCTzxegd16odA5FzMINMyNwB/lufMXzKOuuavO/xUumSzKrNUzHIHS27BhPTdy3OHS5Su0a+cudU/rksRlsEJ5Kq4Ejx7CdkQLKmsSQkhhbeSj1KZ1KypevJhhIemGMAFQtg0aNlC9nFI8b2f7FqrOIe8wT2S8U8z3QtrBUXZo6HXziBU4K5KqVn2KW+wVK1aMUrSu0zA6jVOo3gR6OwMHvsOtf6MsxFUiXHNGlcvVqjGMBbl2YHoAoV69OvRWv748VOZOvDU4F72yFi2aU0+lyHLlzKGOupdHCQmWopy7cIHdod29h3lFqzgac3/9+/dXHYunosqbO+kA9LlQ/vBh+8wz9c1vnFH3U/+OHDlKf6xZyzLEWxJHgZm/YSTgCOYDdu/ZQ9u2b/dJKwv+AYURBgPGPKB9Ib6gKsZfqsfsDidPnaZjx+1Mt4OU4E2rBK614Qh6b5g3wTohd8rH8hW/Uch1DB/axx3CUjsgTVoYva86tWvTE088zgrWXbQggVUlPItgeMeeILqulBPy0Ipw1WiAW6S49EhOJbjhBgoOXT2JqwbxxZAYevwjR44051uQJ97lC4oHFn9jNMelElQnZlI91uHDhlGhQgW9Kge4Bj34Zqr3iDRIZWORl5jcVkoc9gTBx4JViuLHApUWzzdrxr13TxpLjuh8LJA/P7Vr25Z7184YuQrnyRH0/Q8/KgXmvaFOog4hosXlCLq4O3fsZF9vNkksJDAY/8dcEBzD2gGTWFizubJGxHEM5S1cuNCF9VEkO2ZFrwMVIfadgtiFFYSS3bCgBs/7ftkydZ66i1NR0i17zGVhfN+VNVl84UKkRgF/k2XLlYsazvIUOPWtWPEJng9x9bxbt25b9mqRhqdOnTJchrl4PqwNsds3jFb0RL+34D2RJ926dTOPuJNSMUG8IRRRLjH/GZcswUJeKE4825t0BrgOwhrzqXbe4RMT5K+2GHZG14c0aVJTW6V0HEfFvAUK8FFVj2GsgXtbgeM7d+zwySVd4ikwleFYPKoLDAodzJZ37d4lqiuJgLzBEAkmZ9GisgJFE3MN51ULHi507IDCQR5jTsouf+HUtWrVarygOI2FIMR116+HsrUT5sNwPzsguHbYLLaFQMMPnLDqIaOkBuJXsEBBriNo0XoL5pl5At78bAV6ts7m6khbhN27drPlnavrMYQGy0ieb/MD6MF1fbkrK0b8eENIyHXOf1gw2wlQAIULT/3eKi5HUI4qV66sGmHP+ZRn8cGtW+GcHlbpqY+VK1+e64M/4o70RAOxWrXqKl1S2uYBtquBQYe3JFrNxXYKaBkyKGTq/S5fvkqHj3honSbEO7Vr1aQihQuyQLEkKAUbAWAn7tiYBVdde+rMOUvPD4aIweRxKSr9aAmqUb0qD0lZPQ2K8MKlyxR8/Lil0NGCd/mKlWbrWz0ahcsBPEtFma30ChTIb/9eiQpM3HPxWh8jDa0FgB1IG7wVvJ6jNWwHpzy8MDilkWbDxg1RLoaswPVYfoAeDASfPxQByPtQbioPC1gvuXzlMjuKNtLBOk6Ie/PmLdh601/xzpAxAxUqVIDXTyUFkK9wDH3+3HnDR6P6cYaPqX81a9amzFmzc33GwIVPQaV5BlX2ML+cJYv1CAfnizoXyyi8JdEUWOpUqbn1oysOvE6jBxYSYr9eR0gc0CJGyyyDjVURwFDT+vXrY7XkHZkz52sXu3WjR1SZ1+DUr1/f6J3bKBZ48Vj31zpLocsVVvUosB7FlVDC/bHOxRgu8Y/w8i+GSy9397myAu+vW9OxU8rAEO7W7490hMUaBKAd6HWUL1eeLfD8oQRY4ajAVoHt2plHPSdM9dDZAYLtmxtgCxe8gz/irsHUSJmyZc1PiQ/q3P5/99PtW67XHP6++ndeT/py164+h64qwBJx/ITxbETjqhFhuHnzjkRTYFif4jhRqBcIGhvzCUkJKAWs58HOq3YCgYcRz5/nRogVhlKxd8ibPn063twQ8z3Zc2RnhQkh5gyejl1hsa8XxvWtlBgWVWLDRztQ5mBs8Oijj/lVcPkbCNbEHN7EfMnlK1dUGtsvQ8DmlA/lfci130wvwHuX81IJoExAnty8GeZScAIsFfE3RYoUVgrdmFNLCmDU4t/9/9q1U4w0Uv92795Dy3/9lX5W9dRfgRd5h9sv8sazT3vhT1WTeLVD4ZjBKHBwbWOIKCEpgXzCcFv+Avldjo8fPXrUmHewUCpHjwbTmTPWBRWFGCvyyyqBhd4eXCZhMWzWLLGFIkoMtmnAxC+WXMQmiP788y829rACMUPPv1TJUjw/JNiDRgc8ZriqknCvhfU+/p7zQZnLmtWV9aRrIrgMxo644xF/DnlqcDf0nKHQsellUgAKDBt2op6xsrLA/htfifuumM/2lqSRwgoksr11mpCYYJ0MfJzVrFmDDQIcQfHUnhOCjx2nbdt3xLBGxC/8vWzp92ztZgVkSNkypemxR2F9mIKrUp1atbhlbzeMCBPpraoXZvhyw7OM5+HTipUrbaytjP+LFC5EFcqXo/T8LvFTbR8EoMBQL+0xjHxSYEIxHjC8iHiJKnOWIlkVNuOeQZQtS2a/9nC1MsSCbkyRJGbvWYM44X2xZ1tigBSJSzXCX6m3JCEFZvhAjK92gOALKk9URcAwIob4rLMoiG7fvsXGHM69H+TrH3+sVnlsbQwAM3b4UnRcr4TnYC7BzgDhwsULvEsyllxooCgxhIkxdQhfZ7gyKWFbUvW+YKrt79b3g0hc9RFWfkZvJx7g+3p377ijBLNx/3tV0ffDKEJSKF6oE4iGVX1wJK65wvjEl1mjJKPAkIRo7SVmQjqCeLhufSYnjEoAwwdjsj52sTHqqrGP07///sufACoQfFu62jcMFmxPPPEEDx9qIAgaN2pM2ObfCsy5waEqjEcAnoOwccMG3oTSygE0jmTOnIn9BebNm9fvwutBA/mB7U/sdJgWjGigxEdd8WVoyZ28heMElJn4AEo9nm7tMXhHV5aomsSSva42zo2LJKTAFElMoCSR8pcEQL6gLa56Ya1b8YJHK3DWIaWs9u7bz3OaxkFsRvkLr99yTlD+qC4qUrQIL17WQPggYMjyody5jBvHIohd0RgOnw3hiYoKjyA3bVxNYTAF23tUqVLZ5wW3yQEosGyYy3FRL+GWCMZXPFfmR+6rBkjwsWPmJ89BlC0FsoNWCVW9d38rXtz9nupSoIFlZ/ySkOi6FLVkyQVwGVeiRDEqWbJ4goZSpay96btD0lJgSQxfWgYPFoYAw/+NGzVy6bkCXs2PnzjJXs4BfB9u2LjRdtsQVKxSJUua3ibMgyZZs2RmTxJQnFZgYhrDhbA2g1yCIEXvz2r+C2BOAvNfcMAqxA1a7fDC4mqOiz2cHzrIlmT+7M3AkfeK31ba5n1cwIDCSvHiiD6K/bpcLfvwFjTWriQRi2rkCco9Fpkjd1z1stq2bUMjR4ygjz/6KEHDsA8/MGPgOSKhbUDhjw8rpUAH81RVKsfcQcARyLCdO3dEbZKI7U8g3Kzmv5CyMGOuXr16jOFDRzDvhh18Y1e8SBY+6IVpVzRYEMnPcmr56oqLuMN8Pq6tHgQDlH146rfbbdcgUvWC97IFKvLbVyWm74HtPtauWWse9QzEG34k3XGJhPLpj3g7gt3jUf7VTc0jiQsaIq7cW+m6ZXjOqMa+EBMywF+nt4gCswGtltSp7bcRSY4gTRB4Ez4X3iv27duvWuWHeRgR60rgk86sIzGAoEHLED7T7MCeZHly54l1vdEyD6K9e/dwrwsCCC6m2IAk1rkGeBaUpb9Nvh9EkDfI60oVK6nfrtIriHvCe/fuNZfB+A6G9eDv8lrItSjh6imYO0XjyP56o1TMmDHDb8OIrATVP5R9d/eti2+QjyjvcMgNR9nWGHVp29atPIKC98B1CRm8RRSYDWnTwAxWJ6wkkyNPVqlEObNbr9FBWQwPD6MTJzGMGEo7d+2imw6WghoIlsxZMlO5MqUpW9R6r5gFGfeC2X616lXNIzHB2adOn6GDh4/QmXPn6cDBw7wDrzMQYajEBQsWYGXpQ31JdpQoXowyprefL0RS3lE94WU//Eh79+1j4eddbwbC33BphQXqH3/0sZFxTmXCXdDLrlu3nvnJCjyPaNXqP+jWHcxXeRPnaHA1TJ1CQkPpyJHDtusQEwMoiDy5crJrMiuQwgh//b2ezp6/4HNaaFyVBU4v9Z+rc9xBJLMN8I8mLXVrMNyHre0t4ZJJvAJ/1apVdOrkKbpvaT4fxJPGcBSMlr6VoIKiQR506dLZdhgLfvrQ4v1V9fTgOgiLnJ3BneEpvE6d2pQ1Sxau0IJ7wKdfnTp1zE82qPw+ePAQLVq0iIdzvRJILMiM3tewESPppGld6k1OIX8R74pP2M+f4jjOg3ulzz//3CchqsEtNm/eTD/99FOcZuv+wp144z0hz7AhqiuwBAVGUJgb9BXEC1ak2FAUzg127NhJ23fuigo7VMD2LvjugVjInNTInSu3KDAbUCH69u3rcm5k27btNG3aNDoO570WdQzrZDDmjrF5e4ViHK/y5JPsxsoK9OTgzXrx4sXsysoOKLCaNWupv0R5eQIaF/Bp50pQIg/uK6E3f/5CWrxkmeqF3KD76nR3hCvOgdJC7wU+F2fMnEXz5s3zOZfg4iqrUmJ2uwI7MnHixCjF606cndHXXbx0kf5c+yfPy/qCu1HQaecOMLxq2qSpa5mmnjt58mQ6d/Zc1Dt5A67D4uSVq1ZTw0aNqX6Dhio04J2uY4b6PMcdqnqt3iIKzIZy5cqKqbULsCYMwQ4sat69ZzddN60RncmUORM9qRQTJtrtFZgBlF3t2rXNTzFBS/rEiePsG9FuDgZGIFgoXfSRouYRwRMqVKhApcvE3LvPEe7lqH8wqvl01Kc0ZcpUbky4a+GH3gosSCep6z76+CO66wfrPRQp+NZs1LiRecQerBnERpTw1u7NfBgENoY9f/3lV5r51Uz1Gb7YvVfBiLuevnB1FzzT1RZGjmDRdrny5ThNXIH5zNGjR/G9vU0L5OfR4GM0ddpUnlODYkQDBamCwHqRdWMQNWzY0HCO4CWiwJxAuqKVAusYd1pvyREoHLTM27dtw0XSG3LlyE7NmjaJQ3mZlVhlSueOHUxrxNigovGQjcWXOJQFu+U2eY7SRhnluHqm4AzmIYd98D6lSW3fetdDcnfv3KWxYz+nN954k9b+9RedVYrsRthNnidDHum8wucbN8Pp3IWLtG79BurVp68SnKN5PZkPDqRiUCDfw1S/Xj1VblKrOxo/zuAY4nTg0GHqreKAhfHGGq6443AfwlopK8x7/fzLL/TJp5/wkKQvygvg2RkzpGdLSpR9q7tBIZw4dZo2bd5iuSAbn3XQ5Mmdm5o3Qy8MKyKt3w9xX/jdYho7boLpXP1+rHvbgR40zsf89/jx42nr1q18PwB3c9jWCEG/T6ZMGXkvNncWWdshCiwWkWytVrJUKVvT7uQOBBXSpmXLlpQhg/V2HyzQoopqNKgKUH4YEoQHDneB94yCBQuqv5wqqvnZ6lma7DlysHkwiKu3J8QGaYbdlp9++mn+O05xpk74c+1a6tixE735Zm+aPXsO/fbbKvp7/Xr6Z9MmWr9hA61cuYrmzJ1DA/oP4K03li9fwb4y0RtyzMs4n+UCCMYSJUtQpUoV+Z5WZUQfu3fvPq1Rce7Vuzet/fNPuqB6NnfYuCNmHPA3BDrWeIWFhdOBA4do1lezafCgIXT5kvVODN6A0Q1XDWjE+tq1EN7zbN26v3ndGYbtMH+FxgGMmbCWToN8Q08Hc87FixWPyke79J04cQKNGjWa9u7dR6Hojal31uc7X4e/4Qow5Pp19k86YuRIWrJ4ie3NcRhLCxs++6zq3ZfzaapGFJgTEK7PNHiG52dE2LkGll6lS3u6KDiS0qVPR/VUyxgTy+6AfMBwbr269WIJITvBpIG3dLipyp8/v+SnFyDNdPq/M3AgPVIMjQ4byeSISmoI0LVr1tAH73/Ae0R16NCJOiilht9du75C7w99n5avWG4M/UJT4L6xssiNZ7mgbNly1Lp1G8riarsXPFM9/56K7/oNG6lfv/40fsJE+nXFCtq5e7fqUZziTVQvXr5CZ8+ep0OHj9LfSgnPn7+ABg58lz7+5BOf5nGswJB3VvgGtSmynCoqzuiBjfjPf2j69C9p2fc/sNeb73/4keZ9M59Oqh6aY+8J+Yhtilq3bk0ZM2bi6+3SF73S2XPmUN+3+vO9sFntiROnlNK8rhT3LdXYuEM3w2/RVfUZjguQHnPnzuOe9w8//hRrLWZMIllBd+jQwa21eq4QBRaFkZkFVcI2U93snKrVLgLPNVBArdu0Ya/h7gJlkyljRmrcuLFKX/OgG6DH17RZExdrWaxJmyYNPd+sGbfGJT99Ax5T+qgeysN586pPRn2xFn9GPhsNCxVUuqOFfjPsJoWoXgOsznjI1zzPOEd/4j9UmQqiPGy440aPzwZD8aahGtWrUZ3atVRLH4OTsePMz1T/+I1UPM+cPUPTp01XiqwfDRo0iEZ9OorGjRtPEyZMoM/Hfq56GCOod6/eqtc1mDdxxbsZ8B0cgvdghCJPnjyueyeIs1IUWEgOS8revfvQ66+/zkpkyOBBdPToEfNEA6QHFvM3atSI0wONO2AVU6QJ8mjXzp00fPgw6t+/vzG/OXUqzZw5k2bNnsW/p0ydQp8oBQ6jLvS8jgYH29YznSrYaqZzp05UoXx5VS9T+1QvRYE5kEH1DFo0f54eK1XKp25tcgETw1WrVvVs3yZVVgsULMAtTHdBAUd+FH/kESpcCMOI7vNQntxUpXIl85PgLYYySEvPNW5EXV/uwunqqgVvYHwP8QQ1pJVTbHCew7fqj8eVcIsy3PFBwOFKrGV76cUXqLSLNYB4On9l/gc1FxISwt5dFixcQNOmTaXJk6fQ7Fmz2VgDc2WRbJIA0NtQ74AJK/UbV6OhldrGZ6g7oMH1xOOPU0bbIfro/430gzHMPWPYU/WedDycQT6WKFGcXu7SmRVISl6kbt0Q0TmCnimWSSxcuJAV5TCl0IYOHUrDhg3nz1g+cfzYcX4ub4aEpDCvjcb4jGHRpk2eo1YtW5r+GZ3P8wxRYApkHgQk1ruge43hQyFuUBkwjFhNKTF3gXlz06ZNuCB72vLC9vq1sSZJXWbf9o9J/fr1OY6ePkuICdIPAS34jh070quvvsoWbRBUyAmrno274B7GXZRCUNIPvirfffddKly4kHGCjyDemMPr1q0bFSms4uyiKFgJ3uif6HLn+LbGN4YcAdjpoFy58pTNhw05QdNmzaigarDZeb3B0eiY6XgYMePvzDxzBJ/R8ISHm+4qD7FlkW6su8rB6Gc5fjKIPqqPRIM7GneN5A5Co2cbUvdu3Xk+21j/6RvJXoFxZqtMhY+8Ll268BixPxI2OYB0y5E9OzVRCgkWgu6QxlwE7Vyx3AFDljAkMCa3474eDl2bN2/u1bOE2CAdETC0BSXW7623qMqTVaKGorSo8hQITiiwVEqQ1qpZk527+uIfzxnEGWXmueeeo+7du1P+/PbLP6JBmfGs3ODsLFmzUDOleGAs4bz5qycgzsWLFaMXX3zR43kid2KNxiBM2Hv37s3KFmnvLo4pY6W0YhPJFoewOu7d603eecJfI1wJLqlZy0eqrqY77x2voLJFUEoVj3JlS1OP117lVkl8bHKXJODhDQPvxExskE4YVsLQ3kN5rBcaa5Dv+MF2DYUL6Za1Z+mMYRVcW7RIYXWl67dAS754saJUtmzZJJSfiIcRF72LtT343vGc+HqHmM+JK1pISzTwMEqB4XYoGwxH5Xs4Lx/Xl3M9d8D5M44gDxEgC3IrpdirVy/68MMPeejQdZ5FP8VdcD9Y4cHj+uBBA6l48UdUfI3vdNzwf6TOIjM4x8K5t2GUauNa9Ljatm7DSjJfvnz8vS0O9TH2UwxSqoTB9kVQYhiOjI6n47VOBKk8UO+qU9cOpAd2e3j22Qb0/ntDqG7d2qxwjfcxfuICaRUVzGMxgZyPpHyqR4ph57dUgwcbyfrTujtRuhoZM2agF9q351aRu2sM4gNsl1KmTGmemEaLydU2IQ8UfkxyVIR8+R5WPaN6dvXQBF8GUccOHShtGu8WiGvBWQcCzjxmiypXbdu0cWuhdHzhumx7kgkJE39PqiLSFGlbuVIl6te3L02ZPJkFd7FijyhhqxqB6sdZEOpP+hh6bgUK5FcKsAtfDwOEcuUMs2p3R0HckR+IKwLuCeOsZk2b0qSJE6lunTrGyIG6BeIUK5XjujV/j/sG8ZBY3z59qI8KGFrlhcheZpuOL0B80WsZMKA/ZcuWRX2Jh8Z1Y32O6xfgPFQ9sRo1qtNH//mPek4vVZdNa111qWPeWeLwdewYRVB6pRBrVK9OI0eOoDfeeEM1Goqz8tLv5g8SSIHhTY112MUeKUpjx45lC5/E6u0gNilUJYF59QcffMBDWrqbnhjx8RVdiaPXuscOhnRSwTjVr0Cp1K5VS+UnFBMEQeznp1ABxopwIeMteE9YMGE+I0OG9JbP0QFCsEmTuBZKe05029b6PT3B6vrooMSHel93BLQd+nr0i5D+Vs/xpUAgbZHOsJiDl/933h5ACxfMp/nfzKW3+vWhBvWfpsdKlaRCBfPzouKCSlmVUAquerWq1L3bKzR9+nRasGABDR48mGqp8oO5SigZ3Ned94aAdVfROYKh6IoVK/Ji2ymTJlLpx0pRarhFgwcNPJaD8Qd+gPHbTDOcp36jd5E1c0ZqqXqis7+ayVMQ6HnpModetmNaOwZ3wH0Q8qr0fbVbN1rw7Xxq1aIFPZQ7J/fOKBKWnLiXQ4ABB8cdz4kb3B9KBTutv/F6T/WMedT9la6UJ08uY5QMz2CTeCMdgJEqRvrws/gf/sOzI1QDNRX7oYR14qRJk9jqMXfu3F7lVVyoNHajpLhBzlx5zL+siOC5D4xBw9wS/u9iaOKISLoaco3GjZ9IE1WB0t3z+AJDUbVr16IRw4dxxkGRBjJYs7Fs2TJ2jmkH1mWUevQx3pDS30sEIlUhP3wkmJYsXUo3QkNVwY99b8QRPVyY4/oyhIDieuLECVqyZAl7CrB7DxgbvPnmm35vJGHrlpUrV9KFCxcs7xsRaex+26Z1S7a0tDoH77BUpRW2f9Hm5FZUrlyZ6wyUtjfgOTBZnzNnDrsIsgKVP3XaNFSrRk2jZ6vi62t63cNiWiyqNb1vaBGj7wulhzqIvLFb3oDrPx09hsaNG6cuVErNSkypMj1q1KfsBsrdNYXO4DlYw4V8RTr9889mds+E41i8CwzhrKKh/oMpPuaP0OPCqA2G9zAniAYwBDTeFQFOarHIGJaMVuDdMZ+LBfZxpTe7plKnYPE08jM09AZvXwOH2dh3DPUA3jjw/AwZM6kGRR4qr3qyrVq2oNx5HuL0dgfEG/UU7p+QJuvWrWMfo3DIayyUvsvfaxBryGo8N336dDwSg2kYpAl6W0gnx/rna7myIl4UGN9Q31bFGSa3GGZo3749CzGtiaNeKIEUGFo+GOdFAg8fPpznbxCX+EjYhASFCtnoznvoSubPd8b9dLC7L+KI79ytTK7QQlGXIyv08/ydv/o940I/0+rZ+h4IruKmv3f1nq7Qz3AHx3jYxVkTV5zdxdV9wm/f4TkxNMzs5AHmOb/873+5p+1tI9QxjfAbZQsKAYrhwIEDrMxwDAoSi29LlSrFjV7IDoB3wHU6j/BZ10f92Q6cg+89yV99X+D4tzOOz/fm/vit/8b7w1N9cHAwb1yKxhsaJ1DaUORQVti5W08JOaaF4+/4IP56YCrO6dKmY4et/fr1oeqqpYHWFn/l/ELxrMBUVnCiPqxaJhgyhKk88CRjkzI6C+OzoLhDQsUjqbyvt7gbf5yXVN4RcWHnvCo+rmKEOoXga7yv37ipeij1KVgJTDvg02+p6olj+DI+6rJz+tt99iafcI0mvq71Jl7e4sv7+ILfFRhulkp1sx/O+xC1atWKt2LQ48I6xCKeFJgea0ZXFsMxmHtDi0HHISETWvAvCVk5BWxSGk6LlbK4r+qqXf1MlSoFD0OivnurULQ4gqPaSpUqGT1pi+ehUZpJ9YqWLl3C5/m7LAR6+dLxT8j3SIw086MCyw2NQBlVoeI1VZ07UdOmTd2bg4gnBQZFil14sRYIRiPJxspQEPwM5l7Q0zl5+oxt/cT80Ijhww0fd5kzeVWLIY4wZPXV7K/ZuIOFosWdoMDgrWPy5Elx7CknPMj4rd8NixVYGsFly5jRo9hTubfj0t4CTYyCjd8ZMxnmoSNGjKC3336be2GCIHgH5o6xxZCrxuW9+xE095tv6ODhw/y3Z21jnGtYux07dpw+++wzPmT5vCC09COp4bMN2euFn9rgQgDiNwUGM9gBAwbwHBMm9fQ4eIJ1X83/YQFXSPW62rdrRx99/DGvNkflkxaaIHgP6g9GVLD8BFirjEg6cOAg76h8WvXUMPznLqy+1H/woD527Bd06eIl4wsLoK8wmoJlMLD4lLqdfPGbAoNVH9zLwBIlPiZU3SFd2rRU9akn6a1+fentAf3Ze7Y/rN4EIbkDJYE92eAGSDcWnUFvKSLiPs2fP58mTZrI5tdsju5glecIjumAvay2bN1GY78YR98tXmyeERPcwRhfIXY1VZQXDCeOrBGSBimHKcy/fQIL1VDIdfAIVSZv3b7Fe87A+7PlsIEtxhoJPB8r7LHiGw5csXbGsRfocZwEQYhB6tSYzybe48uxd+VYX/E35rB27dpFJ06cVD2qU4S9p9Jj4Tl7PsdqKlVr1fXYL0yvaVq0aDF9/fUc3tgS1+OW+r6ssnT9VR+y58jGrt+wE4KtZbOQLPCbEYdPeG3EAQegKXhtBnp/WFhYuHBhUViCEA9AsWAR+ZAh79GKlavUEYiO2LVV95LwDeaeKzz+OOXN+xBvDYIhP7iaunv3DoVeD6XQG6F0+vRp2sc7/4byLZ3rLu4G/35KWLEHivbt2vK8NtYeSV1P3gSuAlOnwNfW0/Xq0muvvUbly5eP8nsnBVoQ/A9EBYYE16xZS0PeG0rBx4LNb2KqMVZgDorIEDBYi5mS0qRJzcP6Efcj+F73I6I9keAeuNa5/msBhdtVqVSR3nvvPbaIxP1lCDF5E3i5b5Zt+E0bNHgwz73BHQsmdUV5CUL8gboFN2AYuuvRswdly5bd/MYZVQcd6qHxl1JOERF069YtunnjJq8r46FC8zuttJyVF8CtEB4pWoQ6d+pIlSo+wYpLlJcQMCUALTP8wFy/QvlytGD+t9S5YwfT83PCWjwKQnIFdSxz5kzUplVL6tundww/jUYNhRIygiP6Myso1kj8QR+Jk0IFClDPHj14k8d06b3zeyg8eASMAkMxhzk8fCouXLiAHq9QIcqEVhSXICQMqGtoMMJZ8itdu9L777/P3m2ihvnM364wdJf+sQbDlfjBbsSwJh4+fBj7MM2cWeq8EE2SVmBGew6uZCKoaJFCtGjhQp68xfYdMnwgCIkHFAj29evSqSNvJfLM03UpVaqUUYqMFZAH0+uGujKuA6jzaVKloobP1KclixdR48aNuQHL34nyEkyShhawKY8oqDDMQMsLXqmrVaua4N49BEGIDeomGpEwyIDrOGxFMnHCRPV3BcqcJTNvFAk9Y6iluMH9cD52HsawZIUKFWj+/G95UTS8bdhtuyIkb5KEFWKkam1duxrCG8xNnDiJCzK2K8D8FnY4xXYJMMdFVHUhlsIsCEkHvS4Mhhlbtmyh2bNn8x5b2FcKfhSxXxW82aMO63oMBYgGKXpWqN9orMLpdo8ePXjLEtzTUGzRdV3qveBI0jCjVwrsqqnAJk+eQjlyZGe/a6+++iq7ixFvGoIQOGiRAgV09uxZ2r17N+3Zs4c31QwLC2MlB8UFhYU9trAEpkyZMjyv5qiwRFkJcZGkFNi0adNpxYoV1LZtGxXa8lyXY4EWBCHpYydScNyqLuvzRXEJnpJEFBi2Pg+jjRs3UoqgFFSrdi3udUlBFgRBEOxIIgrMaIUhSCtMEB48HOu2IPiLJKPABEEQBMETZDGVIAiCEJCIAhMEQRACElFggiAIQkAiCkwQBEEISESBCYIgCAGJKDBBEAQhIBEFJgiCIAQkosAEQRCEgEQUmCAIghCQiAITBEEQAhJRYIIgCEJAIgpMEARBCEhEgQmCIAgBiSgwQRAEISARBSYIgiAEJKLABEEQhIBEFJggCIIQkIgCEwRBEAISUWCCIAhCQCIKTBAEQQhIRIEJgiAIAYkoMEEQBCEgEQUmCIIgBCSiwARBEISARBSYIAiCEJCIAhMEQRACEKL/A6AklTCfDibpAAAAAElFTkSuQmCC;" parent="S9Cv3rVsNq0ONA8z7l8G-35" vertex="1">
          <mxGeometry x="24.899999999999977" y="40" width="230.21" height="76.2" as="geometry" />
        </mxCell>
        <mxCell id="3Y24ioC7CP_jq3oPdULe-37" value="" style="shape=image;verticalLabelPosition=bottom;labelBackgroundColor=default;verticalAlign=top;aspect=fixed;imageAspect=0;image=data:image/png,iVBORw0KGgoAAAANSUhEUgAAAJ0AAABgCAYAAAAHKnARAAAAAXNSR0IArs4c6QAAAARnQU1BAACxjwv8YQUAAAAJcEhZcwAADsEAAA7BAbiRa+0AABzeSURBVHhe7d13kCVV9Qfwu5GclyhJBRXMCkbMOYsRMCCWCUpF/1AQq/RXyqqlAmWVqQQFjGAARXbNu6gkFVQMYE6oKCCgrJJmZn/9OfPO256382bexH09M9/dO92v+6Zz7veeG/r27UXrK5QFLGAWsbh1XMACZg3z3tL1u/iLFi1qnc0d9AnpRsvCzCi7yXVsrhCwD0gn+W6k613JN954Y7nttttav3pHU0i4yy67lCVLlrR+NRubmHSdhKuTrHfCDQwMlHPOOaf87ne/K0NDQ2Xx4sVdrQJx6yL3K+nkK+XYbLPNyite8Yqy3Xbbte42G5uYdEOtI0x+TPPvf/+7vPOd7yzf+MY3yi233FKWL18eBdYNnSL3I/EGBweDcKwbK/fZz3627L777q27zUafWLqpDaKR7pRTTinf/e53g3R77rln2WKLLVp3R6IJhAOV5ve//31Zd/O6smLnFeXzn/98WbFiRetuQ9FSdR/06Vi7qZPuPe9+T1mzdk3ZaaedypFHHln23nvv1t2RCHFrEleNbV8ST6U57dTTyoUXXRiynH766WHxGgeq7VDvpifd+op0i6ZOuve+971l9erVZd999y0nnnhiOeCAA1p3O9CSFtni2KeWbsniJeUtJ7ylnHfeeeUud7lLOemkk8rd73731t0+B5WOodaplfY0YH2vA4YUpOWQpZsLPxX0iTZyi1uu9Vsz1o/OgMgAySDCqNx5yNavaJVLNFzjZHOTk07BL2B8IBwi9i0UI4dRlVtfnXdzm5x0C+gdSNfX1q4GtoRbIF2TUBVOZyvgd99bvA4gWLa66eYt6bJP18+uM5/138hXd/2MkVWnoaRjoknSjIZmZrGoUgLXz8pAsk7XALS0Ovw/HDMdfYTqOB8xgmwNUELYicoiOzaCdEOVUtfHn2H9BuEq1zJ4M4JuzZZr+lQeU3Gd/asM1y38tCKVMTILfYkoK12D6tgI0lXFVxWgkzgrg6HtuDGtQKKBgYE4TzLV+1C33npruf7668uf//zn8sc//rH8/e9/LzfffHM7DH+QpGwTb5rzOcLCpZup2jcDaIalq1kT+p0JIEydLJ4ImJS95ppryq9+9atywQUXlK9+9avl7LPPLp/85CfLpz/96fKFL3yhrFq1qnznO98pV1xxRfnTn/5U1q1bF/GZ4FWvWeghT11mCsjWsBVPffDsdXzcNnB7Wbp+cVmyaEkZrBQ8WCk6OqRVzum88zHYyhNXlgMOPKBtecZDEs7xv//9b7nuuuuCbP/85z/LH/7wh/KXv/wljtJx36ICatt8883LVlttVbbccsuy1157lTvd6U5lv/32K3vssUfZZ599yo477li23XbbILCnICBcL/ni77jjjgtCe9BvQYPHYFadhKULT8OuUk07/iagEaQbqjS7aLBy1chhqCLdUKVfKkY6mCzp3E/xEcx6PO43v/lNWLebbropCMbiIRaScZZOCXfHHXfEPUd+EWLrrbeOh/X3ve9940H9/vvvX+5973vHw/q02EuXLo3jWBiLdPUCQ8D1FeEa0WS10AjSySDSxUml3SRdYiKkq18juuYUsc4999x4uK6fJr5ly5aVHXbYIdzOO+8cViyPVrIg3n/+85/wzzL+9re/LTfccEOsYHYdGRF0m222KU972tPKoYceGpbPs9SwVuNUiLFIR369SOpYVv1ZXMU1dmz9hUaQLrQrm44t7cZcXQuTsXTuZR/uqquuKitXrozBwfbbbx/k0FweeOCBsXCSs0aPtUMaoDbhDSJuv/32sJScpvivf/1rrIW7+uqrg5RIeuyxx5ZHP/rR0dwKMx7xxiKd7sWt/FRu88otaxTlhrtGzUFNt+15qkkiSaOpQ5Z//etf8VtTePTRR5c3vOEN5bDDDitPetKTyr3uda8gombTAEHYHHAgISLd7W53K4ccckh54QtfWI455pgInyRj+ZAREG08KzceiD1YudaYOf42CbNDuimQI8Gy1a3bdACBwLRHWq373//+5QEPeEA0o9F/qojVaZX81vwibN1i8us3i2g93+Mf//jo47HEml5+uBjZjkM89+sur8WxcnqFyys3XQU4PBHVi9PD5jp+G6HXXXWtG2aHdGPrd1KYDhJm4edgAJH01bJwx3rXgp86eRAuHWIB8iVxETrv5X1hu7k66tccqypQNavDbrpmS4ZjZzs7nbwiEMtRudZh+I/rtfuVfOEitu7Umh3STSOmy9p1FuxUgVTiZP0WWwkdBbMB9fSQbyoQE7IF4aYWVQ9o5btdy1uu2znZx9FtM0jXIUPIOEVMteBZxrRcnlD85Cc/iZGrpjb1z8qxhixoNtFImc3ytGCaohmJlgDtyDuPUJ13EHE9mXqQq3GWbjQowPa/EHz42lhADg5xDAYMEjzmMhJ1LUkFjkmwvJb3Ec6TiY9//OPxNtr//ve/YeJVMBUjDJKZOkHAdP0JOuPkL1312+xz+14if2+43mtF6lfpN0IQq4vL+2TvvNbNIczQ4DA5zMV5kVnfjrUaaPW/kmD8/frXv44RLrK5jzhXXnll+dznPhePxy6++OKYcnE/SWW6xBMMVs60CfL1L+iMq/KeFixcB+HyeqB1PX7ntfHRGNJNNxAPOSoKxtMCE7ks3t/+9reweHVyXnb5ZeXUU08Ni+ZpBXIimGewX/va1+JpxD3ucY9y8MEHtwcPLBzSsXzSMeXielrBvkWbUD2i5b9SVc+Y36Rbsrjqh68fQToTu5rFNipj973vfa98//vfj4f8LJtzb9z/4Ac/CHJ53nrE4UfENIn+myaaQzoEdc0EL0s30LKizUEtr3VCOp8E4WDeki5hFYj+lnk5/TpEsVqERUIQrYYJY5O/CLRmzZrykY98pHzzm98Mcnq4/+IXvzjm5DzNQGZNrHg8lUBKTzNYurCeE2iGZh/1vDlPNwZ68NKJeUe6el8tjpXCzMfd5z73CfJZmvTjH/84JozT74Me9KDyohe9KCyaphcpEc5L0J5APOYxjylbb7N1e4Qqvl/84hdhNeF+97tfPJlAuCVLx378telQ5aluyYJJ6VrIx0A1NxlR5nXzWodHXZpZxPn5z38elkpfjNNPe9zjHhc7J3n+aTmT1SNHHHFEPMz31IG/HA0jJuIiML+ecjhafsRf/2IUos0A5n3zmrBQQJ+MlbKsSX/NM1MkyuVMT3ziE8trXvOa8pznPCcI6NkqQuoLIlMS2ZzdD3/4wyDdXe9613LPe94z/NWJHla2r1An3IZ8tlHrwyUma7HnHek6FZW/keqRj3xkrCgxzXHRRRdFn0z/DLKpRbRXvepV5QlPeMJwk1mLj5W89tprY0RruRPrFk1vyxJOtpBmCz3lr4N4k8G8tHTdiGfAcNBBBwVZEO5b3/pWzM0ZDNSBbKPNuSHo2rVryy9/+cv4bSHnQx7ykLBynehXAg4PdIYHPCP+VZfbLn5PPv+NJN1MNUzIwYJpDhHISPXb3/52rBLppTm88MILw8oZhJgieepTnxqrh8Xb3325GlrEchzTTQGNJN0UZR4VSIVoRqTPfvazY5WwSd8vf/nL5ZJLLhk5dzcKDD7M43mXwkDCFIolUprtBYxE45vXsD8VC9MOOfbiVGdNRLqEQcOjHvWo8vSnPz0ejVl8aRdMVk9fD8zfISiianp/9rOflU996lOxAtmk8MMe9rDyzGc+M0bD4s7+YN3NZzSedOgSREK8Fvl6cRtotgGskr6aPhvSmCYxYez9hzPPPDOsnqmUXBSg2bWc3GTx5ZdfHkQ033f44YfH22DiW7B0G6PxpIPly6a/YHfdddeYh3vKU54Sk8aI51nrGWecEZbNb+/AfvSjH43pFUQ0CHnZy14WfUJkG82SzhSaZD3nBOmWLZv+1Rsmelkrc3ImgDWV//jHP8r5558fy5hyAYBXFo12H/7wh8fTCRPBW2y+xawQrY7ZTm8qmBOkW7pk6qSrW6V0rIfRJ+K9/OUvLw996EOjP2fi10jVMqg73/nO0RS/9KUvLQ984AOjT9gN9bjnMyZMuoExXrjYVLjDg/lpRj5H9bRht912ixGtpxAveclLYqCh7/aMZzwjJoo98Pd4LBdqjva2/XwnWh0TJt3SPjSOOvAzAURBIgTURzN5jHQehb361a8OEnpF0QLNznm4tGjpFrABjW9edZ/vGJgZ0tWRTyVYMy9hH3zQwWEBF0g1cTSedLMBfTvWLh99+e1f/G/dy+sLGB99R7qhPuwzsmSaz+ivVedBrup/XocgYs0toDs2CelGPj7fAO+KD2P8QuMj3QKahUmRbqoFzZbdXsUyuH6o3DE0WIYqy+CaeKseEi9t1Mk1mltA8zDrpBNWD2hpdaIZio549U9GbJcwTLr+6pjnQCHy2uHq6Py9gNExYdIhzVRUK6zNDBevX1SWVjSzw6bl9t2YzH83t0nRkYkFwvWOsUmXZKi5fCcjfk8GGS4Lre4SGf84aYwIXvmNfM1hzJVByuikI1d2ssZzvYLf2sC0vSqk5droMe4gWsvxm1HUo5pLCML5rMEcwMY7cY5V4Fmi9fu9NtBJuBZTOpOIqLul2wVVMcTRCzR2qly9anXZbY/dY0NCizFHQ1vcCVqMiVqYqTa3Hr/5RLwlU554vO9974s30KyoadKm1qNhJOmcddPtaHKm37GI1xmneMaKC+r3u+QnCQe5/asNbMybeQ7q5ebOR1NA3HT5ux9hVwCvMXrBx5OP97///VGRPI4bTa4mYQPpxtP9RIhSR2e83fxNEHWyIN3b3/72eIPL3iG5NVc3CJsuf/cb5N+jN6uVvcb4wQ9+MPZBztcdm4xmbHQ9CurZRrrTTjst3lcdGBjeRHosCJvh+1X8fOSGdLarOOGEE+K9jfEqVBPQSNJ1EsaqXfvEsXJ1yzpav6qiWxxjPrD634/iy3fmXSVybksLa/WQccHSzTI6CYdDkxGhaZ1xTS2yJSGTlE1Es6tMC00ugF5RJxyoaA2zF200n3TKIN0cxlyqWI0fSLSzP1EpqjJsckE2Oe9zonkNKIMJuLlkOZqGxpMOeRYI1CzMHUu3gMagsX26TkxGjAULuWkwby3dAuE2HRaa1xkE65tuLmC65Jl10nms0/cf8OgR3ZQ/HQUzl9Hu0+XO4HEx5hRGNkFxz+3W9ck2Tx5gW57jwfVcQL0S5TPRfHowFprQvLf5UOU1z7thIvK0LZ1AlBUKWzySVJTqoTrXuf/uRNEEZU8E9GXVR35uMwnXJDkRqk4qFUlZJ2zb4dp0oevo1eW0fumlU6G9KtYya2QdWj8UYcQ3F1ZLpI60DKEL/6tjWD4qq6mnU1e96m42kOWbyDJPCz7aUqqpyNMmne/YW5eWyK89Z4ZEah82GzjbFhVp3OslMf7sYmkDaFvc+7RRErgpSD0k5J01sPu6vYnpz4bW9rHzVUW6ShnrK0QS/SS7/JHFfsnOrVAmr733/Lasyu6kdXTmfyLytElnG9Ozzjorlkfrc7nMpCIX8tm82Rp9OxXZvch9CXFZs33gLRMnhBrCny8Hvutd74r1bm9961tjq3txuq9vl2Gk0blIMSxJdT8/7DZarXNPocorv9LMggbX/PblQoq0ApfLrb1SFptZS086rmdarne+m8C6iev8VefHFv5kVBkRztd3bKRoU0XkI6s4s4nKc/rwjYlOmeRBnvI6v5kv+bRY1V7I8m9PPOWV4FdTf9vtt8X6O/4hm8uMIyEd98hgSTyjYsGofCura665przuda+LfZTlRxllvMKJjzGxTa7zhHjlubOyQbt9oyxr8dVU7xeIyLetBKI8bLdBoMgllmRIBwqWgjnh0vkgiC22fF+LleM/FSpzSCOsTPMvfr9BOgo940q/dSCb+DIf9XyRg6LEY7Pqj33sY7Ht/rqb14VfhSQPIP14B6EqNGHd4yJfvphY+dNV4Ow9fMaZZ5RVq1YFmZHYyl4Wz26dn/nMZ+JcmMyXfNYrhsJLotfhPlkTeU4OurniiivinZBzzz13xK7vvkvLr8ohz/xKRzhIHSkfciX41crZIT6tHb/OkdHmj5C6yG/iKgsgR5anuDM98Ui/nhYs+b8KTphP3yx98IMfHFuY+vILq2dbUzuNO/qM0Q033BBCS0jN9ikiu4pfffXVkbAmxgjVp4rsy6vGpFAyYC9ffoTxYTdKEuell14a8SoUtV8YQlGSuO1+SSneESA0ZXgLTFyIQliF72UW/jR7CjNHytLzMRJ5kuctt9oySCI8JWkifUROOlYhky9rr8LrhA8Lf+UrXwl/dul88pOfHBtjq5wsEXlUUp9/IiNyqMTyRk7flfWWlzTIDD5anEvur7/++viUgDwpvPxIMeuq8vzoRz+K35ayKwdyXHLpJWGZyGerWu+MsFx0IH1vltkfmZWkQ0aGbMqNzCqj+Gz2KF+2t+XP5wl8BRKUoQ8uX3DBBVF+ykAaygXkW958/IX8X//610NWO5a2K1/8rSBjPj8pAyJCFoUucYEVEOLom/nspO1OWUQR2s6eMmyT6vtZBD/99NPLdddeV447/riI2wbRBD/22GMjTgVGyYRhEZBUmogtbt9gUOCa/S996UtR6+TLDphIKT07YtrnlzCrV6+Or9W4rtD48UKLnc4R4Ytf/GIoXV5UKBaPn8c+9rGhIN9vRWTkU5is+3Of+9zog2YtdqR0ZLbZtcqCbPxoKcRNVwqcsrOiKRCEV6hk9lsa8nfooYdGhVZpfDoA6R/xiEdEwSIHWVTUN73pTbEvHl34oIryoHs2Q9eFsfjEJz4ROuJP5RPW5tuIZY/kn/70p0EiJAG7iz7/+c8fto6VDusO6ueA/Ih4zjnnRAUig7L0wZfXvva10dzT/8knnxytmzLFDWVW12PbhrvASUQmOMp1pEwEUKMQg7IVkKO+jEKjANbENecSZ01kChQ0MlIuICDLhAiadF+XYW0p3Ud9KQfRzjvvvFCgmmKbVYUqTZYsP2+ulrI8yCueY445Jppx+wIjLctLaASXP5XFPsGaRHGoEF5f9Oqid2af9axnRVw+RkK2um4cWR+yUrpWgXWQRlZS4b2zKi+ILQ7NrXAKyC6eiEFWm2YjOh2zHAhLfhaSxaFz8mqyySpOfWJyIK8Kyq+86CPyS1+u+dYZC4kkKjn/ujnPe97zgkBIymoip8oBeRwN8ksn5BTPK1/5yujn+/Cypl767il7lYulpQuVqE7eNumS7QnndQdZk5FE0ysRjE9l6+c4p0SQIRYg45AGOFd4BNfpVts0UWqr68imL6amI6ZazaJRln4h8lAUV8UcH/FlQY8//vhy2GGHxWfNWRHpER7BkcOoTOVh0W3Vj2TIg/jy6WNz/LE8rAsyC59NUOpBfJpklQSB3VMZE/Sjq8JayqPmVFzSYD0NMjjWAElUYIWtqeaffD4nkJtnS/eqK68K0hnE0RmSaR5tP7v3XnuHLsnLIaWKd9RRR0VTq/K5Tz5dJWS2abeK5R553E+djuaAlRWGfpSV7oRv4cq31k/a9MviiRMpDUIQL3UHG3qr44BSOAWnFqlpGM2pTZpFZFOr9cFkhPIUikwTSngZk4EUkuIUhjiYfX0TfkBTIfPicJ9FQRhkFlYhiCv7XZqwd7zjHdHkqJXiyf6hsPKU5xSj5uuDOCK5psDIzSgOGRVYWtM6kE0+ycMiZ8fZUeuQpExZNZUqI5IjpDywdCwtObIZlT9y8Lf7bruHXlQeacmffCAb68cApM6Wb7Y80kv9qjhaBrolHyusUqTlk39pqCxIL2355sRRP+Y5mZSvc5b4Qx/6UHnb294WXQLXyCAP4iSfvOsiqbzyOynSmRJBFFaFQ4iLL744Mk0A/SuK0FF1TUGq6Qo9hapDBllHhe8oo6BwKFgY8VGya5TpHCifoGCkhmCUoE9HuWqftCkK5Fv+b73l1ohbWEowCk3rggAsAcuiJr/+9a8vb37zm8MiyJswIUMVDyWSC+FYQhZf3sgsXuRHXP1feZV3YTMeLuWRvjz7LZ+OCtdEunOFF2GXD08XiR8xEQmMtKVPhs2Wbxa6qlcSaak80qZPR3Fw0hbWubyky/v5W7o+m0Cf4qYjfUVHLcbRRx8dfTqVgwzS227b7UIffksn5Q7ZW3nbCISSoSxghStxtYS1kYBmCXmQTo1UEDqrSKfQd9l5l7bC68TLa+LnIJswmaQY5yyS35ptTZRCZoHEn0QUjxEhC8vkH3nkkdHE6gaAdMVl3mpgcCDC1GViRSlYOpol/UbNATmFYxmSTAm1Vx9RhUGwtWvWRn9VlyOnS/RFDSSE0z1ALF0RlZWsOtnkkJdsolN28fotbKbt6BqopMKRbXBomKjukU9498VFRk04i4cwRpzC0Z2RsXi1UAglnDTcd51zLq8qmfjkS/61dtndMXBEqki/yg8/4pKGNBHQ9Trao9dOJFEI1GZoSzgEUwMVNoEoDck0u0hB2X7vuNOOEZcwwqeiMl6/A5X1MPkq81krCOtzR2oUZen0OhLEPaRXc8WhNhLOdAg/BFaoFMWv+ChUUyRdQ/oPfOADMdFtZKU50qH2jS99MZ15hEAUCjYoAWFBukatKoIByMmnnFzWrF0T6RlEIaB+JSup8IyQtQpGvCtXrgw9qZwqk/5ZfTqBPPKf+a7rK/2QhZ5Mr5x00knR/2MI+FFuWSHlBwH1vTTxRvDZ3BpgqVj6d+RJawlIIzy9ikPrwNLqj5LBwEG3Q7nmJ6tUdGGQUprmNTMOR7IAGbpaOhnKqRIBUwGEUjCaWGRTYPwhoVpDoUjJD9YDa8E6OCaxhN13n32DCEuXVTWtEsrnjZBYmhTLcvo4CNPNmlKmfoJz+VBAFGYeSQdZs8TCGHxk/pJoHOvEisFll10WxJKXo6oO9wte8IKwpDrELDgra4Cj/0j2VFpC38xIl2UkW1pgaQpnYEMv4pcXheKDw/q7Clzhmy7RhGvaxS9N8dJTfgVIobM0Khn5+TOYQGqyq2Tkdq4M5EUeyIsUKo4KYlCiPHRByK4yv/GNb4yuSGdYeZaOsiCDOHDgkEMOiX4cbpgSSl27bvqFH3Fxmnpl6HzJ4mGrnZVm1Af+mK22siq77TpsyRCD0CJW4JTHn3syq3YYXAhHUazDDtvvEOHUIgMOJFGIjvxqmglL0eJV6MITUnjpmWqh1FTEip1WlLPOPis+Dqcfqe+lUBWiPKnF8iRe17bfbvuy5157RnjWgxVjiVUgyhNW4UjbyEx6rsuDzvw2224T+Vfo/CXSokiDlZWu3wpWpVFhpEku9wYHBsuNN90Y6fPPHxlVCnIpIPl3X5NIp67JFzKTR4V2TbloqsVLFt0CaSGAuOlY/pUJ0Dd/rJP46AHBkUr6ZFEWWi4kYX3JzBJLiyWmR+e6KfREbvLKp7QYENaN/ozUt9pyq7Lf/vuFzlSAJByMSjqkgWRnBpC5emAY8buKSQc4kWElIayjDGRzwXXGqXPvNwEQ8MMf/nBYHk2V5tY1/SgKYQHNt1E4BWc6wmflyDxkGvzkOTkppX5PAQkLGY6/TsWB+MH1etopV4Zph6/+6Xe515luEppuMo6871qnfw4yrvq1/J3+65CXzCdX9ysdkM8qtsiDe44gHPid8SBpXT/O089oiHSrSDci3UyiM7n8HcfaLeRVI5lxE49qNgVRDKujn6QZ0zQRZDx0+uklzHwFMnUjzWRQL/O+IF1itOsyqLlgzjU7rJzmRTOjadLXySYEsiaOhgXS9Q5lMZP66VvSsWiaOcK7l/0mfSXEc48lRDomvd78jIYF0vUPZp10nRiLhIiRpIs+xOBw/yXhut9h4SoOLZCuGehb0tVJwU+6er8vwFt1LfyPwaMF0vUPNjnpesVG2RyNfGNggWT9glL+HwdcLV3iXMhdAAAAAElFTkSuQmCC;" parent="S9Cv3rVsNq0ONA8z7l8G-35" vertex="1">
          <mxGeometry x="61.5" y="136.20000000000005" width="157" height="96" as="geometry" />
        </mxCell>
        <mxCell id="3Y24ioC7CP_jq3oPdULe-39" value="" style="shape=image;verticalLabelPosition=bottom;labelBackgroundColor=default;verticalAlign=top;aspect=fixed;imageAspect=0;image=data:image/png,iVBORw0KGgoAAAANSUhEUgAAADUAAABNCAYAAAAGlyzcAAAAAXNSR0IArs4c6QAAAARnQU1BAACxjwv8YQUAAAAJcEhZcwAADsMAAA7DAcdvqGQAAA0VSURBVHhe3ZtpjFTFFsdP9wzDJgOyDAyyoyYTImCiIAJRMQokQNhMTEwQPjySMfJBEgwfXCCoHx6okSUgxkBciCzKKmEP4SmgwAMUVJ4giwyLbAoiMDM9/ep3bp+eO0033F4Ywf9wuPdW1a06p85Sy60OVVVVRUOhkNQWotGoZNKe/z3Hs1I4HFYiz/KhMIUqKyuVyKDw3w34SAUTwHjlasJUVFR4z2gqEonIb7/9Jjt27JDt27fLuXPntFBeXp6QR8FsYYyAunXrxhkw0B6wctrjTguWZpqxZ9NS/fr1pX379tKvXz/p0qWLJ6DTUPTw4cOyYsUKWbJkiRw9elQuX76sLyCUaRBYw0Fh7yVeYaS8vLyGVSgzjihDOve0D3j2CwXIg+rUqSNNmjSR+++/X1544QXp26evhK5duxZdunSpTJs2TX7//Xd54oknpLi4WCulksSG04EJAbi35wYNGohrN22hePYLRpmrV6/KoUOHZOPGjdKrVy+ZMX2GhM6cOROdPn26zJs3T/r37y/jx4+X1q1bx1+yK3/6L5YWBCqE/vMEMkJTmF+iUNaJmLxpAlRFqqQyUqlasTQTHqG+++47ef3112Xv3r2yfPlykR9//DE6duzYaElJSXTGjBlR11icME0oUhnxKBKJuooCE+XtXeqxegF5lRVe/dpGrG6u1ra/HtK490PzI1XREydOREtLS4ni0QULFkTDLkP9hl6iB/Pz8+O9RBoUCjs9OdJ7tBaQEt/1977m53n1W73xdF+aEc+JcDn8p3kNGzbUNCe8hF0vqBoRhqjkOiAe4smzfNLtGpS0fJW7OvPRerhWRrRxNalYOxDP+k4snfK8W+P9WPtAy0Y9XyOPwAP++usvb5yygoZwyPUU5OsxA2WDkoLOjGlKH909eXENxNoCCAC0TfcHwxBIxgOgHOUJPvpMnXZj0ETMwhH3+hwTLlvKy/fMz9pQUyctgZKlm1tcx5OPT0C56w3VwQr5C99JSCrUnY5aEyruYw44M+MLQYN0HB3KFWpNKL8Z4xvY/tZtW2X9+vVy8uRJ9Y9codaEIooxNUIjzAx2796to/9HH30ka9askbKysljJ7FGrmoIQbs+ePTp53rdvnxw5ckTWrl2rgh0/fjxW2oOF+HQRFyoXUQ7/sLHF70MG0g8cOKDa+fbbb+XixYtqhgizbt06nZS6KY+WVV+rCuZnibyHrQdzAZj+5Zdf1LROnToVd34YZMRHK4sWLZJvvvlGAwVpV65cUX86ffp0XLALFy5oXZnylTPzY2oD05jVnDlzlEEWngiEGV29clUDwvnz56V3795y77336iyA/ObNm+sCr2nTpnLs2DH1LzrE5onpIj92zQowBiMffvihrpwvXbokZ8+elYKCAhk0aJAyX1C3QB566CEl0nfu3Clvvvmmaox10IgRI6Rly5a6QCWQZBMNs9IUwmAmCLFw4ULZvHmz/PHHHyoE5rd48WJZtWqVRr169erpTJqVABNnnu+66y71KZ5JLywslBYtWsTTM0XGQiGQWw+pSU2ZMkU++OAD7WX8hACAIPv37xe3RlMNkk7v+5mlQwC+o2bqiHwEzgZhYlS6gRP/genyinKNZvjOY489Jg8++KA0atRIy+Anjz76qHTt2lWDAAKaEAZdciSkZQ0XW8JR9x/EQ1DgwJgM9MADD8gbb7whr732mjz33HNyzz33aI8//vjjMmHCBHn11Vd1Q6RTp07XTYUol2tUIVSFq5cxLp36bRhAuLvvvlu10qZNG2nVqpWaGMxjRuzykFZUVCSFjQrj6yYD7yMY5XMlYJXzqHC51pWGmnwwwSxaYUosp2EQ0+LezzALRAN+g+DUwdXCN2X9lD6cUDTjLZurV5npwJiCefypWbNmGr0Yb3799VdlFg3BIGUB/vjTTz/FwzcaJfplJkRN0EI45CKY40gFqopdMwEdg0CdO3dWBpnXbdiwgd0quVZ+TSoqK1QoIiZjGXM9wn/btm2lXbt20rBBw6yEMhsIuzrCYcdMiF4kJZuOchUwPj3yyCPSsWNHXTNt2bJFpz1skoI///xTp0ifffaZfP/99zpu9ejRQzp06CB1CupomUwA70Z5CFWvwNmz84c8ZyJ5zowyHcnNDJkdDB8+XMM7Pc/MAt/Cx9hsfH/u+7Jt2zbtAIaBvn376oBrdWQCvy5QkJPAVYTNE5kyrBTgOzBFmGdqNHLkSN3C7t69u6b98MMPOi9EUwjPhv7zo56X7t26S/16zp/wa8fQzSgRpLg1gSPvniLsRbnY7l6gRA6BBkpLS+Wpp57SWfenn36qPobfsb3N2NWquFWstAc3UMTuMgdjrptRuL+Qk1Upd6IRshs3bqwa5EsKyxHw9NNP6349+fS87eBquM9AJl6pybYzPwTJvZ5i+2/OP/0zdmYVTz75pE5ciZCZ+u+NoJpSpeNPOmJ5XYV9+ikTMDTANH7GZBYiYKAhtMezasrl34gSQfffmD/Xrr7me5mXcLYa5GVlBASAzNGN0WROHwRB3vKiX5xid+4/P2WLZD0O/BpJVSZdoLmYUVNhdaVxDcUoEzg2Y3fUcX0lyfwpV4JpzUQPf3XU7aeMoO9Wv2yTXQIGIJCQb2ZplAkIDtVvhnzhQVOrmcgWxiQaYfbApgozB64Ik8vIB+s1hPJuavaQCeqndGFCEe3uu+8+GTJkiAwbNkzXXrkys1RwQpmcflmzEwgQ8dAG4xFL+tGjR+vUycwP3CrhcmcDSQDTfsaZ1EK3Gj6hamorl0BjLAahRO2Y4IEp9t6NkNSnbhVgCsFuNap9KoeT2b8b4Qif7TMcH25HOGNw45TTEHYaqfDOIiAg+wnXkRs4b0QWBPyUrFy2VJ6Y5njjnEV5+TUVSne28vLy3ehexxWo1M16dURdBVcTs3icPR3CfxKfc/JHPQnEIRH2P1y2rrLDhYWNpKhlke747N79X/n54MGaPRGQbGlR28SqeueOnbJt+3Zp2qy5tG3XTkKXLl+MrlmzVmbMnCllx8ukT+8+Uty6WFVpCBJD6DE/ks3jkqWlDdeMvxa+ex343wH5z1df6axl6r+ncjIzEi07cUK+XP2lfP7553Lw54PxLS1gzDpF6zUVEoUCOREiBaxuttaKilrqrOVfY8dKzx49vOOmMHThwnnZs3e37HCqPFF2Ul8A5BnZ89+BxA6yZ6ZdHDdl54qvk0zPQi4TuELetjNBw0D67YRUHWq7ymxnEyjimnJmqEIgKcbmhyd0tYC1LWwqSzG+II9vD3FNpeqFOwnIAeJCBcHtIPjNeFWtBpboDkJslv7Pwj9SqLTML1lR0pjb3Qz2bm34Zdaagsk0+qVWEFhTDHD8/IDzRxySAnwJ5CsgG/+mgWTVMSjy/ZeDJD179tQBMrFc4vupnoMgsFDMiOfPn+/97MCBXSIGPKYozz77rM69MEOqM+3Z/ZkzZ2TlypWyadMmPQHD3p81m4pZv1BQEBM33LSkNc71oFuW8GGazUmEQFMIOdPN8PnGSxk+23C6hW+6nN1jScI6jV/+8BWRZ0A5vi5yoJEv+ZTh+A/l6ASAdaBdLIT8oAh8qsl6ihMtfNNFO3xMe+WVV/RnSpx64VsUQvJtF5PjuBsf2ThSwDazfbPi91lffPGFCsTijs3OgQMHqsAcqeND+JgxY/R5wYIF2gEvvviith3EDNMKFPQcDdGjnEeiR9EQPsIyeu7cufLee+/pUp40TpZhsnZQkbMWzKr5aj979mxlkK+NfK3/5JNP1O/Q8LJly7QdOglzRVPUaaZ4MwTWFJXBOA3DPD3K8TfMcdy4caoFhHj44Yf1ey5+8/bbbyuT/ILODn/ALAexOFlGkMH00DjnBTkSxAfujz/+WOvl8AiHtVj8UV9QpH2ojh5HC5gNDRPNJk6cqP4Gw7t27ZKXXnpJO4CetjWOLQ+458zs1KlTtYMohyY43MhJGQ6KUJbDwpRFk3369NE8NBvE/AILRWWYDwerRo0aJd26dZNZs2bJ1q1bNSBwsAptcTaCfH5YBtOAXkZo8nH4yZMn6+r6rbfe0tOY/KCLdOqnHnwK36TzBgwYoIKh5SACgcA+RaWEdRom+nEk7plnntHnSZMmqa8QFL7++msNAjj4O++8o8zhU5SDYIy6MDdMk58Ock4J7UAc68GEycMShg4dqu0FFQjkOYYmxe6Twl8ZGsE3MBV+2IhJYI6EXTREmCfqMUDjK/Q6y2yiG8GFujg4wm8eCTT4Eoe0+G5VUlKip2QwP+rg+A8+xnlByvBuUMECD74Ug1GYg1kYoXEEwswwR8YtxhnK4V+YFqZER+DwhGY0TB6a4OSz/aiT71gcHMEPiX5EvcGDB8u7774bFyjnQgGKQtaAPQNr0PKTIVUeZkc6Qq9evVpDPCb38ssvayDiPRsngyCtcSoRMOJnMvHZkFgmFYh2WABHVRkW8K1Udd4IaWmqNmDaTKXVm0Pk/w8m465EB/VNAAAAAElFTkSuQmCC;" parent="S9Cv3rVsNq0ONA8z7l8G-35" vertex="1">
          <mxGeometry x="110" y="270" width="56.5" height="82.08" as="geometry" />
        </mxCell>
        <mxCell id="3Y24ioC7CP_jq3oPdULe-35" value="" style="shape=image;imageAspect=0;aspect=fixed;verticalLabelPosition=bottom;verticalAlign=top;image=data:image/png,iVBORw0KGgoAAAANSUhEUgAAAHQAAAB4CAYAAAAjWNZcAAAAAXNSR0IArs4c6QAAAARnQU1BAACxjwv8YQUAAAAJcEhZcwAADsMAAA7DAcdvqGQAAC3bSURBVHhe7d13sGRF1QDwuwl2YVmSEhQQkCBBESQZUUEUQQUjZhcVpYyopX9YZX1qWVb5h1qimEVZQVERUcSIOaAoYAKRoCwKAoKSd9nwvv6dN2fovd+8mTfvzVuW/TxLc+fe2+H0yX26Z96ssQJNgdtuu63ZZJNNfLzvgpnMappVK1c1q1avambPnt3MnTu3Wb16dWOaK1asGK82PuV4r8yZM6eZNas0rECdVatWNWOrS93yas7sOc3sObM7b8eh3WZdgPWGock0ZeXKlVHuvvvuKLfffnuzfPnyeHfHHXc0t9xyS9wvWrSo2WijjZqFCxc2CxYsaObPnx/MnTd3XjN33txm3rx5zexZhYkdvrUZ/1+GThI6KPUkmHeeuyq0KBl35513Nv/617+af/zjH82NN97Y/O1vf4vrtdde29x8881RH+MV9TF24403DsZi6v3ud79mm222aXbYYYe4PvCBD4x3W2yxRTN/w/nNgo0WrKHRgxiaOCa06w9qPxVYJxmK2NBiLhEwJ07raBgm3nXnXc1tt98WDLv66qubv//9783vf//7mMe///3v0EoM1kcWWpiAqfoB+k+N9sy9+ltvvXWMv/POOzd77bVXs9tuuzWbb755s9VWW4UA0OgNNtgg6gJ9apv4htVgsjswa/b483zfhomeDwPrrMnlB1euWhl+D7GZyOuuuy607pJLLmmWLl3aLL16aXPTzTcF4xBevQ033DC0jindcsst4x7hPdt99907vY8TT7n11ltDAFxprCttJhBZBxgfw7fbbrtg8Pbbb9885CEPaR70oAeFNhvDmMlgZNW2Fpw039lnXhPa91OBdY6hmIJBCAgnDPzTn/7U/PWvf21+97vfxXPERiTEYw4xTTvEfsADHtDstNNOQeRtt9222XTTTYOxmyzcpMRM92gLAahBf5h5/fXXh8l2NTbNv+mmm2LMf/7znzEOIUM25hgjjfPgBz+42XfffYPZTDWmes8PY2pbe8F6wVDD1YgjJCbdddddYU75uz/84Q/BQCa0DmKYO4RhOhEL4xCTpiAkE4mAGBzBTfkMjLl6VSHq2OpyUx6U4b2vmaoOZsEtfaRnGMkaYC6cMNo9U08A4I/B8NOGFYAX4TrggAOCuZiuwFvfNdS0qD9PFWaUoSYLyRpRRMOUZcuWBRMR5s9//nNz2WWXhSlFNBqqDoYgAn/FnCHSXnvu1ey6266hefvss0+n13EIk1YgfVWC8TvTDJ/W9mV5zToJNd7eKfCGM8b+9re/DXwJIeZ6bs7pi+GIoTvuuGOz9957h+CxIMw/66LA2XJI3+3x2lC/nwhmjKG6Jd3pU0wwte2KK67olr/85S8R1NAW7zGOGTVp/om077nnnvFZ9Llgfok0OwTQZ0IRm3sYNCKG1kDAtIVn3T8cMJdVufTSS0OT+XpCaf78MwazGiwMDTafDLRSWOHgmtALl8SzH8yohmKQfkmuifGBClMq8Mj1XwYTAg1auMsuuzQPfehD43OaToRs+72E1MyEmWBol5ilSghSuQ3mVkTGdFaHr6W5GJwCiw60mIZrR2Bp6/777988/OEPD9fBZWRAZ076rudSjzURTIuhJhCDdgZyTzIhjpkXXXRRc9VVV8VVoGGM9F2uJBRDMTCXBTSRRCexoJeExvQa8l29NKijyITsB7jm+/Y160wEdb12G/c+86c+E0KMty5GA5p74YUXBh3+85//hOthrVgvtLAGDpdS6PCwhz0smM1kY3AuixLQWZs2vsadFkMxbcMNNiw9NYEoLSSRF1xwQZhTUgpIbS7SaSWfwp+ICu9///vHZDAQoiCJldca2pNwnwztpZk19CLAdGCY/r0TOGEsGqGNuOGGG24I2lECNCAQ1rksFMbut99+EbFjrsBKnwSeIoB6DJ+nxVDmgwRec801zSc/+ckIbkhl+jbSxR+SNj6DJu6xxx7B0GSeScydM7frF5VEskY2oYNuQH4Ohpaq7frt+7otMHb72TAwqP8azLcrsOVfmWloKJpdfPHFocVMtQDLMolW0mLLIcrw6Ec/unnkIx8ZZpl2grR2NR5TZqhmJOyMM85ofvCDH4SE6ThTZZtttllz0IEHNTvtvFNIGwkjfd4DAQOzBCkMNcGERLBNMFATrR8BQa/2NXg/qI9+0O6/X1/eJVN9xtR5G4wvq2gcemCqNbdoX9yRzDUOd/OoRz2qOfLII0Mp0DgZCxKXoRmqOg1kUt/97ndH6E79mU7LiF133TXMBMnadNGmXc2DMATkRLvaWDTL2tDk/Ae6iJVrm2Cgg25A/bkNdVuf23Xzff28V71+0MZvsvioZ13MRdAwgNEEPjUTc3/zm99EAHnllVd2kxsCxxe84AXNYYcdFkqiX22zn6EYqqoienvnO98ZpgIzRWnPetazmqc//emdmsNBB4U1CALRNsHaUNf3eTJtJoJsX/c5CKY61mQAkygO7aU03/zmN5tf/OIXgZ/M14tf/OLmiU98YiyF1Mu04pz/KaCDXCv1A4NYbrz//e8PyWEGHvvYxzZveMMbwsZPdYI1I9qfJwvZrmYISQd1nzWom/XVTSmfLAyD37CQeOVyztpVUMXPKtxdxia1Lx1qBhqcddZZISnMAxP7xje+sdlpx526xLs3ARHgZVlgsW+Bjwi9QF1CnPWYs16QhF3bgEGK+SjbbrNt84pXvKI56qijYqUgIP3xj38cvhZQNjAUQzX+8pe/HMwTwb7kxS8JCRFOt9eIMwmIrJhEfiZsrnD8xje+0ZxyyilhqjCtBm0U9TH7O9/5TvOxj30sTFrWzT4RkjlTV6nB+4zm68+jBAxlNdFWrCHQPPzwwyM4st7n8iwRjQ3XaBP/nwQgAomwZjLA0572tOaQxx8Sk+HcXacLSbheBKwhiUewkjkJJnr22Wc3S5Ysab7//e+H4KX1UNfEs5091V//+tdhdc4999xwJ0D/3mdOOecWc+2MpR8Coa7SFpxRAsZmtkxG6XGPe1wET0zvj370o4h/UqGG0lALYqrOEWPovQUmg7CkNz/3g5ohCKMNRpH6WhCzLz7JcxF5Ea3xvdkiBKkFwHv1PcdQ/dZ9zQTAjTXkUyX73csBiILNBwxkaCLpqiH7LRqWKJ9paBOIFphAnSOVnWrX68VghLeus87TXkIEaKs+bcsdH/OU3Zq/YPyM0d0rxteJ2hvXki3z07lnKmu2NoCWWiIKksyJ/4eL52BglIvzKjM//JKAQ9rumc985v8hXC9CTgcQO00ecygYk8hgUn/2s581f/zjHwOfhRsvbBZtuijqSXD88Ic/jEny73yOiSP6Jz7xifCvv/rVr8IUy52qy43A3cbBT3/604jgEY0m0EoMlI8WP/C5v/zlLyN1d/nllwc+crTSlzJgMw3owSIQMDTAG8tGDPZ5sIaWxb9i0qTaxOUaEWmmITUHM7/4xS8273rXu5qvf/3rQUgE/va3v9189rOfbU768EmhXYifps+k03SSYu3POeec0E4+Jy0MAhmHQGMS7eRXzdfYhOYjH/lI8973vjcEybgW/PA4/fTTQ6NtndHemQZzgavTF3wpa8l3slqTMrk6wHXMw0wEc4+h0nUzDZDnp37yk580n/nMZ+KZpRKte9KTnhS7M5hGYxCXCTRBeGJQmiSMxAC4sy4nnnhibAzINiZDWafHPOYx0e+Tn/zkyJ9KnH/uc58LBvNdkuXqHHTQQd2tvUx11nuZMw7FEDpqysqYq7gGr0B/hhbNlKZzWMvkSL3Jkw7PZxogKeXFrEGcID372c9u3vKWtzRvfvObm5e+9KWxuIbXz3/+89AWTMI40svsfv7znw9mq4NJixcvjiR3zgW4SqNZ573uda+LguGWBfolJAThrW99a8NDvf3tb4/0GzPLFcERfjMN8MwiDyyWIbgZjYP+DC3/UoIhDUgl/wIQPCUDtO+nC4jODArP4SAbdfQzjg7iYy5NOuboY2JMOxcCFsKHoTSHGeQzaarJv+hFL2oOf9Lh44Ja6mT+WHsaaptKvzSOuWWeBTusxBFHHNEcfPDB8Y5gHHrooaGp6KOgy9pwQwlcizkZE0NpKejLUCG7BiQ0s/46smxZG4DQuVmO4BF0FCYgHoDPbrvvFubQpARI3qUQ5lXRHiNoEkHVN4FJE43B6pN442Gosc2fJtJQbdRV9MfsqsvcIuiKu1dEHzMN5gNvwmU8wpxr6L4M9f0QjYEGJoehCmIkmKgyajA2bURcQGN89hwOrp7BRT0+BaFlVEw0T0N4xvyeeuqpzWV/uSyYp8DZ/qKrFKAljbr6ZrK5Fn1goN0PkG0xUDCivvHd56bzTNCiDQSXIMMFfkmj/gwtiDI3TJQJIxJpNOHsACBsMn6UAGlLB1tyxhP8yP5YfzLDfJyUnajVDoSghdCpS2NJ8AknnBA+073gxtLFMgPRMUPfGIHhAicbzjRTHwIw1ojm2/O1nEEHSyB9KcCalf++/IrLQ2PRQv8zwdikNdrA22dWJU1u33VoaiQJyChSuG+TNfO3vRjZ69lUQD/GRyRMFGnTIpErwmOAJQR/iWm28OD61a9+NVyEPdnjjz8+TDXcaZnlCL/MhNJOY0gOxEn8UmidsRBIYGQ55N6Ylifqnn/++c23vvWteEbo4UioLHlYBzTyPF3DTAABhQ8hY53494i8ByUWUqWt4xCFxjzjGc8IZtJegCh1GRWwCIgikoVbrjUx1foQPp4LluwPOmCG+fKy/Ir7pzzlKTFhSxzMoG0YgXEOZDlWybSK4mkmzWcJaOjRRx8d7wgS+miDiAQjfSt6aJtCp76TfGAmGJpazyqggXWx+RnTkdeBDMUgyMuSkHqBhYgvGTpKBtYAceMC0RymikL5NmaficUQ1uLYY48NrYAPyUVwc5E9OfDAA+M5zdl+u0L8G28IX5uaRQtpKoanCVP0LQnO5BIMVsB7BQ0QUD7bulVfcNKPyJeQYOaoaVObcBZE/GBHCU2c0hcv9D2xQENoKOl73vOeFykwBPrQhz4UE8DUmQAoRSm+O76+UCClnQ+jSVJflhiIi/FK4kNTvDcfQoDgGCHJvvSapTFXDDY3gpKE1wctpt00zTsWIQnJIigEJE8r6tuzXItqw3ePEnL8GlgaruWkk04KXF7/+teHgPUNigCmQjonTaqVtQkmBA84YBBtclCKz/AOgeGIIT7L4dJO79PXq7fBhhuEFMt9Mk80D5gP5mK6fvkjGm9Mz/SRGkj79EEg9KkdBubRVBrdiwFThYn6Mi680YQgsbDxPP4/AaiMSIiVkGYHGKwuowLjpgABX4cvT9YYBw7q0FyTo40IDzzH2BQ819qfrdF353n9HqjDbOcYwBUursZMfNQhNFmvxnOmIPFyrccbqKEqpnYo4w87lxbi7ftpQxkOI2cSMGbU0KXTDEOvcQZqaDLIZ5PHXH6t+92LqtP2/XRh1P2tb9BLeQaKZxI1i04wdSYku4b2uCAmMIQBSMuSn6cKxl1jbNch8JgJSD641jQamqHdTlrfIxk1iHD57ohyO0N1CduB+nMb4Mn/J+F9ngpTu2P6rzNe91kH2vdrA4yXEThfKmYAAxmapjWvibzPMwnGwICMXpMZZfQuDnHfufYCViSCurJcmYpF6Y7jvz7j3BuAHpIf8BL0ZQ5hMEMLIYJ5/qsYCtzXZZSQ+60W0NaeVy8dPz/k3mTaBG7fw8da9Pobrm9u/NeNMfmMQoeCyTJzElVGCQTdnFxF2LkG78tQhGNaM/w3MZkYUp/qXpfpgj6BNZW0lsS7DJU8smKj25keqT+MrQWpxgN+jqlIV2pnk/sLX/hCnEmSVAhT3tH4foBg8Djra2c1F//u4u54UQpd4lr+GdPOlH5B4lDjpIwa0nLhT1qggcn5XHNJhNMUkiCXy2an3U5I4k4FTDglTjrLWSHMlHzHHIlzh6LssLi3mJccMKa22mUfNrodaHMADO6YKOfpcJi1qoRC4p4MaoO+tDv3W+fGQWyJBGlCOdTf/2H8xzxkioCxFf2gl7boGcd0Ch/b/fcab1gwPjqZl2yZlKN59dXQ5DoEEnmagdEIA3EloX0/DBgDkZ0ER0CMJDwQJUBOCDjPo3/bX3Y2avAcUe3bnnfeecF8OV5HVRwZeeUrXxlCYMsL/or6vcx3AgGXVZL2tAHAgtitsQVnA4DweBaWrOCfliw/Jz3aZRRgXClQ/Rkrv6bZl6GkzaRBHjvB0OioRKGjBESxm3HaaacFw+RS7aC89rWvjbJ48eJgzstf/vLm+c9/fjC4DWl67G1KwNstocXShb5U5Xs4viGHUcZTzK9N5LzXhyS8s0uS9errW67YVc6XC9KHcQmJnC6mu44a0DxxYwGMb1yKYMcF9GUoMAlgd0NnkBaclK7j+ahAv7SKZjJvGEYzMAQDMEWO9rnPfW4wN/O4wJVWuJJU7RHUZrhzRYTQxOVpaTkCIIj3/GpORXsm1fbZed8/LzTQVpskODPO3PPhgAs488wzY28UqGeP1Fcw+GynFB0ztRmAhvCbDgTtV93z1Q/04hJyyUL4wECGJtEQNJFi1hDIfY1o+34YIOW2vXIXxRda5WeN46yOnR77ofyn/Ue7Ip7ZdTAmPBXMp42Yh6gf/ehHI7hyiJogGgcBaJYjml/72te6a2rtje/Zks8vCeYaA4OYeGPRTgAHPhk+LJbDaH6WQH2Awaedflq0JVSpGCBxzdIPkqZJV/1oQ9gw1FxyAwGsGdX0gPgiaQGOV2Od2QQehMiwoD+OHuJ8nY1j4N6PNH7qU58KE0PbMhHPxz7hCU+IPUn14AccHXEUk5+zo4+ZJJiQ2P6zEzPsEsZ4B+x/QCTnT/7oybHj8sIXvjBwselNG/30APOMVjbFjU+YnJxgWZIpU4GcX/wiWmEqgUQvbkZ8kwwdqKE6Qmw2WmOdYWj61lECqcvCJBqX8zeWMZk9hKKdvgnnaws0B05wA/wMibXh++pXvzoOVTu1wCfTIlpJy4wxCMw95++62eabNbs/ZPf4zLQLmBATQ+FHEGms6JoQZcSbgdh0IfFBDwxNDRXf5PwnxVCFKUOoZOgoEKzBGBBjYpkoBIG45/z3cccdF0HRa17zmubxj398EIqGMs9wwnjP/IMbhml3yOMOiTbailQRV7hP0/WfwZ02xkqIYKMsOzzTr7o5DjogYKFMEFYQ5N45Jz5W4Z+tYbkqe6TM9yhAKtTcBGVwRoMMiMBghnb8C9NCGk0OQyHo86gAQZhPO/6Q5cf4TESEtN8ToGk2kjPIYUad2gOJC3/G1Dnx7jeUgsXlHTPoYLZ2AhoCijDeKcbJKz+q3py542bZM8UzVwy14a0+3BSBGPwcVLNccrI+Azin/Y2XkGMmtO8ngqyD9oQIoEEuWcCkNdQE7OIzI4IDAcYogenYb9/9QvuMIeIVZPiCkO+20Kz8ghBTi0AiVqcXEJRAYDS/IiqVmLjyqiu7ptuVqfU53YcrjRPgYJbPefIPDu4VjE/me04rzX/FyhVdoTI2jbHMgZcr4cwx0W+6gA/whEt+1wgzt95q606NAZmihGQq/8CMkBAawy95nlB/HhZMWljOTCIOK+AQlDSfwMZyxtlY/goj/HSOdapjIYBJNFGEo2GYrg8a6xwtARGgmKNghhlkCS74zQURbBEEc9OOr2aRBFv8NfPpmCjhMXfrZOdw9QXvZJykCBxk1LgMppevx3BBVBva9BpEv3yvf8kTx1H1/dSnPjVoQn8nxdAEam6NhkgiOsUgaY6mC5gisBCF8qeIxbwhEo0gjd759tkxxxwT0WOOqy6to625diUQlhGI7zOzi0msgHqIIKgiqArNZDq1p3nqwYkGOwHIH2pnzhioGIdv5gos5wif8YxLm0XV+iFogxjYvu8FaE1ACSdBtDxDjw1KlCuqmfTvFKlm3fWmN70pOpJxec973hMEZWpyyTAq0CcmMG/Gc0U8hJOzHGTCCCjiWg8SCAxyiIsFSJ/DZGEo4hOYPASGsJhIYBFQsEPDMFNhAWgx10MAZJHQgcbD2RUtCZy4Y/PNNu8m82sYhqHoDxd0YW3oIWHDBz8rtEERfMfEhvrhKZIh9WbyJv7hD3+4WbTJogg8RHwZQI0CoIURCFVrv0mbmPeIOxFke+uzJIS2tCb7UPTtirn5Xlv1abzinfWneXqPkNqp77NniROI+uVZ7CH3YGRC+/lE9UDiSLD9yMfHP/7xECb8YK3mFDylLoayk6SNdpB+Eswx5+QMOGpAoCz6N5aS7/qB93wxn5dCoQ+M0ocrSCayMOoA9wTBOwVTMRMkLmigH+08CwaW9vk57ueMj5v9TAf0C2fzufpvVwdz0woYa1ZZfs0tKA7FUN8aloXRKTMoVZdaOUrtBAjAfzKzCJoEc3U/yN9rrw7i1wT33L3PmJHE1qd7Wp/MVWrQDuirhtLD+LXTlz5yrImg37tekDgGQ5deHQLFfViH66mY2qLGQzLUhDhhhCb98Y3pDrQnP2pIRraJOREgAC2DK7wVjNI+z9bm84S6b+1zTj5HO22KJrjHtKzfFery3Bj5uV8ZFuBiPIGX6N1n0bVYYnXMQZ9FUKP2EGCpoiCEgEK4f1+BLvMmSc9ehJ8KM0YF/CeriOZWAztsv0NXYIvDDvWcFkN1LpgCadrqMiqYan+1RoyMETPAz8nODyNF12huHW0Do+t6Cl5j4zwdDpg9a0ERpI4zOd5rwzsRnQjZDFAAJ++zRILsEB/tvZL99+rLvTpThVEwGn7oASaaK+glXHX9nF+vPjxDE0uolStXlHX6/Zqddt6xmGKuQX+l3bAmV9TGdj/iEY8IX2EdZk0EBgVFvZAEnmMmosh82CD2u0C2ozh+UBMhr5ivHWbqIwWjH2Q/dZks1PXbbdv38FEw2RzMLSHfRaEEE/Df+xr0I7Fz7bX/KGvqjZoH7bhD0dDtyriFL4X2kvZ3rlg2JEOLY6bi+Q0sGirdZV2KoDWyk4EMUoDozfaWHyN02sApPdqPYRExFqRrotVQE6wNbWJPF3r1lXPGwMQlaeA+hS0/m5MrJtS06kc3tJaaXL787marrbdq9txjzxKYMbfw0a6Mv7rQSuXJggFJigWtdBfmSmYzk22i9kOuhhQEuUm5T+k5Px9qC82xTXlLwUASJYEgEAgTtbPCWvSDUTIVvuaLFj7DAQ1YGFYj4e5CfDtG0qXyv2hVu5JeMBHdjGFVYczMaI0zswNlfrPnluVS53bSYCIGxVALWxNgdhF3ImQmAkxS7E/KfkhW2OLye0IYi8lf+cpXgqkgJds4iskZ2yk8TG1H3OrUgubeciu1tl28zzGyfkJqV/anPoCDPLDdHdt20oL5/NI/XxouxDwk+AkoyyPhj15l1KgLajzWgILCsruWRQAqRTl//oaxXEGfeFmK/8N41px5wzOUVkKGybWdhgC2tiTso+chQFsJccc2OXu7GYqQ3PFNWugUIIIgZD1ZxDbmd7/73SA0gpF+AoaxiMzn0ApXGuxd1tFGpkvBZO+t8fSpPoYsX7Y8+sktMFAT3VrUb+46PGYcLkIUCphf60VtaZPTDQ620eIzv3JmjAt6MrEDxmSWb7n1ltBwuC9atGkxt3s0Cxe2vm1fil6GYqiB+TORLu30m60IjSk0pA2JbC+kIQvBU089NaRPCsseIuGw5YTIdhGE53YWbGuB9LmpGUyzzWR5ZuZNv5Ljft8vT907KIbY+v7e974X7fXPX5/zjXPCpBuT8Di5Z6sOY8/++tndc0G27sw1kw3O9sQcCrEddnZeiSBqS1AJPTpZJ/q5HQfXbH7b7bnwogvDHwZdOrFBmz5A/4TPfPIEx5ZbblGEY9+CR5UEKUU6w9ewh9ZQYFKkU7QrU2EgxBkEaa4AhiC4HRHnfuxt0tLzf3l+7JCIcuWOHR2xneWQGIYZCwii7P442pk/6eJIZS1szBIzpfhhCZpks1wfNAjx+TeE4wMJjflIp2Gws0G5Q2NzXT/wBjTnjtvviP1ZJtH2GuuCUYK6COQKk4wjY4VerJtcOPwoQb9AL8E8jUtg4bbrrrvFXO8xh9rParDXVsWUGApoiu2l3LglpU4IpLT1QpRUAwTlN2kPJA855JDoh7bdfse4D6K9TCdTRXsRip9NH2WiGEQTBAsY5sqU0Wob0p7Bk0/mdwgUhiRTQP5dbYDQNA0uNBmjaEiaYwKV89IGrny4jfnAveCG8HAlJOYJP1f1jesznHrRKJ/V76wgCCqLQcDl0hcsyK3DcWbWZcoMNWCeSIc8qSTREG77u4R6rWqiGEUbTz755Di0DFkaJ4o+6sijggi2iWg/KbfprW9Sb98R0xGHf9EfAaC1cLjqyqvC9zoO4qySdswsE5iEpc32RuEPjGvfNOsSDPVFlU7hw1ebJLjxr1l6TWgf60KY9JeHr41jDikwGJ4H1GjzIMgYg7mFk5hln4ft08yeRR9r+o6AoYAJcRTFhA0uMOn3FYD0f6ndr3rVq+KKmdagotw8UcCsONXO1GGU866ISuvc0yCm2C9r03DRMWGw9BGMnPGlM8JUMZ80WaRscxwT8uQfc4mxtF2fiIa5rAbhuuPOO4KhCAkfxz3UB+oz1/wvHET9hx16WOCiXz7bPAVYxsuIPf0tUz4ILFUIK6YSLl+W2vYB28ZPpqcQ3gPjDB7qCEobaAr/QkovufSSMA/SgggHUjITEIxka2eyNI5PAYgPcWeF5IqZV6aLJPsdWwzLw10YgCEYj5Bw4C89F1XSMr5ZXQRHVARxssA47uEGH7juvdfeMTbtEl3TdgGOeuozp3DGZO3MgbaxBluUIMUZJdYK3hsv3DiWJfKs+sBYbfWFQfqnBHBu0weT9O1KcIzt5D1Bt8tlI9s84G1upXK0W0NXS+NgtcH4kGGAEOiYBjipzt84Q/OOd7wjJpMamcCHSh9qVyOeh55EvMwXJjJbJNkBKP5QX6yA95YTV1x5RWgNJhgXHvpBOFpFg9T3Tht1WRKRMdOIAQiqID7fh1D8pyu8MAajMZj/IqwJmCQ6Ny5TnMJKqDwnrNyEz/pS0JcAed6mDVoo+tAXS+Io6wc+8IGYo+/5vOxlL4u5wHleudZhUfeKoaA43c6n4aAMPlaIN3b88cePFfM5duihh44Vs9d5uyao24XysTB4rBB8rPiUsRJ0jBXTO1YYOFa0bqxEvmPFT44VpkSdLIUw0W6NvkYMM9n3RGBMZdXKVVFKADZWLFPQ9Nhjjx0rFinmHvNXt/xbWcqq0lZJjKflQwHJY6qtGWke6efHaEgbSF8XykdBEkkl5XwjU+QQmnUl/8pnFeQ7DcZNuD4mE+5PB2ay74kgx5T3WbZ8WQRZompuhrnN1UTCuF0dr1/DtBmqP0Tn+ywxmG7+S9J+MmAiGMWsMZXyuMzLLg/epfD8niOiGJ8MXV/B3BSuwzqYn8ZQKwkCPxmYFkOLhncPQgkIRHv8hCjzS1/6UgRJgL9Rtx+YCE3nIyJgKP16htE50fUd0Mh6U3QvAWLO/HZ+2bimg/8XCkWpKTMthuo8tQczZEssQwQGsjC5HoNMMfLxeRBksBDId0xyTmJ9B+5LTlh+mhJYcqEpLe1FA0/qAqZvcjtgQCG1g7+iOPdOHjAftK5OKvwXegPtlH7kP1k6X4m0akC/FPRBMDKGAuaRD/R1ehIGMQHSVHxfmuhBpnoYGGVfowZLLGvW1E7raj/ujLHwnizuI2UoxjETolRpNKbXrofsCHMCErm69IIUgMkIgj70X/flM8JILFiLtuu4ImKWfNcu/cD7bDsscENSgHD0WfLATo+1r6jfxkd+LWMQHjWMlKEmZ3CJAQkBny2sMbVexnjeq0wE+c4V8RBAkiI/g16MJ2CsBkA4OMgLS4Sor2Qf2T7HyvcJ5kaDBHu2s9TzLOtMJBQTgXYZH4hmrQxs0YlF0M/PwHNdmGsek4WRMRTyObmNFmwU5kKulRTyC/Kb1qkgGNIhYrbpBzSMfwHd+p2LYCuJqc8konoIlkGbAhc5Y/nRqFP+YXgyPYVDHykw2Z8r/FOjQPbtqhgz64N+c/MOs4xNO8Ub8uDiEMyU6x2WmWBaudwaIKgEAmVO/vYmZJlbmgFpTj53N5SccHvi9b16iCif6jQAppDcJMR1/7wucp5MlWjQO4DJdmSk+rTnCpjfTOrL3/oNwPy2mPxvBG+dsdWVVJeCy1Qlf4ZG1suIb17Z3nNJfaBue06gnnOC/u39SvMZ396u7T74EJZ+0GuMkTEU5EQgTrrkSx25kA+1n4gQfENKcxvaz9zDS6BgpwLTLIdko2SRfFPbGR37lbROkUPGVESygU4QnKaQ8LAnqk7mWf3sjf4ICjOM6Zimvh0gZvDii8b/oB3impMdJTlhGiX/bDPgkj9dEltc8sUSAKnxa0ARctYEbfwuIIFTWC4JePSxqyNfSztZh6kwdKQ+NCEnj7ikDaEwhi8l9QBTTU5JqO9dSa/0lwlLoKcpYjZpPmHBKFtWft+AWTaGNiR+9912b454yhGRNnO8RNQNtMEYaz5/dV4mhpbZcLfD44op3u1/wP6RuCeU6jjZwEpoi6C2+w448IBIpuTxk4mgzC4YlaBPggpfyRRxhx0d/Q5i5kQwIwxNyYGURAN/6rPNbN8pzaCC1EapQNssmM5kYpQslCWRbTSmjWSrY6eDmbKNRsIRXyCG2cvvXh6Mp8HGMy6C84GICDf5YwJhE5zpvvSSS8OcWtDr1zuZGn3UwNpId9oJyr8iYcz0eSmYXegoE+1EC0LlrBIBZy0IKoE1t5rpw8KMMDQB8RBdsgEzSLZI0W8FZVqwHyCOCdIWZhYR8lC35/wcS6AgIB/qitiWTK577rVnWAp7p5gPJ76Kj8IkVkB/tt3i29ZbjP8EDf+sLuYyh8moBON4L2DLZZF+4eLevHsBYUIHuW5mW117wvY6uSjt9AWHqcCMMpQkYoZFst8ZcqJAgMK/8X/xtz47Odu6gPIp2splSvr7gzPO37oy4TTDxEk332QshTbTKCcI+UbnjGgjv5eb4MZgKplPf1Togx/8YGyYS4gwefy8Dfb3ve99cd42NQ8zMM1njMhnij7NzTN4tEEdbQCrw6wTJkEiUysjlHPX3jhTgZEGRW0wOQWiwnHXPI7IfyCwDV/rMGPnhED6G0FGbgq7t0bDDM9MWnCEwT5rz1868UcbBTi0mlAwjzSQdnjPxLlHaJpNg5lOeDKfEiNAoEND1WV+WQYCYyz92JQgePAXdMGLGyFs9XyA+xuuvyEEk4aiDZOfPzGX9V2Tbv2g1/tpnVgYBgzDhzmOKSPCXCHI2972tiAE89hGUB2CxoyRfu0RFlGtE/lIbfTNhGIWQiAwMKfcgsr+mVnt1dOOKVdfv54xtdKVGM1NcBG01I9H8eMsAK2Kfsp6259O1g9cAcGDK5wTD6COvk8/7fTm1CWnxnuCZv6Ey/uEQYxM6FVvRjW0BoObLOmXsGfurOMsKxx+QqQ2pJQyQXAjcBgTz8s/h6WyXwShpepihh+s8Kex1Fe8z360SYK79949CwBErHnQi9m2fqadtNdYxtdm7rzCsMIH9/rRXxLZMyWBYHE1InZCwZIsXrw4LIdxs222nwz0qrvWGAoggBCcP9OLsRhKuvk811qqQTCvIlIXOnPBJF+xd/A56pZ/8bmzT6tttsv7fJaf9ZH3aMCMMp2WSqwIf82s1226xemJzgmKLPrLz4Dfdn5XMCjS50asNwkJAQHZdw3Zx0SlF6w1k5tAGgUHJuh3jozLXFqv+o28kPzCVCYVU/oB1AP9+G/8hzASJprw2gJ4masi4HL2mNazIn6R27FU9IZzL2aCqcyhP8VGDCaZ0nXwQQfHb+zwZ9aOFthMEv8TYf8Q+6fqrkvMBOZqLta2NFMmylz9SUiC6zM8+2nmVGCtMdQEmR5XGsi/WUiTVibImlLw4SyNSSLGfRnMk6DSTMxkeSyJnJdi0vnsWghHBWvdh+ZfaFL4mtyRcQrdMyk1wYdlhwkzWRk1tmEiKZ7o+UwC/29dySfC2Vrz05/+dBzD8UwmyknGnFdqZo1r+34qsFYZWkskxN3TTsEHMytlJxMk4W0diNm0GjNz+TIZmC5Rpgo5v2Smk/ViBAGf0/+WJzUN2jAKvNcqQ2tIhrpaJwrjSThiWONhqqBBtEnimWka3Q/0dW8x07jMLPzt4ji1Z/kky5VnjAcJ5Chwv1cZmhPAWGYJU61NBRKu1oDysIiR67QExGvDKAgyVWBy4SsL5BimaFZW64QTTgjfORmXMQr81xpDE1lXBUPqCfhs+YKpJNvGsQW4XCwf6vQ4omiXOdG6zxra9zMFcGE94Ctf7Od4BECY62t/J77pxDgXBO8y606rwfhOB/91QkOBzxjFzIoCgb1JZlgCgsbKoWbiASHTBI+SIMMARsJL4GNb0OY5ny+zxGfCN3G0TvZfDYnnKPFfq4mFzlBdaCOOSfAg0RLi0mS2mJKJRz71yOa4lx8XOyeImTBKgkwWzEUA59SCkxF2ZOAtP+sHiZnbDIBqfNbQ1M5ae5T432saCtqIIwCJRizmV4jPhzK/UmaIJmCS9912m6LFnebZj3Y+T4cgNRCaifqCx5IlS+KnauAG7ALZJkxLkkIXS7XOvxqy7/YY08F/raf+JgMIAS0+1NWZHssAwZJlji0thHN6oWvSSj2l37JgGNCXvwwcCfgCcLJeBpL3mGlXhpsQpUuSSBrIU2NmtC8Wp81EEAyrHo+Sofeqhk4EJqRgFk1FJNpKE/LkggQEgtntF4SANM2jAOPze6FlReSZRzRybuiUz5wSyxL+3bLKL7g4ZkPQ1jCzLZ+Z0E5rthnYvh8G1kkNTeigFoCYNNRB58z5IqCtt+c85zmxKzIq7QTJSJpko+Cmm2+Kg2dOIN56y63xp6D9/pBdE4kDgtdemgT+vZg6gF/rNUNNDnFFj9aqsknWeU7xeaZYvPujsRLfk4XseyJwrMV+K8GhlRgp80OwWA6H0mimUxd8OivRk6FTgPWSoUmMZGiu91wl8i1p/Flmi3mmlh9zFogfE2kmpDnGhJpQdf8+61cdPtHfPLN1J/Dxd7wdG+XPjZvHSR18s0cKWAZ99LIQOU4/mA4D27DOM7QmSJuxdjMchRRpAhos/8sEOjJiPojsb6Dl3zGrQd/6wXREVdfVURfHKzGSmUcbmmlD2uk85j2PrNTQizE1/hPB/1uGgrzHCJqJ+L6A5AS9g2eIw59hrCjY+VpnljBN/SSeflIrfVYEOZIEvjRkqeQMEOFx0l5fAh8aqp+6r3UJ7nMMBQiJ0JjhyhSKep2GxwzRMI2SgMhTgI5J+myO2d4yhFZLYvDLgh4CImGQPpFAMLFSj8y651YD6yIzwTofFE0EbYJiEEYImmgZBklESM35mkHu6Mjg5NFLPtIBa37YgTCMxWCnCfhhGqk+rcTcFIRevnJdgfWGoQmCGgGM7TdrRRqLyaJVOyD2WZ0e0Hdqufree2cjWsF8goCR6txX4D7J0MmYO4ylsb6xlt9Mw1h+EgMxM49lSlyIkH1pyTFTPlOk62Q/Tf4vQ0cE02Gotn4eVeoOA80PM/lajAZMJ3Oq0E7zz2BH2u/W224NhiuTGXNdgHWaodMFWogRKRiiWpqbyxTADCtthmmjvue5nLkvwHrNUJDM7AcTMUtbJd+v+0xtmv8FupL5/SIBs1YAAAAASUVORK5CYII=;base64,iVBORw0KGgoAAAANSUhEUgAAAJ0AAABgCAYAAAAHKnARAAAAAXNSR0IArs4c6QAAAARnQU1BAACxjwv8YQUAAAAJcEhZcwAADsEAAA7BAbiRa+0AABzeSURBVHhe7d13kCVV9Qfwu5GclyhJBRXMCkbMOYsRMCCWCUpF/1AQq/RXyqqlAmWVqQQFjGAARXbNu6gkFVQMYE6oKCCgrJJmZn/9OfPO256382bexH09M9/dO92v+6Zz7veeG/r27UXrK5QFLGAWsbh1XMACZg3z3tL1u/iLFi1qnc0d9AnpRsvCzCi7yXVsrhCwD0gn+W6k613JN954Y7nttttav3pHU0i4yy67lCVLlrR+NRubmHSdhKuTrHfCDQwMlHPOOaf87ne/K0NDQ2Xx4sVdrQJx6yL3K+nkK+XYbLPNyite8Yqy3Xbbte42G5uYdEOtI0x+TPPvf/+7vPOd7yzf+MY3yi233FKWL18eBdYNnSL3I/EGBweDcKwbK/fZz3627L777q27zUafWLqpDaKR7pRTTinf/e53g3R77rln2WKLLVp3R6IJhAOV5ve//31Zd/O6smLnFeXzn/98WbFiRetuQ9FSdR/06Vi7qZPuPe9+T1mzdk3ZaaedypFHHln23nvv1t2RCHFrEleNbV8ST6U57dTTyoUXXRiynH766WHxGgeq7VDvpifd+op0i6ZOuve+971l9erVZd999y0nnnhiOeCAA1p3O9CSFtni2KeWbsniJeUtJ7ylnHfeeeUud7lLOemkk8rd73731t0+B5WOodaplfY0YH2vA4YUpOWQpZsLPxX0iTZyi1uu9Vsz1o/OgMgAySDCqNx5yNavaJVLNFzjZHOTk07BL2B8IBwi9i0UI4dRlVtfnXdzm5x0C+gdSNfX1q4GtoRbIF2TUBVOZyvgd99bvA4gWLa66eYt6bJP18+uM5/138hXd/2MkVWnoaRjoknSjIZmZrGoUgLXz8pAsk7XALS0Ovw/HDMdfYTqOB8xgmwNUELYicoiOzaCdEOVUtfHn2H9BuEq1zJ4M4JuzZZr+lQeU3Gd/asM1y38tCKVMTILfYkoK12D6tgI0lXFVxWgkzgrg6HtuDGtQKKBgYE4TzLV+1C33npruf7668uf//zn8sc//rH8/e9/LzfffHM7DH+QpGwTb5rzOcLCpZup2jcDaIalq1kT+p0JIEydLJ4ImJS95ppryq9+9atywQUXlK9+9avl7LPPLp/85CfLpz/96fKFL3yhrFq1qnznO98pV1xxRfnTn/5U1q1bF/GZ4FWvWeghT11mCsjWsBVPffDsdXzcNnB7Wbp+cVmyaEkZrBQ8WCk6OqRVzum88zHYyhNXlgMOPKBtecZDEs7xv//9b7nuuuuCbP/85z/LH/7wh/KXv/wljtJx36ICatt8883LVlttVbbccsuy1157lTvd6U5lv/32K3vssUfZZ599yo477li23XbbILCnICBcL/ni77jjjgtCe9BvQYPHYFadhKULT8OuUk07/iagEaQbqjS7aLBy1chhqCLdUKVfKkY6mCzp3E/xEcx6PO43v/lNWLebbropCMbiIRaScZZOCXfHHXfEPUd+EWLrrbeOh/X3ve9940H9/vvvX+5973vHw/q02EuXLo3jWBiLdPUCQ8D1FeEa0WS10AjSySDSxUml3SRdYiKkq18juuYUsc4999x4uK6fJr5ly5aVHXbYIdzOO+8cViyPVrIg3n/+85/wzzL+9re/LTfccEOsYHYdGRF0m222KU972tPKoYceGpbPs9SwVuNUiLFIR369SOpYVv1ZXMU1dmz9hUaQLrQrm44t7cZcXQuTsXTuZR/uqquuKitXrozBwfbbbx/k0FweeOCBsXCSs0aPtUMaoDbhDSJuv/32sJScpvivf/1rrIW7+uqrg5RIeuyxx5ZHP/rR0dwKMx7xxiKd7sWt/FRu88otaxTlhrtGzUFNt+15qkkiSaOpQ5Z//etf8VtTePTRR5c3vOEN5bDDDitPetKTyr3uda8gombTAEHYHHAgISLd7W53K4ccckh54QtfWI455pgInyRj+ZAREG08KzceiD1YudaYOf42CbNDuimQI8Gy1a3bdACBwLRHWq373//+5QEPeEA0o9F/qojVaZX81vwibN1i8us3i2g93+Mf//jo47HEml5+uBjZjkM89+sur8WxcnqFyys3XQU4PBHVi9PD5jp+G6HXXXWtG2aHdGPrd1KYDhJm4edgAJH01bJwx3rXgp86eRAuHWIB8iVxETrv5X1hu7k66tccqypQNavDbrpmS4ZjZzs7nbwiEMtRudZh+I/rtfuVfOEitu7Umh3STSOmy9p1FuxUgVTiZP0WWwkdBbMB9fSQbyoQE7IF4aYWVQ9o5btdy1uu2znZx9FtM0jXIUPIOEVMteBZxrRcnlD85Cc/iZGrpjb1z8qxhixoNtFImc3ytGCaohmJlgDtyDuPUJ13EHE9mXqQq3GWbjQowPa/EHz42lhADg5xDAYMEjzmMhJ1LUkFjkmwvJb3Ec6TiY9//OPxNtr//ve/YeJVMBUjDJKZOkHAdP0JOuPkL1312+xz+14if2+43mtF6lfpN0IQq4vL+2TvvNbNIczQ4DA5zMV5kVnfjrUaaPW/kmD8/frXv44RLrK5jzhXXnll+dznPhePxy6++OKYcnE/SWW6xBMMVs60CfL1L+iMq/KeFixcB+HyeqB1PX7ntfHRGNJNNxAPOSoKxtMCE7ks3t/+9reweHVyXnb5ZeXUU08Ni+ZpBXIimGewX/va1+JpxD3ucY9y8MEHtwcPLBzSsXzSMeXielrBvkWbUD2i5b9SVc+Y36Rbsrjqh68fQToTu5rFNipj973vfa98//vfj4f8LJtzb9z/4Ac/CHJ53nrE4UfENIn+myaaQzoEdc0EL0s30LKizUEtr3VCOp8E4WDeki5hFYj+lnk5/TpEsVqERUIQrYYJY5O/CLRmzZrykY98pHzzm98Mcnq4/+IXvzjm5DzNQGZNrHg8lUBKTzNYurCeE2iGZh/1vDlPNwZ68NKJeUe6el8tjpXCzMfd5z73CfJZmvTjH/84JozT74Me9KDyohe9KCyaphcpEc5L0J5APOYxjylbb7N1e4Qqvl/84hdhNeF+97tfPJlAuCVLx378telQ5aluyYJJ6VrIx0A1NxlR5nXzWodHXZpZxPn5z38elkpfjNNPe9zjHhc7J3n+aTmT1SNHHHFEPMz31IG/HA0jJuIiML+ecjhafsRf/2IUos0A5n3zmrBQQJ+MlbKsSX/NM1MkyuVMT3ziE8trXvOa8pznPCcI6NkqQuoLIlMS2ZzdD3/4wyDdXe9613LPe94z/NWJHla2r1An3IZ8tlHrwyUma7HnHek6FZW/keqRj3xkrCgxzXHRRRdFn0z/DLKpRbRXvepV5QlPeMJwk1mLj5W89tprY0RruRPrFk1vyxJOtpBmCz3lr4N4k8G8tHTdiGfAcNBBBwVZEO5b3/pWzM0ZDNSBbKPNuSHo2rVryy9/+cv4bSHnQx7ykLBynehXAg4PdIYHPCP+VZfbLn5PPv+NJN1MNUzIwYJpDhHISPXb3/52rBLppTm88MILw8oZhJgieepTnxqrh8Xb3325GlrEchzTTQGNJN0UZR4VSIVoRqTPfvazY5WwSd8vf/nL5ZJLLhk5dzcKDD7M43mXwkDCFIolUprtBYxE45vXsD8VC9MOOfbiVGdNRLqEQcOjHvWo8vSnPz0ejVl8aRdMVk9fD8zfISiianp/9rOflU996lOxAtmk8MMe9rDyzGc+M0bD4s7+YN3NZzSedOgSREK8Fvl6cRtotgGskr6aPhvSmCYxYez9hzPPPDOsnqmUXBSg2bWc3GTx5ZdfHkQ033f44YfH22DiW7B0G6PxpIPly6a/YHfdddeYh3vKU54Sk8aI51nrGWecEZbNb+/AfvSjH43pFUQ0CHnZy14WfUJkG82SzhSaZD3nBOmWLZv+1Rsmelkrc3ImgDWV//jHP8r5558fy5hyAYBXFo12H/7wh8fTCRPBW2y+xawQrY7ZTm8qmBOkW7pk6qSrW6V0rIfRJ+K9/OUvLw996EOjP2fi10jVMqg73/nO0RS/9KUvLQ984AOjT9gN9bjnMyZMuoExXrjYVLjDg/lpRj5H9bRht912ixGtpxAveclLYqCh7/aMZzwjJoo98Pd4LBdqjva2/XwnWh0TJt3SPjSOOvAzAURBIgTURzN5jHQehb361a8OEnpF0QLNznm4tGjpFrABjW9edZ/vGJgZ0tWRTyVYMy9hH3zQwWEBF0g1cTSedLMBfTvWLh99+e1f/G/dy+sLGB99R7qhPuwzsmSaz+ivVedBrup/XocgYs0toDs2CelGPj7fAO+KD2P8QuMj3QKahUmRbqoFzZbdXsUyuH6o3DE0WIYqy+CaeKseEi9t1Mk1mltA8zDrpBNWD2hpdaIZio549U9GbJcwTLr+6pjnQCHy2uHq6Py9gNExYdIhzVRUK6zNDBevX1SWVjSzw6bl9t2YzH83t0nRkYkFwvWOsUmXZKi5fCcjfk8GGS4Lre4SGf84aYwIXvmNfM1hzJVByuikI1d2ssZzvYLf2sC0vSqk5droMe4gWsvxm1HUo5pLCML5rMEcwMY7cY5V4Fmi9fu9NtBJuBZTOpOIqLul2wVVMcTRCzR2qly9anXZbY/dY0NCizFHQ1vcCVqMiVqYqTa3Hr/5RLwlU554vO9974s30KyoadKm1qNhJOmcddPtaHKm37GI1xmneMaKC+r3u+QnCQe5/asNbMybeQ7q5ebOR1NA3HT5ux9hVwCvMXrBx5OP97///VGRPI4bTa4mYQPpxtP9RIhSR2e83fxNEHWyIN3b3/72eIPL3iG5NVc3CJsuf/cb5N+jN6uVvcb4wQ9+MPZBztcdm4xmbHQ9CurZRrrTTjst3lcdGBjeRHosCJvh+1X8fOSGdLarOOGEE+K9jfEqVBPQSNJ1EsaqXfvEsXJ1yzpav6qiWxxjPrD634/iy3fmXSVybksLa/WQccHSzTI6CYdDkxGhaZ1xTS2yJSGTlE1Es6tMC00ugF5RJxyoaA2zF200n3TKIN0cxlyqWI0fSLSzP1EpqjJsckE2Oe9zonkNKIMJuLlkOZqGxpMOeRYI1CzMHUu3gMagsX26TkxGjAULuWkwby3dAuE2HRaa1xkE65tuLmC65Jl10nms0/cf8OgR3ZQ/HQUzl9Hu0+XO4HEx5hRGNkFxz+3W9ck2Tx5gW57jwfVcQL0S5TPRfHowFprQvLf5UOU1z7thIvK0LZ1AlBUKWzySVJTqoTrXuf/uRNEEZU8E9GXVR35uMwnXJDkRqk4qFUlZJ2zb4dp0oevo1eW0fumlU6G9KtYya2QdWj8UYcQ3F1ZLpI60DKEL/6tjWD4qq6mnU1e96m42kOWbyDJPCz7aUqqpyNMmne/YW5eWyK89Z4ZEah82GzjbFhVp3OslMf7sYmkDaFvc+7RRErgpSD0k5J01sPu6vYnpz4bW9rHzVUW6ShnrK0QS/SS7/JHFfsnOrVAmr733/Lasyu6kdXTmfyLytElnG9Ozzjorlkfrc7nMpCIX8tm82Rp9OxXZvch9CXFZs33gLRMnhBrCny8Hvutd74r1bm9961tjq3txuq9vl2Gk0blIMSxJdT8/7DZarXNPocorv9LMggbX/PblQoq0ApfLrb1SFptZS086rmdarne+m8C6iev8VefHFv5kVBkRztd3bKRoU0XkI6s4s4nKc/rwjYlOmeRBnvI6v5kv+bRY1V7I8m9PPOWV4FdTf9vtt8X6O/4hm8uMIyEd98hgSTyjYsGofCura665przuda+LfZTlRxllvMKJjzGxTa7zhHjlubOyQbt9oyxr8dVU7xeIyLetBKI8bLdBoMgllmRIBwqWgjnh0vkgiC22fF+LleM/FSpzSCOsTPMvfr9BOgo940q/dSCb+DIf9XyRg6LEY7Pqj33sY7Ht/rqb14VfhSQPIP14B6EqNGHd4yJfvphY+dNV4Ow9fMaZZ5RVq1YFmZHYyl4Wz26dn/nMZ+JcmMyXfNYrhsJLotfhPlkTeU4OurniiivinZBzzz13xK7vvkvLr8ohz/xKRzhIHSkfciX41crZIT6tHb/OkdHmj5C6yG/iKgsgR5anuDM98Ui/nhYs+b8KTphP3yx98IMfHFuY+vILq2dbUzuNO/qM0Q033BBCS0jN9ikiu4pfffXVkbAmxgjVp4rsy6vGpFAyYC9ffoTxYTdKEuell14a8SoUtV8YQlGSuO1+SSneESA0ZXgLTFyIQliF72UW/jR7CjNHytLzMRJ5kuctt9oySCI8JWkifUROOlYhky9rr8LrhA8Lf+UrXwl/dul88pOfHBtjq5wsEXlUUp9/IiNyqMTyRk7flfWWlzTIDD5anEvur7/++viUgDwpvPxIMeuq8vzoRz+K35ayKwdyXHLpJWGZyGerWu+MsFx0IH1vltkfmZWkQ0aGbMqNzCqj+Gz2KF+2t+XP5wl8BRKUoQ8uX3DBBVF+ykAaygXkW958/IX8X//610NWO5a2K1/8rSBjPj8pAyJCFoUucYEVEOLom/nspO1OWUQR2s6eMmyT6vtZBD/99NPLdddeV447/riI2wbRBD/22GMjTgVGyYRhEZBUmogtbt9gUOCa/S996UtR6+TLDphIKT07YtrnlzCrV6+Or9W4rtD48UKLnc4R4Ytf/GIoXV5UKBaPn8c+9rGhIN9vRWTkU5is+3Of+9zog2YtdqR0ZLbZtcqCbPxoKcRNVwqcsrOiKRCEV6hk9lsa8nfooYdGhVZpfDoA6R/xiEdEwSIHWVTUN73pTbEvHl34oIryoHs2Q9eFsfjEJz4ROuJP5RPW5tuIZY/kn/70p0EiJAG7iz7/+c8fto6VDusO6ueA/Ih4zjnnRAUig7L0wZfXvva10dzT/8knnxytmzLFDWVW12PbhrvASUQmOMp1pEwEUKMQg7IVkKO+jEKjANbENecSZ01kChQ0MlIuICDLhAiadF+XYW0p3Ud9KQfRzjvvvFCgmmKbVYUqTZYsP2+ulrI8yCueY445Jppx+wIjLctLaASXP5XFPsGaRHGoEF5f9Oqid2af9axnRVw+RkK2um4cWR+yUrpWgXWQRlZS4b2zKi+ILQ7NrXAKyC6eiEFWm2YjOh2zHAhLfhaSxaFz8mqyySpOfWJyIK8Kyq+86CPyS1+u+dYZC4kkKjn/ujnPe97zgkBIymoip8oBeRwN8ksn5BTPK1/5yujn+/Cypl767il7lYulpQuVqE7eNumS7QnndQdZk5FE0ysRjE9l6+c4p0SQIRYg45AGOFd4BNfpVts0UWqr68imL6amI6ZazaJRln4h8lAUV8UcH/FlQY8//vhy2GGHxWfNWRHpER7BkcOoTOVh0W3Vj2TIg/jy6WNz/LE8rAsyC59NUOpBfJpklQSB3VMZE/Sjq8JayqPmVFzSYD0NMjjWAElUYIWtqeaffD4nkJtnS/eqK68K0hnE0RmSaR5tP7v3XnuHLsnLIaWKd9RRR0VTq/K5Tz5dJWS2abeK5R553E+djuaAlRWGfpSV7oRv4cq31k/a9MviiRMpDUIQL3UHG3qr44BSOAWnFqlpGM2pTZpFZFOr9cFkhPIUikwTSngZk4EUkuIUhjiYfX0TfkBTIfPicJ9FQRhkFlYhiCv7XZqwd7zjHdHkqJXiyf6hsPKU5xSj5uuDOCK5psDIzSgOGRVYWtM6kE0+ycMiZ8fZUeuQpExZNZUqI5IjpDywdCwtObIZlT9y8Lf7bruHXlQeacmffCAb68cApM6Wb7Y80kv9qjhaBrolHyusUqTlk39pqCxIL2355sRRP+Y5mZSvc5b4Qx/6UHnb294WXQLXyCAP4iSfvOsiqbzyOynSmRJBFFaFQ4iLL744Mk0A/SuK0FF1TUGq6Qo9hapDBllHhe8oo6BwKFgY8VGya5TpHCifoGCkhmCUoE9HuWqftCkK5Fv+b73l1ohbWEowCk3rggAsAcuiJr/+9a8vb37zm8MiyJswIUMVDyWSC+FYQhZf3sgsXuRHXP1feZV3YTMeLuWRvjz7LZ+OCtdEunOFF2GXD08XiR8xEQmMtKVPhs2Wbxa6qlcSaak80qZPR3Fw0hbWubyky/v5W7o+m0Cf4qYjfUVHLcbRRx8dfTqVgwzS227b7UIffksn5Q7ZW3nbCISSoSxghStxtYS1kYBmCXmQTo1UEDqrSKfQd9l5l7bC68TLa+LnIJswmaQY5yyS35ptTZRCZoHEn0QUjxEhC8vkH3nkkdHE6gaAdMVl3mpgcCDC1GViRSlYOpol/UbNATmFYxmSTAm1Vx9RhUGwtWvWRn9VlyOnS/RFDSSE0z1ALF0RlZWsOtnkkJdsolN28fotbKbt6BqopMKRbXBomKjukU9498VFRk04i4cwRpzC0Z2RsXi1UAglnDTcd51zLq8qmfjkS/61dtndMXBEqki/yg8/4pKGNBHQ9Trao9dOJFEI1GZoSzgEUwMVNoEoDck0u0hB2X7vuNOOEZcwwqeiMl6/A5X1MPkq81krCOtzR2oUZen0OhLEPaRXc8WhNhLOdAg/BFaoFMWv+ChUUyRdQ/oPfOADMdFtZKU50qH2jS99MZ15hEAUCjYoAWFBukatKoIByMmnnFzWrF0T6RlEIaB+JSup8IyQtQpGvCtXrgw9qZwqk/5ZfTqBPPKf+a7rK/2QhZ5Mr5x00knR/2MI+FFuWSHlBwH1vTTxRvDZ3BpgqVj6d+RJawlIIzy9ikPrwNLqj5LBwEG3Q7nmJ6tUdGGQUprmNTMOR7IAGbpaOhnKqRIBUwGEUjCaWGRTYPwhoVpDoUjJD9YDa8E6OCaxhN13n32DCEuXVTWtEsrnjZBYmhTLcvo4CNPNmlKmfoJz+VBAFGYeSQdZs8TCGHxk/pJoHOvEisFll10WxJKXo6oO9wte8IKwpDrELDgra4Cj/0j2VFpC38xIl2UkW1pgaQpnYEMv4pcXheKDw/q7Clzhmy7RhGvaxS9N8dJTfgVIobM0Khn5+TOYQGqyq2Tkdq4M5EUeyIsUKo4KYlCiPHRByK4yv/GNb4yuSGdYeZaOsiCDOHDgkEMOiX4cbpgSSl27bvqFH3Fxmnpl6HzJ4mGrnZVm1Af+mK22siq77TpsyRCD0CJW4JTHn3syq3YYXAhHUazDDtvvEOHUIgMOJFGIjvxqmglL0eJV6MITUnjpmWqh1FTEip1WlLPOPis+Dqcfqe+lUBWiPKnF8iRe17bfbvuy5157RnjWgxVjiVUgyhNW4UjbyEx6rsuDzvw2224T+Vfo/CXSokiDlZWu3wpWpVFhpEku9wYHBsuNN90Y6fPPHxlVCnIpIPl3X5NIp67JFzKTR4V2TbloqsVLFt0CaSGAuOlY/pUJ0Dd/rJP46AHBkUr6ZFEWWi4kYX3JzBJLiyWmR+e6KfREbvLKp7QYENaN/ozUt9pyq7Lf/vuFzlSAJByMSjqkgWRnBpC5emAY8buKSQc4kWElIayjDGRzwXXGqXPvNwEQ8MMf/nBYHk2V5tY1/SgKYQHNt1E4BWc6wmflyDxkGvzkOTkppX5PAQkLGY6/TsWB+MH1etopV4Zph6/+6Xe515luEppuMo6871qnfw4yrvq1/J3+65CXzCdX9ysdkM8qtsiDe44gHPid8SBpXT/O089oiHSrSDci3UyiM7n8HcfaLeRVI5lxE49qNgVRDKujn6QZ0zQRZDx0+uklzHwFMnUjzWRQL/O+IF1itOsyqLlgzjU7rJzmRTOjadLXySYEsiaOhgXS9Q5lMZP66VvSsWiaOcK7l/0mfSXEc48lRDomvd78jIYF0vUPZp10nRiLhIiRpIs+xOBw/yXhut9h4SoOLZCuGehb0tVJwU+6er8vwFt1LfyPwaMF0vUPNjnpesVG2RyNfGNggWT9glL+HwdcLV3iXMhdAAAAAElFTkSuQmCC;base64,iVBORw0KGgoAAAANSUhEUgAAAJ4AAAA/CAYAAAARxXEwAAAAAXNSR0IArs4c6QAAAARnQU1BAACxjwv8YQUAAAAJcEhZcwAADsMAAA7DAcdvqGQAABwuSURBVHhe7Z13cFVV18bXTUIPCEgN1S4KSA1gr2D7A9SxjZ+9vyiKiqOj8zJjnbGBOijYe69YQYqKYAUVG6AUpaioSE9Iwn33b52zbk4O9yb3Jich+t0nbE/bZ5e1nr322uVcY3EHqUUkEq8km3gs7uKVP49Jjv43FXiS+mkW/wTEtmzZEt+8ebOUlZV5N2Ixx5HouKgp+ekF0yUfg9LOkc9QkXjbUsyV0D/zoDECt2I53jtkl5ubK02aNJYGDRrovSzqB2KLFi2Kv/3227Js2TJp3LixkqO0tDRBxJrCyJaMzEY+JYo7967d0V3zx3nFILJ161aJu7A1SGJ36j310KhRA8lrkCeuUUlBQSc56qhhsuuuu/hPs6gPiC1cuDB+zz33yHvvvSc77LCDkm7Tpk3bkXic5iRIWDGUE4/0LMUw8VwsadqsqZSWlEr/Af1l1KhLpU+fffxnWdQHKPHuu+8+mT59urRs2VJatWoleXl5kREPJCNfOcncEdLluO5VT8sJqDfinFvw0tDgkw9YbEORcx2Ki4tkzZo10rNXT7ls1Cjp17+v/zSL+gAl3oT7Jsj0adOlZ8+9ZfjwEbLXXnupZYkCyUhnSBAsSDz/vvfMD/oq5146dLPxre6mpekeeU89rF69Wl599RWZOWOmFA4qVIvXyxEwi/oDR7wf4pMmTZQpU6bKoEGDZOTIkdK7N91SUJU1RzLipUK5xQshVRKh6KtW/SYTJ06Ul19+2dWlt4wefbn065eJxUu/rB6ildX/B+Q4++HEjHUjZCrwLLKoHlz/5pNOPXSIZ+QLnmeRRbTIUec97s+bbcOz6LqQlN1nJsj2aP8aOMZBOheUfD4BFdFr2QYNVYVKweNwqDHMumetfF1BiRd32qso8ki0mUUWKeEGFxDOES8GAc3q/VtA7cKDJmtiwZBFXcMRr8wZOCaLPQVEoQamTsLTJ3Yv2TPD1q1ufF3mntWwELHAum86oDys2JSWlugyG8eSkpLE0iFh69ayQLm99Wy7rKxOvPv333/LX3/9pWmHkepdu594FoiS6p1UqO341UFOPFbsrB0CcRm5HjaK7KzgurzlV8BTbKmXgZ8Jk8AE4hFKtngKjwKQD3cxh4npbWCF8MK6dWtl/vyv5bPPPpM5H8+Wzz//XObNmytz534hX331pcyd94X88MMPsmHDel5WxONmSWNadupmk+5abya4Hf7880956aWX5JFHHtH1cH3my8RkFLxn4NoCCMazBlHVOwbeKy4uFjaDQH6ugwimpY2szCu/hhRp1hROK+WFiDJpKsea72+//aYtnkEDS3HqPkJwKuKO69avk19+WS5r166TnNwcyc3L9eJEhmCtON+2lj8t/knuu3+CXHvtNTJ27Fi5/vrr5YYbbpD/jv2vjLl6jFxxxRVy17i7ZNGiRbLVEc4jHYA43tIi9aNO1DtoLan/rFmz5J133pEVK1YklEzgHRqGG1JpGsCeUUwjr147KClc+sgxLzdP3w+C59oAII7/DmCHzqpVq+SDDz6QL7/8UjZu3Og/8RDcnWQNSMvBn1+eYIgCjnhsF8pzVs+rRBQ6p3AInxb+zDPPaItnGSvR0hCqi7P277Xy5ptvyqOPPirff/+Dex5XIUUHhORCYn4yGMrRonlz2W233aR3717Sq+feuo1q5cqV+mznnXeWvffeW7p17aaK3rhxg2wpKU4QbdPmjbLm7zVSXFSs9TMFlrjumoZXUFAgxx9/vFx88cWyxx57KGnM+nAkflFxkcZFZlyXlVa0QGvXrnX5bNJrsHnTZr2GJMDkjTUjnS0luAvlFpj7kO7WW29VWaMXexfk5+drPuvWrfM2iOBWBGREXcMkrylyL7l05Ni58+bJksVLpUvnLjKosFDat2/vP64eaMUEWjlLVygRBXbu3FmJZRX55JNP5MEHH5TZs+dI27btpEePPaVp0yZ+KtXHhg0b5IsvvnBk/l46dGgvg4cMkY4dO/hPDeWCbN26jRQOLJQjjzxSDj74YGcdfpWFixbKsKHD5PLLLpfjjjtO+vXrJ+vXr5cFCxcob/Pzm0tRUZFawUULF6nimzsCo9Cvv/7addFfubo0VaLR6JAHJGzSpIl89913smDBArU8v//+u8rhxx9/VDKSRqNGjTxSOxIsd73BrI9mycKFCzUPyjDP6euPP/7Q3URsZeMez+fOnatuAtbN0mIf4vz58+Xjjz/WsnLdsGFD1TGEI030g7w+/fRTWbJkiVraJk4PxEtGuihImIeZ98ay7k8TjIbZCI4CInyOtCjbjMk5QBkmCCNk7YFaVrR0BrpO7fLcyL7EWRu1Fq67ouVjNbxyxWTq1Kny2muvydHHHC2nnHyK/Pa7tyY8/+tvZKgj6RlnnKHW6c4771RlXnfddbrj5/HHH3fuxC9yzTXX6Hr4G5PfkA9nfaiWFIJADAgAMc877zw54IADVC6z58yWhx56SC0U8unVq5cSbc6cOTJgwAAZPXq0XtPAX331Vfn111+VtFi4tm3byrnnniuDBw92DXu2vP/++2phly5dqv4mu5CGDh2qjQAr+O233yaIhs5OPPFEOfroo5Xcppco9ZMDQcrcSNKEzHVy9WQO0goCkvNXGfSVqArgoLVJI73Kap2X11AtcUGnAqecBrJs6TLdcoU1+nnZz0o2iAaJGExgqTp16qTKRVkqUz8gY7pWrDKWEctz8skn646gxYsXy5QpU9Sa4RdDciwjhLvwwgu1q8ZPxNJCRBrw8uXL1WKS7vDhw+Wqq66SfffdV62buThYcQgIubt27aqk6tOnj1rcJ598Ut/n+rLLLpOzzz5by/n0008rGZONxKNAjmvYrnUT8E9o5W705JSAdxCh/usUQUUTvJpUETgAje+17hx/Q6oOJtxxp512knaOKAwYIMeSpUtoTdKhY0e9R8A6QUTitmnTRtOCFASIQnmwLFz3799fSXf66afLIYccotaFNCAlXSckw2KedNJJShYsKu9gDS0dnpPG+eefLwceeKDmibWjG2UKByuHZe3evbt287g7EJRrulXy2GWXXeTwww9XUvbs2VPdIhoB7gLvI4MorR1w/Q9dEImWJ1ydLEzJJmQK2qFDB+nbt69Whtav8XwN8xxBIxTi0M3QinUIrzEiQrxi3ZIj9FyFbPdirustcQ2zTDoVdJbOnTrLRnwvZ2lWrFjpLFtnGdB/gHbPWCeUyXmXLl2UFKY0CwArQpwdd9xRu0a6tnbt2iV8RCwnVg2l84x0kC3POzqSm8vCPVwErC8j53vvvVdH49OmTVPr1qxZM0+mLh5pASW/P1qG5OSDVXzqqafkxhtvlJtuukm7X8qG1aUsvB81YJ2DCdr/zMblY3RMF0Y4hEpFUMyee+4pV155pfotbXZso/4FwVPaCiXjOeecI9dee630c+TD0UaZCCMaWL0MnFOzcKgI3AFv+z1+Z46zLI0dQZo4ZbRxXWNH2bhhk3z00RwdkHXr2l2GuMFL69atE4MEznfffXdp0aKF7zt60yYWGHBAHsjBkWsICHjOPXw3SINMGW2SBiRgIAGJICgkojucMGGCfrqAPLFmNGTSoMsnHmnQyLF4WhamrVza5IV1xXLS1eLzHXbYYXLKKadowB/lWa0QDyEbMiFaEFQMUClaH1Mkd9xxh9x+++3l4Q4v3Hbbbep8jx8/XsaNG6eBljpu3Hj37HZ57PHHVHnbC5WJmPp169ZNLQ8Kp650Wfvss49ad7qnn376Sbs7yIdyDUHlcZ4IWPjgtQsQEd+PdBgwMNpkAIJPSIBMkIbyYJ0YxVIG/DOIQ5dpxCLQkCEtRITEDHQgHFaZ8kNyppOGDRsmhx56qFo7SEqdmjVtpvlEDW3uJKxpu+CdlzvE6QDi0fpMEG+88YZ+wzFjxgwdTX344YfOQnykoysC9/myzcLrr78uU6ZO0e5i8uuT5btvv/NTzgxB5YWDR6lUIQD/0uQQBErEktEtokysCkTER0JxgPvcw88ifnn+LukK5fGukXnwvj0jDVwUSMGAg4bK1BN+m+kHYMnw55g6YnT7xBNPqKytOydAZLpoLOLPP/8sDz/8sE674MsVFhaqBWW+lYHGAw88IHfddZcOTPBj9Yu/kByiQO7IkSPHModDa+3iHE/m8WC6IZ1METBAGKTDfBItCr8NhXCk4hwZ7dmRgLOLAFq1ai1bireokAYWDnCjvB4uby/dTOtN3jaPh+UYMmRfzVO1nDSAuH73gS/HAAECofgePXqon2Wg67HJcKwM3SyWCWuCVcEaMh3CKJXuk64R14I0GFkiB/xAullGq/i4+GL4U7gapAUZOCIXyk+jhkhMofA+9eK43377qQxJizpjbWkMlAsQx8qHBSMNLB51Y/CDbnbddVfVMXmjO4iNFWQwQ3kpW20QL+Yc4jhzUcxR2TcXFNxaVKaZYu3uv/9+rcgJJ5wgI0aM0PuWjrVqbxDh5dGgQUNnBd93Le4JvcbvGzFiuJp54POvSliZ6XoqfnMxWkeDqWDvAcqJ/wmJsBBYFBpDECuWu+dFFZ8Tn6kUCARZeAZIm/JgeejCsE6kzzWE4JqGC3kgKcTAWkJw/GEGAKTFu5CKOUECXeqll16qDQoi0Vis++R98mS6hGvyAOSJG4MVJU3u0yXzHvlQfhoL7+Of0ljMqESNWkmVFopFYDRG66FV0R0RONewm390gRWTlk6BCDZIAiNmbcMaBUfyx+JTbvy0MOlAx4KOsvNOOyeeU1/KjoXBQirpKLpffNLDsmM9SB+y4IdhHU2xvA+JIS3EgIjM4zHK5Lvnt956S1588UVdgeC9gQMHav68T7q4AAwqyIsykQcWDfKQJ4H7DPioG3lBOu5DQLp20sTo8K41iNpCraUM8RAeRxQaDFSISlvAj1D7h4AY6vsKc7G9kzoA5bIj5atM6FqPgO+DJaGuHCEh9dA4flrUkSP3eQ4sfa2zH7hHlwg4Mi+HpcYvY7rjhRde0Gcs4dHtEod3yAdSQV6ukTl5ci+YZxCWp4G4Vp+6QCTEo6Jm5QAVMOLhV9h9A9fBe7yLg0t8FViDPE8xyCEDWUQhOFMUIaiYILhP+e053RMkSChP2473jHhGSOoEOQD37P1wesiB+JAON+GWW27RHTJMTbEMd+aZZ+oAJyhDzq3M2ph9WRgB7Zrnlo8hfF0XiIR4kAthUQFMNAEh4DcwHYCQw0IKWgf8GhxwfJJm+c20i8bHQVYRcCkjoCBTlpI/CbgfVC6gHtznPX3mtxjisIXJtjHptYtD/YjPtaVn+dHVWjp0p3R/Rx11lE53MBgx/ys3x5vns7zDZUoGK0M41DUiIV5QaPgK+Bu0bDZPfvPNN+r8GvkQEhXlHMISmD5hpAYRCzoWqJ9j6f0TQJ0qwOlRlen+aT1MrxEYFiOJo0siXfK3Mth5MNRHREY8a2040WwhoitgVIZTzLwSoz3rXohH94Q/xxCeub4li5eopezVu5cb6nd3CjNt/UMBL3yS1AoCSZNPZXnVRyJGQrxgxekimJ/C+aU7YT7t2Wef1ekarB9Ew1nGGk6bPk23/cyYOUOnJ5g3GzJ4sI646hKmkLALYPdsdYFz87/sOaEqJKyTz4103gkjSKzKSFYVUr2bbl2iQu4ll1ySmEDGWjF5mekEssWxI34Jfhoz30y2EiAdqxq2YZGVDWbk2b5DdzRwYKHusuDnxNh6VBNsO4E8xJ9ATg4TOITS7U7O36RxMN/GfCQT21hoyskgCCJpF8pr6ejKiQXZhGWZjmyDSBW/OunQgGhk5tKkIl2maaeLSIgHiGeBSjA5irJRFESwPWusEzJzzwQnimZitH//Abr1p88+fZzDzFTGtkrKBJkSj3JgzWgozJMxfzZ58mTd5cEHQBARS06ddFI1NKMNEflXFcJ1qk4d7Z3gu5mmwyoLjZ9eh9F4k8be5oFwOsnyigqRdLVh0IpQFDse+NbgrLPOkmOPPVa7YO4zamPieOgRQ3Vq4IILLtCumWkUPqaBBHUJ8sPS4Y9OmjRJd/hyD6sNiVlPZjUGEjIYqg1FVAfJyJIOmG1gXpD1XxooxqGu4Sxe+VptTSxeEFg8yEdgVp0VCwYcmHdaGkrl+4bT/u80GVQ4yCnY216dl5frRsOppzHSRaYWj4ERmx5RBm4B24NOPfVULSMjdAZGuAmUkdWAVi295TAUiNXgOwy6Zqy6TYUAumrKwDQRAbeCdLCs+L86ZeT+Fi9ZrLtOkBvPcEvoFVhCw8ISDyA/eg12xpAWlpilOksLuVJG1lspF24NeqX8zDLY2jE64OMfys/yGEuTOoXVqKFaQ9JmbyHv4moA6oReaHj2HFBO8sIvp+7p8sVJqHJHxfr+TAgYjEthqXTDBg0TyzAIkIrSzTqXVoWvP0dbA6TyUdIBLR7i0f2zpMSeNtZ4AdeU2wSrvlFZqRKNXTXsqGEeEsVAcvtgCD+XZ88//7xOMVFXSMdaKcpm9YG47du1l3fefkdeevklXamgLHzMAwFY2qJHoOGQPgpmLZzdPpAMWbJJgN6EPCkf663szcNdWL9uvX7tRrn2339/XTfHslNuWy9+99139Z227drqPj3KzBo39cMFgfhMZLNDmvlEiM43G5SRzRCQcPXvq+WWW29RmVGmdLhSK13tPw0IHkUgaHZtQJog6AVYNWDzAiRCeSxfPffcc0qAgw46SONgHfhWAevF3CXWBQvGt6xGapRDfnTf6uduLdNvi1EoVhoysOuEXofGwACMdCE3rgBbyiDbMccco+4JFpU8sU4oHNJBdibuBwwcoJPOWFusORtVsXpMQtPwsfR8x2GT0pDpscceU4Izw3DEEUdog3vllVeUjJQBI4LVpQ5Mk9Eo+caD9JBfugbgX0G8mlg7AEnojuhGbAdJECgIK4XlwPKwEwQlcY4VYQMmu6zZAo/CeWbdG10gmwb4tpYPcU477TQlDoTEJYBokJe8ITXP3YAvYTWZCyUtLAuExqphKdmdgqXr26evWie6VeJBctwFCId/ffWYq9VqQlIISP2wtrhVlA8CUweIN3PmTLXKkI5vOFim43sQBlVsRIVwQFdNnEywgOyQufg/F2t69Ab1jng2aKBgCJvAuZrlmvWyNQbKxBLQYrE8kMBAGbnG6uA7IVxIgz8HgbAWEBWFdunaRRWCJaN+KJZ3USpdKgrDMiAHrCbEMxnQRdG18px4bGeiXNZ1kSbEoitmThQrx8h77bq12gAoD2UkDmTHkmleTu7777e/fkHGBz3N85snCELalBPw8yFYMWQAidgBA/BpqSfps98P+RCHMuG3E9esJ/VVfaYB/byxtkEeCBsBmaPMdTBsT2BZ2KYE+bActGy+5gcoBkvDHjh25aJc6oPweYagIYrdQ6lWn+C1yRllIweuURQKg5xBGZEm5xCTI+9wJPAOJCegcLZC8f0rBLE4xAfkb42IXzrA4lEe/jcMFg99kB8+NmkTeM/SsPLTCCgbMD0Sl3jUgTS4Z+9VhTqxeBSKAjGFgkOKD8M5BaVSppTtBYSKA43FYcSIHzV33lw953sHfDl8JPwpFInS6XohKF0QlpARJiM9um0sBBaDeqM4FFkZqqo/MmIJEoKTHjuD6QKZcMe3ZLcz5YGIjN6xTvhp+K1YsanvTZXxd4/XAQc/t8EgAtKQLnFJk2vyANSL+ph/yjmzE9TLeir0SaCO1UGdEo+pCb4Nveiii9RMWwuzlrS9gDCZY+RDF0iIM80HSXx7wEdLTCozMMBPYzs600MonLgoky/xISa+Hc+wQnSv1Lkq4iGbsPLC11gU/D+6dRx8Bg/kR7j55pv1WwzIAdkZvUIQpkuIxzcYfE9BA7FdLcTDX6XbZJTMQId08QOxnDQgLDwDDd5lkMTudMpAw7PpIQJdvzWcTAxIhW8uks3jGarLbGDCRRG0Sro2M/G1gUzn8SAGyu3QvoPkN8/XqQwsBZaM+1hDvkHo17efKg7CYfVoMHS9TJEQn+4axx2LzooAFoe5MkbKjDCpN8piMMBzRsOQBNlDfohF48RnxKfjXcqNTtANxCFPBg+4BJYOW6aY7kC27IKmMUMq0mVwQr48p+Fg1dAD5cDa2YABwpE3zyEaFpNVJvJDfgxkIB5Wkmfkywid/Kpa+UiG2IIF38cnTpzkHNb3kn5zYagtkkSBcFlRWibfXADSgIB0lQicNGjdEA1rx8jOYLKAoJAOAtAV2a8HoBSIxAiXdFCe90FTq8Q7WAoUzXQFBMHitGjeQrfVkyc/j7Fy1UptoLgAWCnWjNdvWK+jasgHwWhYpB0ciUMcCEc9IArPIQh50ZAApMZKQjyeQXC6a9K0CWJzG+jKqROg7jRo5EV9zIqanxfmSSreZIkXAmmxG4X5NWDCTCVQ4pufypH7KIH1XNKgq4WEWEmUal0v8bkmLtfqLzG8559LQz8BcOc8I2i6Od5vB3JOfADJSMd6ECsHxOY+gfthYPFIF9KEXR3SsDKSD0cLlpblZdCf+wgtAgTjhlEnPt4/Dk5OKMOIYUCAFgCCR8kEIw/vmLK4xzNIYcrlOYCMPANYVs5RnL3Dig7nxONd0mBQoHD6NqUTB4TLZMTkOYH7wYAFy2+WrzujwyAt6p3YNY1AHCCXpW95UDaCySUYKkOWeCEgMARqggtfB8E9FAQpzKIl4rkDy4R0wUzTBN8nLl0n7wElCWTC0vKjjO6o5HNKJo6R3/KDgJYeXZ2lA0iLa4jFkXhGtiCIp0TetloeKI/7g2z8SqtaNJcWZGzUsFGiXNzTkOGSZ5Z4acCUHIYJPQzuKVnTVIYSxMWFbGo93DnvmyVJRhyDEoi8/LKEywM5jCCGcJxksDIYMbnWeynImizNZOUxZImXJtJRVqYwMpmCNI/os6mA6tYjUb5KkEnaWeJlABN+OkrIFJoe/2opfVDTNNN5P93yq93Mdf229dnAnEf71kBD8LwaIRmSxdN8Mg3uPSszwSptjnp9RVg5VSmruogi3ajLpr+doh/czJihE5hsQWcyEaU53lbM0J1WtwDJ3oMwQeh1co5WChbCg2COi1l7tgixCzqT6ZTtgbAcDFEruz5Bicf/Gp5PDJlItN/VQBhUPFj5KElnSEq+DME7wfeYtbeJXeYkR40apctB9RnJ6v2vJ97dd9+tH7YwmWhzSjaiCoLrKMmXjHTJFJAOgu/hNmCx2XqEpRszZowuO2VRfxBbsWJFnIVuPnCxyU994JOMkCAE5OGf6Vjv60mih0xFnFSEDcdP9X5VCL5HPbhmeYpfb2KdFfchi/qDWFFRUdw2OeqNAOGMLFhAFIlqPfXynYRHQILeT86rBFIRLwqEyWpzWwArzsI3E7lZ1B/ESktK46wpKrF8Bdq6G2ThnhLP/eHCc3R3NeS6v5wY64dKQ/+d2iVZOgjmz0I3o3VbqsqifiDmfCHHrXKLwTmKg3yYNa6VfDxzf8CI52jm/sqJR4yklEt6M2IEjZ7Lz8iXJV79RKwC65KAhyxD21ZGZvoIscT/9dER1E9BScqF/itPFnqmQ75qW8pwfi4dS4tFds5tjjKL+oEqiQe91mwSWfzLRvlr9UZp0zxfduneVFru4NlApSEHTcWp3+m7iiQTCBOt2sRLgmAZokw3iygg8j80D0G37tE/NgAAAABJRU5ErkJggg==;base64,iVBORw0KGgoAAAANSUhEUgAAAF8AAABeCAYAAABFEMhQAAAAAXNSR0IArs4c6QAAAARnQU1BAACxjwv8YQUAAAAJcEhZcwAADsMAAA7DAcdvqGQAABBDSURBVHhe7Z15bBXVF8fPe6WI4tZWEVFx3xERkE2WRlTigooxYjQGCGqM0cREEyFB/8A/MFESt78gGhUaFEtADf6URYpLFJWlQEERjQgqi0ulVqG0nd/9nDfnMX08mvbR9t3qfB+Xmbmz3fs9555z594z00RjY2MgDolEgoUEbrMxaJQg0OwYLUAymdR0OMAl/DY0NEhBQUGY6zh3O0C46eBWA/dzQgkzmsKEFEW2vP8SrP6H4wF+SXAaFVTiwIEDQZcuXWTbtm2yfv162bJli/zzzz96oSZCCZF5A7YPd9P/MqKcFBYWSnFxsQwfPlzOPPNM1X4EkNi3b1/wxx9/yKxZs+TDDz+UrVu3yv79+5ttRlHExKeQTSltCdndu3eXa665RiZPniznnnuubieclgdvvvmmPPnkk3LcccdJnz59VEoxWofDkQ+cgsuaNWukqqpKHn30Ubn//vuld+/eIrW1tUFpaWlQVFQUzJgxI9ixY0eAE45T61JzqKmpCcrKyoKSkpKgb9++gROEnpOsq6uT1atXy/HHHy9Dhw6Vk08+WaUWp9al5nD00UerycHcOOVG4dWfJnEGAKd7wgknqHOI0XZwGi6uUyPHHnus+lG6m3CtvR4kAFoiwRitByR37dpVlwiCzgxLUrKx4WB/3gQRo32QyW/L+pMx2gUx+XmCOtxwPUYHIyY/z4jJzwPQ+ljz84yY/A5F2NUMFzH5HQrHevgcm3CrMfl5APwzmBCT395A2TEzoaYn2SbDJW/Jz3wUNzAmkrmPwSryOxMS7pdMJA8OptngmnWFmksdDe7ZUN9wyL0Zm2LSv76+XoXgHRy9gdoZV1a3aNRt6tDop+ZHCUajGZKFeBSD0cHo6CvbBV0KdCicdc7N1jr8gNHtFNyV1SvyISxKmk30PPfcc/LszGdl9ZrVTYhXuE3yvvvuO3nllVfkmWeekU8++eTQ43yBVs8pSaLAL/IhzBLa++eff8pXX30lixcvlmXLlsmqVauymhYEtnHjRvnggw/02JUrVwpBAYZMoeYL6mdZ6oZrxSx9xd9//y2//vqrCuGvv/6SXbt2qQnKBALhuN9++02P5bgo+QYTQl4EocQHKeKx90G9h2YnFUCXtt+2DiA5m+ZH8y0iDJPlG9LkBw2OeJJHgGxzlmZ+coEKMRQcyNzOF9IlSNkdv83OvwqOcLqcdDd5vArEM4eLajgdVS2lBWBCTjrpJA25IJ166qlpExQFLYRAr7POOkvOPvts6dmzZ5MojFxbUFsDzUcAgfsvCFyXee/evcFpp50mp5xyipSXl8vll1/eoiba1hWye7LEqTLLz4MTS+w3ZBJ+QQxM5r05jqgwnDJLQjOIQyICD2FxfPScjhYGikQdRo4cKRs2bJAlruc2dOgwfzTfCCI5hZDt27fLTz/9pOsQSi+GvG+++UYTAb2W6OP//PPPSj4VRWBsE/jLOdEeUkcTnw3oGckbzTdA5GuvvSZffvmlkobpsZZAAt26ddNYGEAvB80HRx11lLYMtJ1Ia4QxePBgeeyxx9Rk0SLygUzNX7pkqUYHeudw0fDvv/9e++mE1UEgpFMB636yTT4JkiGf/QiJc8gDCIYHM7Sf/b4hTb7zAeoQ8g2ItD46Gk4II860pKREnS+xpCxtO5rIKyoq0vBrQOukJWC6fCQ/bXZ69HRm561y6Zdns/PFF1/I008/rQGlkE6A6YgRI7RMEKgtIJHSGRuRpSyWwNdffy3z5s3Tp16cLmbn6quvVmHmA5Q5q9nxQdszgYOlsNj1c845R+02iQIPGzZMl6QhQ4Zosv2DBg3SdNFFF8kxxxyjrYghCu/gdATF8Y587DTEQxzk08W04QNL9Q31mjLz0TBaCI4V8snDP7D0CdZCk9h6n4BTNceqpsT9mDAxk4NThcyoGTLSLY+l9e9Zt/Ee3+BdbweNJaH1tIC6A3WSLEiqNpMKkqmXySBUt92SFCWb8zBdOFu6nzxwsd83JM3u2FhzvkGPBUcLcXQbGSaGSGuqXQpThBuM/FQbSWjLoJtKl5VrnHjiidKjRw/vyKc+6RlcX6wPZPG6JBpLF5Gey7fffqsabQJgaevkAxwY40I82VZWVqoAME+M99AN9VLzdS7XQavigffF3DA4Blk8RG3atEm7nzU1NUo0mh0FeZZoIXY8vRy2L774Yu1imrB8Qtrh6iOIB+XDjl955ZVy4YUXqu2nv79gwQId+sCWo80Iht4QCVLJg+yPP/5Yj/3hhx+05TBkcu2110rXwq5+kh8uvcL5558vY8aM0XdVaQkQu2jRInnppZdUGNhzHrRwvrQOxoFeeOEF3Y+ZQmiYrxtuuEGFiJ/wEd4NrNEv59qYjIULF8r8+fN1dJMhAxL2myEHEschiD179qhjxjTROhiCgPiJEyfqcANjPTjffGk/3V/KZU+4BAPwsOid5mN2AGP3aD8EXnHFFWpa6P3gfNetWyfLly+XpUuX6pvdO3fu1H34A/zFXXfdJXfccYdeA9g1W6JUHQnvyMeekyAKDUZbJkyYIHfeeaeaELQXQUAoT78ch2m64IIL5Pbbb5cHHnhAtT4662XkA473RQiudNYU8++QjJSoecBsDBgwQG677TZtBZMmTVKfYMfgF8aNG6f5CIgve+hb9O5nQvQVrnRUAg1xyZNy6uNSSC4E4kDPOOMMJRYhXHrppeoTMDWYGUY+aSGsc2xngSM/tfBB89MIi4IA0k+woTAwMQwTA7QasjE/7LeEwKIBwL4iZRR9UfkMGJlAbXUYjYzWIxBsuY7/hP1/ED3Hd4T6QcHdY1aey2ykZSOQbQbYbIjZQDcOTUcQ5mB9tvNRuPaZml5LpJ5xvYNqfJgMCCKaRyuIEp95vK9wJTbyHTqHwjRpFdF1Izyz1fiK0OZ3HkBs9GmVQTM0vzNoeiYc+WFz5T8PFAZSm0sMmDFSyZg/zwDnnXdeuvcTReZ5PiI9qtlZ9IauJpPkTz31lMyYMUNHLRlE64zodGYHx8q0YL9+/aR///76NEtPx3ctzwYvQ0eag9l2WgApG9mdRQCdTvNbimhLyJbyC6Y8I3O4MToKEJ/ysf9azfcXTt1pee5fm5DfkU+U7WUyOrQO4fKIyafA0aixzoh0HfiUQCiEzNRmCJnP2exEC2QOjG0GvCw/eoyvsDKSVHn4HabMdtyRgO8uGFjNiXwdLw8Jt2362tbfJt9CO3wFZDPna4G0lF2HKRoPCsRS2+KgBHIi30yMEU0lCOH4/fffNZKASDOGfkkc6xus7JSP4QpIV2U5cKiycFxbw7Q+J/IpKOEYaAzrBCnNnj1bxo8fL9ddd52MHTtWHn74YX1ZzQTV1oh+hjgbmrsnhPKyHEFWKAygHg2NrQslp/4tVS6OChzrlErXXcqJfDTFSOU7B2+88YZGivGof8899+iLCnyE4vHHH9eWYO9UMQNFq0BwVmjLJ48lAVI2OwUh9j2dTCi57h+tjnNIFkrIPoghj3Xmerk29yLt2rlL44FefvllDUUBCITEhA0CoRVYHteh3FyDulA2Pcf9rBwtRigAkb2SUygXNp7mypJPsvCJFaIIHnzwQR1l5HUcgpveeecdDVxlLIYYm4qKCo04YzSSCW9e1cFczZ07V6OTd+/erRFnBLcSkcCLzxUrKjTQqLikWOMwIeKmm26SW265xWlOUtauXStvv/22XpdAKoKRaH3E7BBsNWfOHCUYEnm96Prrr9dyLFmyRH755RetD2W47LLLZMWKFfLpp58q+aeffrpO1pP/+eefaz6k4xuo4913363zxPz41xqg8Y1BTW6aHwWmhUixvn37aogHQ728ykMLmDJlikbCVW2sktdff13/KA5RCFQOUmgdVJxPtPD6Jy2KsXoTFJHGmzZvkvIF5Rp5zH7eVHz++eflxx9/1Htj7hAw96T1vPvuuxpQRd6rr76qn4BBiChLWVmZfPbZZ6o0RL8hIMrDOm8tEm7IPakLZokyIzj+jgzhikSacQ+EDKz1thQMKfD/AUymfvwiR6BJwOLgeeXeHBf7IJ3gJZYVKyv0/dqrrrpK/14ImkslIB/zwPGYjBtvvFEeeughHZ/fvHmzhgByPbSNEUwEOnr0aG1tvN6JNmK3mVAhnAQiEQrk00poEQMHDtRAKv5QzKhRo7RFMiJKmAnaTR7mknMwoffdd5/ce++9mk8MKH/nxMwX8UJEwvE+WGuJBynyHdyCWNOcybduJaEbaFLd/jotIAJgiXZDDiRDFNpFVBkm5ZJLLtGKYxYgHa3EbJFo5pip6upqbVEAwtBGzmM/94MQtBJ7TuthnTxi+xEeJgXzB1G9evXSkEMEywt0KISFnDAyyjVoRZyLOSwuKtZWDMH4LBQAs8gf89HW7fajNNTVlLAlsHD8QudXkoluuZNPgSAZ+wcZlesrZcf2HVooCvzee++pecBRUXAcFYTitGgtEAZJFJ59VIRzo4l9XJv7sM06rYwlxGE22IfmIkzKQuuCcASIgiBgSOQefDYARWCda7CkHFyLsiAEBEavh/hPzrOuKMdTHn0OcD+2W4uUmEz/ndLqMgdAIoQQ1YxGYiNnzZ6ljozm/uKLL2pFKCQmg2NxzNhNbDyCIB+CEAYaCAlsY0ZIbANr4iztvuyjV4VWcy5L/A0tjXtiIngllL/9hcOkNzZ16lT56KOP9FqQTRkwT1y3tLRUWwt/toqXK95//31trQgVAXAMyYinnK0Hqk+iPu4aZOUCtIHCoG0EsrJNgXF4FBYyZs6cqVN82HJ6LDgtbCtNnqnAm8ferNciqJXWYV1FtJuKQyoazLXIA1Sae9LzoPeC/8B3QCpCMbOGA+ZZ44knnpBHHnlENRyBYH54RwsfgVAQDg751ltvlcp1lao0CJFrEf+JcuELEJaZ2JyRfvGNhznnG3OJz4d0CofTgDA+rUih0HSaNQRhPyGefPrq2O/de3arGSAfrURIaDKV4zjKwb1p8mg+lcUUYMupvGkreZgcuqyYDu5LV5Pj8RvsM+Wg10MPiZaCo2Uf+VyT+7DkvpSJa+Gw6ZUhROpAOeylPHo5KEVr7DzgfnV1+2X4qBHqwJcv/Z8MGzow95cjuKD1ca0wahMj57Ju5GNH2SZxXDRxLbOr1luyfEA+24b0dcP9wO6rx7lVvU84VRTdZ9chr8k5ISwPZB5viB4fXT8cUuTvk+Glw6VqwyZZvmy5I3/QEXY1w/taRbiJrZM4RpeOBFoDyex61ImxDjg/SjTrJBC9LogSDzjHzlOFiMzRRfdFr9HknBCWl+34tgPXdvVPbbQPrODtU4H8IFNYrYFGK1hyaFfyY0ThhBYguIPCOyKz819MuaMp8azHmp8XpOxOTH4eEZOfR8TkdyiczVeLk7L/MfkdiqYOOyY/j4jJzyPc03vMf76g5DPax1g2w8GMDmZ7uIhT9tQSMHJKtARTqQxlMzrLcEuitrY24AOg06ZN0zFz5jYZz7aJjBhHBkhmCJzYJqY6p0+frvMf+n2I6urqgNkfZvqZ+iN0g+2WSjXGocjkDkVmRowJG4IAmOgvLCyU/wO+pqk/Zv4zXgAAAABJRU5ErkJggg==;base64,iVBORw0KGgoAAAANSUhEUgAAAGAAAABhCAYAAAApxKSdAAAAAXNSR0IArs4c6QAAAARnQU1BAACxjwv8YQUAAAAJcEhZcwAADsMAAA7DAcdvqGQAAA3hSURBVHhe7Z0HjBVVF8fPNpSyC4hUBakahSgfYmgawYoQRDGaaIIxiIqA+UCCJkCigBorBCxRY0NCaBqxANYoVUJkEVRAqkooUlQ6W97ON7/z9ozDc/djRXhzH84f7s6bmTvz5v3/55x755aZLM/HgQMHpFatWpKVlSUx0gOfduU7u3xdwcYYpxZlZWUB+br0/wQeYDuO5wnkOx6qkuffBOPUeDGeAwGqVasmf/zxh2zevFl+++03OXr0qKoVRmXCpJKt6zH/AeANfgtqF8j5558vZ511lpxxxhmSnZ39pwAHDx6U999/Xz744APZsmWLsK20tDQ4gS0thZEqAKho278VEF29enWpX7++9OrVS26++WZp3bq1ihAI8Nlnn8nIkSPlyJEj0qxZs6BQDhNeEfmGmPD/j+LiYlm/fr38+uuv8thjj8ldd92lgkCct3//fq979+5efn6+N3r0aM8PQ16iNOElEgnPD0NBinHi2Ldvn/fSSy95vmF7HTt29AoLC72ioiIvqAUtWLBA6tatKz169JDGjRtLVnbVLD9G1VCzZk3p27evXHjhhbJp0yb1CMqFQABfJMnNzdUCgh0xTh6ozPjWLgX5BVoesF5SUqLLY+4DzNJjyz+5gPQzzzxTcnJz9DOVG1KFAhhi4k8utMrpc0qkIZlxHyNAjPQjFiBixAJEjFiAiBELEDFiASJGLEDEiAWIGLEAESMWIGJkvABliWQfq4H2lUQiccw2l5H5HpAl4pUl21eAtrWE1l1HRgqgJJcTTINWUXGRdqkeOnRIrT87J9nwlQlwXoAw2QYjlzZ1wACCwsJCWbdunXapAkJRGBWdxwVkjAeEyeMzlg7J9Gd//vnn8uabb8rq1auDgQSVEe6aCBkhgJFJMstGgG3btsm7774rL774osyfP1/27NkTtLtbzxOgTHAVzgsQjuUmAP2phJspU6bIE088IUuXLlXLz8nJ+YtQQLeVi+Ba2ZARHoA1kwCF7ddffy2PP/64TJgwQX755Rcln/5sAPEmAoKwTrlwtOjoX6qsLiBjygBIZkzNvHnz5P7779fQA8FYNAmvgFwLQUY+o/wWLFygQiFCLEAVYFZsIN5v3LhRJk+eLEOHDtUBTgzzYDs1IcimJnT48GEVghEIWP2uXbtk5syZMnjwYFmzZo0KY57kCpwUAJLsZoq6/SeffCKjRo1SAfbt26fDZszaSXhHu3btpH379nL22WerIBs2bJBx48bJiBEjtHDmPC7C2RCkcdu36unTp8vYsWPliy++0HWIx+rZzzI/P18GDBggTz75pFxxxRVaRrz33nvy4IMPyrRp09RLOIali3BWgERZQl577TV5/fXXZe3atVrfJzRh8YyxgVSs/eGHH5Zh/x0mnTt3lp07d8pzzz0njz76qCxbtkzFID+hp3bt2rp0DU4KgGV/+umnMnv2bI3dFuep6diova5du8r48ePljjvukJatWsrixYvlqaeekrffflvLCzvGwLqLcFIALPejjz6S77//XgtUs2KsvkaNGtKzZ0+1/GuvvVby8vJk1qxZ8sILL2gNaceOHXoOs3Y7jvOwdA1OCkC4sTkKFr8JPw0aNJCbbrpJhg0bJldddZXWcl5++WUlf9GiRTrBBMIRzGBe4GL4AU4K8PvvvwcWC/HUcqh2dunSRe69917p0KGDVkVfeeUVbQNatWpVhbUcEyNVFJfgrABW40EA0Lx5c7nuuuu0usk0KsingN67d6+S6yrBx4OTV00Vkxsqs14K35YtW0qH/3TQfV9++aVWTxGHRDlAqCGvq6GmMjgpgBWWJgA1H6bzNGzUUHbv3q0tn3gIwliIChewJkRYEFu6BicFMOJtyWS2OnXq6EQ3Qg4FdCrCAmQSMiZwcvOFEHgA/QCZD596zy+7ytechjWw4RGEnBOxdisjXENGCADhJAtLpOOBvCTKBxC+K3YDvhFlpUxRchVGfHh5PFgevAe41xhXXtHQv44DMsOkV0WAMAoKCnT2Z1U8J91wUoDK4nw4FFUGO46l3SNwE9eqVaug29IN+L/B8z26fM0pmMVbMuJBRQIY2SxTQxSWf+ONN+rkc3c8gOujTHJUANp9KDSxWJbciGHJkAysk8US29lGXqqr1mQN+bSY3nrrrbotVbjogPX71LvqATQ5W7WRjpSLL75Yp/gbTAgDIgDyY+Uci8X37t1bhgwZouHHHfL/BFftpAB0rmPRCEHHy3333ad9AEYi3hAGpLONY6j10GzRr18/eeihh+Syyy7TPE4K4F+SkwLQtEzTwy233CKPPPKI9gHUrFFTTQYi6d3C6sOkIgCh65JLLpEHHnhAhg8fLi2atwi8hSXJvCV6JK/DSQEaNWokY8aMkdGjR0vbtm2TMd//xxNcwrACF2JZXn311fosnkGDBkmTJk10v46I4z+jLOxzedkRKbL4fr/SkFxzCwwvueaaa1SIVEAcxHKHS9M0nyEbT6FDvlOnThrCtEm7pFhKE6VSUlqSfPyOnxAyeuCVfnIxBBFeIA+CiecQTg2GGhFk0yBHMmD1U6dOlYEDB2qXJfl42hctp+TLzUnWpFxEtm8LzgkAgdXyqmlYgTgLMywJRfQDAGo2zzzzjI6EwGMg3YQiP+HG4r/LcE4AyOO5OhSqYctFAADRhCfGDN1+++3SpnWbZAEdBnG+PNSEyw3OTXID/vW53BhnhBOCsHxCU15unrS9qK3WchiIRcgxD+FfULASW8u3u4vktTorgAESIZOUm5cr9RvUl44dOwYCVQa3rL1yZIwA5gksifOk0wHOCwAoTKkV2fBCCzUVWbjtC8KR43BSAAsfYYI1BJXXcGymC3G/ImQK+SAjPEDJ9+vzpOys5CXrXe1pgIwQAIsO38HaXW04VeIMziNyASoLFxb3WaoAZvEnSLTemPmhy3QMh7coQ1akAvDDIZjCtaK7VvZbzafM8/OVJsf8G3lWTlQlAc6BJ9l6GCpyBEJEKgBEQCiFKxZqIxiAFbp2R2z5wIkQpeT7x/GdtDXRpIG45mGGdAvhRBkACYcOH9JR0fv37w9mO1rV04hiCtK3336r4pDMuiuy6FSoiNk5OsALIVVMeE6/0R+DyAVgnD8zIGnDv/vuu3VKKRPy6JRBEIagM+2IqUq8XILHEiDS3wUiMe8M4plztmLFCtm1e1dg8SaiWX+6PCHtAtgPw7p5wsnzzz+vD9uoV6+ejv1nYjXTUb/55hsdiAtRy5cvV4+gX5jJGXiEnYtQom3//v4gpPjhjM8kvsdaUPECPGDGjBk6rWnr1q1aJmj543NthKeDeENkHoB1L1y4UGcz8loP3iiB9eMJEIBn4AWEIAg0IiEQIlnnrR8TJ07UJmn6BBg1TR4Ee+utt+Sdd96RV199VXvJPvzwQxXp448/1nnHc+fO1f3frf4u8A4TKgyu5VQKEokHQN727dvlxx9/1FEP/fv3lzZt2sg555wj119/vdxzzz36shuAAMR7rByvYPIeRDEtiXAE6UzEZjuC8DiDVatX6QwatvFQD0Las88+q5O3yYsQiMukbx5fYDd3USDt34y7QypEMNScidbnnXee1nbYh3XjEUy6ZoyPbQMcB2nMomSGDILQN3DbbbdpHojGcwAFedOmTeXOO+/Uqaw84INZl927d9ftdOjccMMNcmmHSzU/x9OLlm6kXQDcnYKQH0yMtvDCj0cEPmPFxH/y0suF15APLwCEIUIXoyB++OEHJdeOZ6Yk+fAsRkgwpqhbt256LqyewVqMFSXRuROu2mpKcxNH2gUgnEA+VkiYoSwgZkMwFs7U1DfeeEPn/NrseLb7lc2AHMiEfMhjCZmMH+L1UIQyK5A5DrDOMYjL97OPbezXAri8FstnCuV0IhIPgAQm3V1++eVKxNNPP61WjDVTA+IZD1grBJu3cCNF4lhCE8NVCDNXXnml9OnTRz2A0ATJJKyZfIDPAIKNeDyFcMaoCc4J+B5SOpFWAQI3LyeEbkXm/XJzRSxnGioPYaJGpIOxfOsm3EAoxBFiGLBFGOGZQRdccIHmJa4zc557BUZCQCIeZZaPiGy3eWYU9NxLMIxlzpw5ej2J0mSV1a4tXQhe5IYb83Y3ns9A7OTCTyX4oVgkVvzzzz9r4cl3Quq5554bDKZlNjx5GKbIEuKwfo7Fgu1xBpDL9fMADwp47prr1qkrTZs11f3cfDHOqGHDhuop1J6soObFdam/N1WIk8EHRsFrwni4ICGWCMAX6Yvc/P2e/wO8lStXpvWlbXyXHxI8nxQMQT+zzbdefZGcb5X62ZJPmuf/EN1H8kOVHusXvJoXsPRJ94qLir3SklI9H+t2blvnGM7JejrA9/le7/nG5H311Vd6nWkvA1KBZVlharUStpnFEU4IPZaI68RsS3gGx7Ld4jdLPCivWl7wENfwmCFb5xjOad8VBSIXoDJAbmXEWKFZFURJblXgrABmqalg298RwHU4LUBlcN2q/w5OH1PKUMQCRIxYgIgRCxAxYgEiRixAxIgFiBixABHB7mUCAegWpOVxyZIl2iNVRueE92fzcZz+WaJ/gwEBtPy2aNFC27DgOGiOph1+0qRJ+mQRZqDQrHs63XFGCQSgCZymc972wSRyZnXS7B4IgPUzhIN2avpj6bZDoRj/HAgAGPtEH4A9vwIvCASgKfinn37SZ3Ly8GsUQ4DTqeErStD8jcXz9Bb6wq1RMRCANnUjnB4kPIDPsQAnB0a49UkkvULkf2RB7t0hp2MGAAAAAElFTkSuQmCC;base64,iVBORw0KGgoAAAANSUhEUgAAADUAAABNCAYAAAAGlyzcAAAAAXNSR0IArs4c6QAAAARnQU1BAACxjwv8YQUAAAAJcEhZcwAADsMAAA7DAcdvqGQAAA0VSURBVHhe3ZtpjFTFFsdP9wzDJgOyDAyyoyYTImCiIAJRMQokQNhMTEwQPjySMfJBEgwfXCCoHx6okSUgxkBciCzKKmEP4SmgwAMUVJ4giwyLbAoiMDM9/ep3bp+eO0033F4Ywf9wuPdW1a06p85Sy60OVVVVRUOhkNQWotGoZNKe/z3Hs1I4HFYiz/KhMIUqKyuVyKDw3w34SAUTwHjlasJUVFR4z2gqEonIb7/9Jjt27JDt27fLuXPntFBeXp6QR8FsYYyAunXrxhkw0B6wctrjTguWZpqxZ9NS/fr1pX379tKvXz/p0qWLJ6DTUPTw4cOyYsUKWbJkiRw9elQuX76sLyCUaRBYw0Fh7yVeYaS8vLyGVSgzjihDOve0D3j2CwXIg+rUqSNNmjSR+++/X1544QXp26evhK5duxZdunSpTJs2TX7//Xd54oknpLi4WCulksSG04EJAbi35wYNGohrN22hePYLRpmrV6/KoUOHZOPGjdKrVy+ZMX2GhM6cOROdPn26zJs3T/r37y/jx4+X1q1bx1+yK3/6L5YWBCqE/vMEMkJTmF+iUNaJmLxpAlRFqqQyUqlasTQTHqG+++47ef3112Xv3r2yfPlykR9//DE6duzYaElJSXTGjBlR11icME0oUhnxKBKJuooCE+XtXeqxegF5lRVe/dpGrG6u1ra/HtK490PzI1XREydOREtLS4ni0QULFkTDLkP9hl6iB/Pz8+O9RBoUCjs9OdJ7tBaQEt/1977m53n1W73xdF+aEc+JcDn8p3kNGzbUNCe8hF0vqBoRhqjkOiAe4smzfNLtGpS0fJW7OvPRerhWRrRxNalYOxDP+k4snfK8W+P9WPtAy0Y9XyOPwAP++usvb5yygoZwyPUU5OsxA2WDkoLOjGlKH909eXENxNoCCAC0TfcHwxBIxgOgHOUJPvpMnXZj0ETMwhH3+hwTLlvKy/fMz9pQUyctgZKlm1tcx5OPT0C56w3VwQr5C99JSCrUnY5aEyruYw44M+MLQYN0HB3KFWpNKL8Z4xvY/tZtW2X9+vVy8uRJ9Y9codaEIooxNUIjzAx2796to/9HH30ka9askbKysljJ7FGrmoIQbs+ePTp53rdvnxw5ckTWrl2rgh0/fjxW2oOF+HQRFyoXUQ7/sLHF70MG0g8cOKDa+fbbb+XixYtqhgizbt06nZS6KY+WVV+rCuZnibyHrQdzAZj+5Zdf1LROnToVd34YZMRHK4sWLZJvvvlGAwVpV65cUX86ffp0XLALFy5oXZnylTPzY2oD05jVnDlzlEEWngiEGV29clUDwvnz56V3795y77336iyA/ObNm+sCr2nTpnLs2DH1LzrE5onpIj92zQowBiMffvihrpwvXbokZ8+elYKCAhk0aJAyX1C3QB566CEl0nfu3Clvvvmmaox10IgRI6Rly5a6QCWQZBMNs9IUwmAmCLFw4ULZvHmz/PHHHyoE5rd48WJZtWqVRr169erpTJqVABNnnu+66y71KZ5JLywslBYtWsTTM0XGQiGQWw+pSU2ZMkU++OAD7WX8hACAIPv37xe3RlMNkk7v+5mlQwC+o2bqiHwEzgZhYlS6gRP/genyinKNZvjOY489Jg8++KA0atRIy+Anjz76qHTt2lWDAAKaEAZdciSkZQ0XW8JR9x/EQ1DgwJgM9MADD8gbb7whr732mjz33HNyzz33aI8//vjjMmHCBHn11Vd1Q6RTp07XTYUol2tUIVSFq5cxLp36bRhAuLvvvlu10qZNG2nVqpWaGMxjRuzykFZUVCSFjQrj6yYD7yMY5XMlYJXzqHC51pWGmnwwwSxaYUosp2EQ0+LezzALRAN+g+DUwdXCN2X9lD6cUDTjLZurV5npwJiCefypWbNmGr0Yb3799VdlFg3BIGUB/vjTTz/FwzcaJfplJkRN0EI45CKY40gFqopdMwEdg0CdO3dWBpnXbdiwgd0quVZ+TSoqK1QoIiZjGXM9wn/btm2lXbt20rBBw6yEMhsIuzrCYcdMiF4kJZuOchUwPj3yyCPSsWNHXTNt2bJFpz1skoI///xTp0ifffaZfP/99zpu9ejRQzp06CB1CupomUwA70Z5CFWvwNmz84c8ZyJ5zowyHcnNDJkdDB8+XMM7Pc/MAt/Cx9hsfH/u+7Jt2zbtAIaBvn376oBrdWQCvy5QkJPAVYTNE5kyrBTgOzBFmGdqNHLkSN3C7t69u6b98MMPOi9EUwjPhv7zo56X7t26S/16zp/wa8fQzSgRpLg1gSPvniLsRbnY7l6gRA6BBkpLS+Wpp57SWfenn36qPobfsb3N2NWquFWstAc3UMTuMgdjrptRuL+Qk1Upd6IRshs3bqwa5EsKyxHw9NNP6349+fS87eBquM9AJl6pybYzPwTJvZ5i+2/OP/0zdmYVTz75pE5ciZCZ+u+NoJpSpeNPOmJ5XYV9+ikTMDTANH7GZBYiYKAhtMezasrl34gSQfffmD/Xrr7me5mXcLYa5GVlBASAzNGN0WROHwRB3vKiX5xid+4/P2WLZD0O/BpJVSZdoLmYUVNhdaVxDcUoEzg2Y3fUcX0lyfwpV4JpzUQPf3XU7aeMoO9Wv2yTXQIGIJCQb2ZplAkIDtVvhnzhQVOrmcgWxiQaYfbApgozB64Ik8vIB+s1hPJuavaQCeqndGFCEe3uu+8+GTJkiAwbNkzXXrkys1RwQpmcflmzEwgQ8dAG4xFL+tGjR+vUycwP3CrhcmcDSQDTfsaZ1EK3Gj6hamorl0BjLAahRO2Y4IEp9t6NkNSnbhVgCsFuNap9KoeT2b8b4Qif7TMcH25HOGNw45TTEHYaqfDOIiAg+wnXkRs4b0QWBPyUrFy2VJ6Y5njjnEV5+TUVSne28vLy3ehexxWo1M16dURdBVcTs3icPR3CfxKfc/JHPQnEIRH2P1y2rrLDhYWNpKhlke747N79X/n54MGaPRGQbGlR28SqeueOnbJt+3Zp2qy5tG3XTkKXLl+MrlmzVmbMnCllx8ukT+8+Uty6WFVpCBJD6DE/ks3jkqWlDdeMvxa+ex343wH5z1df6axl6r+ncjIzEi07cUK+XP2lfP7553Lw54PxLS1gzDpF6zUVEoUCOREiBaxuttaKilrqrOVfY8dKzx49vOOmMHThwnnZs3e37HCqPFF2Ul8A5BnZ89+BxA6yZ6ZdHDdl54qvk0zPQi4TuELetjNBw0D67YRUHWq7ymxnEyjimnJmqEIgKcbmhyd0tYC1LWwqSzG+II9vD3FNpeqFOwnIAeJCBcHtIPjNeFWtBpboDkJslv7Pwj9SqLTML1lR0pjb3Qz2bm34Zdaagsk0+qVWEFhTDHD8/IDzRxySAnwJ5CsgG/+mgWTVMSjy/ZeDJD179tQBMrFc4vupnoMgsFDMiOfPn+/97MCBXSIGPKYozz77rM69MEOqM+3Z/ZkzZ2TlypWyadMmPQHD3p81m4pZv1BQEBM33LSkNc71oFuW8GGazUmEQFMIOdPN8PnGSxk+23C6hW+6nN1jScI6jV/+8BWRZ0A5vi5yoJEv+ZTh+A/l6ASAdaBdLIT8oAh8qsl6ihMtfNNFO3xMe+WVV/RnSpx64VsUQvJtF5PjuBsf2ThSwDazfbPi91lffPGFCsTijs3OgQMHqsAcqeND+JgxY/R5wYIF2gEvvviith3EDNMKFPQcDdGjnEeiR9EQPsIyeu7cufLee+/pUp40TpZhsnZQkbMWzKr5aj979mxlkK+NfK3/5JNP1O/Q8LJly7QdOglzRVPUaaZ4MwTWFJXBOA3DPD3K8TfMcdy4caoFhHj44Yf1ey5+8/bbbyuT/ILODn/ALAexOFlGkMH00DjnBTkSxAfujz/+WOvl8AiHtVj8UV9QpH2ojh5HC5gNDRPNJk6cqP4Gw7t27ZKXXnpJO4CetjWOLQ+458zs1KlTtYMohyY43MhJGQ6KUJbDwpRFk3369NE8NBvE/AILRWWYDwerRo0aJd26dZNZs2bJ1q1bNSBwsAptcTaCfH5YBtOAXkZo8nH4yZMn6+r6rbfe0tOY/KCLdOqnHnwK36TzBgwYoIKh5SACgcA+RaWEdRom+nEk7plnntHnSZMmqa8QFL7++msNAjj4O++8o8zhU5SDYIy6MDdMk58Ock4J7UAc68GEycMShg4dqu0FFQjkOYYmxe6Twl8ZGsE3MBV+2IhJYI6EXTREmCfqMUDjK/Q6y2yiG8GFujg4wm8eCTT4Eoe0+G5VUlKip2QwP+rg+A8+xnlByvBuUMECD74Ug1GYg1kYoXEEwswwR8YtxhnK4V+YFqZER+DwhGY0TB6a4OSz/aiT71gcHMEPiX5EvcGDB8u7774bFyjnQgGKQtaAPQNr0PKTIVUeZkc6Qq9evVpDPCb38ssvayDiPRsngyCtcSoRMOJnMvHZkFgmFYh2WABHVRkW8K1Udd4IaWmqNmDaTKXVm0Pk/w8m465EB/VNAAAAAElFTkSuQmCC;" parent="1" vertex="1">
          <mxGeometry x="-950" y="690" width="116" height="120" as="geometry" />
        </mxCell>
        <mxCell id="S9Cv3rVsNq0ONA8z7l8G-58" value="" style="html=1;labelBackgroundColor=#ffffff;jettySize=auto;orthogonalLoop=1;strokeWidth=1;fontSize=14;endArrow=none;endFill=0;rounded=0;fontFamily=Helvetica;fontColor=default;" parent="1" edge="1">
          <mxGeometry width="60" height="60" relative="1" as="geometry">
            <mxPoint x="450" y="500" as="sourcePoint" />
            <mxPoint x="450" y="420" as="targetPoint" />
          </mxGeometry>
        </mxCell>
        <mxCell id="S9Cv3rVsNq0ONA8z7l8G-59" value="" style="html=1;labelBackgroundColor=#ffffff;jettySize=auto;orthogonalLoop=1;strokeWidth=1;fontSize=14;endArrow=none;endFill=0;rounded=0;fontFamily=Helvetica;fontColor=default;" parent="1" edge="1">
          <mxGeometry width="60" height="60" relative="1" as="geometry">
            <mxPoint x="650.3299999999999" y="500" as="sourcePoint" />
            <mxPoint x="650.3299999999999" y="420" as="targetPoint" />
          </mxGeometry>
        </mxCell>
        <mxCell id="S9Cv3rVsNq0ONA8z7l8G-63" value="" style="html=1;labelBackgroundColor=#ffffff;jettySize=auto;orthogonalLoop=1;strokeWidth=1;fontSize=14;endArrow=none;endFill=0;rounded=0;fontFamily=Helvetica;fontColor=default;exitX=0.5;exitY=1;exitDx=0;exitDy=0;" parent="1" source="3Y24ioC7CP_jq3oPdULe-71" edge="1">
          <mxGeometry width="60" height="60" relative="1" as="geometry">
            <mxPoint x="1170" y="470.00405940594044" as="sourcePoint" />
            <mxPoint x="1050" y="500" as="targetPoint" />
          </mxGeometry>
        </mxCell>
        <mxCell id="S9Cv3rVsNq0ONA8z7l8G-64" value="" style="html=1;labelBackgroundColor=#ffffff;jettySize=auto;orthogonalLoop=1;strokeWidth=1;fontSize=14;endArrow=none;endFill=0;rounded=0;fontFamily=Helvetica;fontColor=default;" parent="1" edge="1">
          <mxGeometry width="60" height="60" relative="1" as="geometry">
            <mxPoint x="850" y="500" as="sourcePoint" />
            <mxPoint x="1050" y="500" as="targetPoint" />
          </mxGeometry>
        </mxCell>
        <mxCell id="3Y24ioC7CP_jq3oPdULe-45" value="&lt;h1&gt;terraform&lt;br&gt;ansible&lt;/h1&gt;" style="fontStyle=0;verticalAlign=middle;align=center;spacingTop=-2;fillColor=#d0cee2;rounded=0;whiteSpace=wrap;html=1;strokeColor=#56517e;strokeWidth=0;container=0;collapsible=0;expand=0;recursiveResize=0;" parent="1" vertex="1">
          <mxGeometry x="550" y="560" width="200" height="160" as="geometry" />
        </mxCell>
        <mxCell id="S9Cv3rVsNq0ONA8z7l8G-105" style="edgeStyle=orthogonalEdgeStyle;rounded=0;orthogonalLoop=1;jettySize=auto;html=1;exitX=0.25;exitY=0;exitDx=0;exitDy=0;fontFamily=Helvetica;fontSize=12;fontColor=default;dashed=1;strokeColor=#66CC00;strokeWidth=2;" parent="1" source="3Y24ioC7CP_jq3oPdULe-36" target="S9Cv3rVsNq0ONA8z7l8G-20" edge="1">
          <mxGeometry relative="1" as="geometry">
            <mxPoint y="570" as="targetPoint" />
            <Array as="points">
              <mxPoint x="625" y="542" />
              <mxPoint x="290" y="542" />
              <mxPoint x="290" y="570" />
            </Array>
          </mxGeometry>
        </mxCell>
        <mxCell id="3Y24ioC7CP_jq3oPdULe-36" value="" style="shape=image;imageAspect=0;aspect=fixed;verticalLabelPosition=bottom;verticalAlign=top;image=data:image/png,iVBORw0KGgoAAAANSUhEUgAAAJ4AAAA/CAYAAAARxXEwAAAAAXNSR0IArs4c6QAAAARnQU1BAACxjwv8YQUAAAAJcEhZcwAADsMAAA7DAcdvqGQAABwuSURBVHhe7Z13cFVV18bXTUIPCEgN1S4KSA1gr2D7A9SxjZ+9vyiKiqOj8zJjnbGBOijYe69YQYqKYAUVG6AUpaioSE9Iwn33b52zbk4O9yb3Jich+t0nbE/bZ5e1nr322uVcY3EHqUUkEq8km3gs7uKVP49Jjv43FXiS+mkW/wTEtmzZEt+8ebOUlZV5N2Ixx5HouKgp+ekF0yUfg9LOkc9QkXjbUsyV0D/zoDECt2I53jtkl5ubK02aNJYGDRrovSzqB2KLFi2Kv/3227Js2TJp3LixkqO0tDRBxJrCyJaMzEY+JYo7967d0V3zx3nFILJ161aJu7A1SGJ36j310KhRA8lrkCeuUUlBQSc56qhhsuuuu/hPs6gPiC1cuDB+zz33yHvvvSc77LCDkm7Tpk3bkXic5iRIWDGUE4/0LMUw8VwsadqsqZSWlEr/Af1l1KhLpU+fffxnWdQHKPHuu+8+mT59urRs2VJatWoleXl5kREPJCNfOcncEdLluO5VT8sJqDfinFvw0tDgkw9YbEORcx2Ki4tkzZo10rNXT7ls1Cjp17+v/zSL+gAl3oT7Jsj0adOlZ8+9ZfjwEbLXXnupZYkCyUhnSBAsSDz/vvfMD/oq5146dLPxre6mpekeeU89rF69Wl599RWZOWOmFA4qVIvXyxEwi/oDR7wf4pMmTZQpU6bKoEGDZOTIkdK7N91SUJU1RzLipUK5xQshVRKh6KtW/SYTJ06Ul19+2dWlt4wefbn065eJxUu/rB6ildX/B+Q4++HEjHUjZCrwLLKoHlz/5pNOPXSIZ+QLnmeRRbTIUec97s+bbcOz6LqQlN1nJsj2aP8aOMZBOheUfD4BFdFr2QYNVYVKweNwqDHMumetfF1BiRd32qso8ki0mUUWKeEGFxDOES8GAc3q/VtA7cKDJmtiwZBFXcMRr8wZOCaLPQVEoQamTsLTJ3Yv2TPD1q1ufF3mntWwELHAum86oDys2JSWlugyG8eSkpLE0iFh69ayQLm99Wy7rKxOvPv333/LX3/9pWmHkepdu594FoiS6p1UqO341UFOPFbsrB0CcRm5HjaK7KzgurzlV8BTbKmXgZ8Jk8AE4hFKtngKjwKQD3cxh4npbWCF8MK6dWtl/vyv5bPPPpM5H8+Wzz//XObNmytz534hX331pcyd94X88MMPsmHDel5WxONmSWNadupmk+5abya4Hf7880956aWX5JFHHtH1cH3my8RkFLxn4NoCCMazBlHVOwbeKy4uFjaDQH6ugwimpY2szCu/hhRp1hROK+WFiDJpKsea72+//aYtnkEDS3HqPkJwKuKO69avk19+WS5r166TnNwcyc3L9eJEhmCtON+2lj8t/knuu3+CXHvtNTJ27Fi5/vrr5YYbbpD/jv2vjLl6jFxxxRVy17i7ZNGiRbLVEc4jHYA43tIi9aNO1DtoLan/rFmz5J133pEVK1YklEzgHRqGG1JpGsCeUUwjr147KClc+sgxLzdP3w+C59oAII7/DmCHzqpVq+SDDz6QL7/8UjZu3Og/8RDcnWQNSMvBn1+eYIgCjnhsF8pzVs+rRBQ6p3AInxb+zDPPaItnGSvR0hCqi7P277Xy5ptvyqOPPirff/+Dex5XIUUHhORCYn4yGMrRonlz2W233aR3717Sq+feuo1q5cqV+mznnXeWvffeW7p17aaK3rhxg2wpKU4QbdPmjbLm7zVSXFSs9TMFlrjumoZXUFAgxx9/vFx88cWyxx57KGnM+nAkflFxkcZFZlyXlVa0QGvXrnX5bNJrsHnTZr2GJMDkjTUjnS0luAvlFpj7kO7WW29VWaMXexfk5+drPuvWrfM2iOBWBGREXcMkrylyL7l05Ni58+bJksVLpUvnLjKosFDat2/vP64eaMUEWjlLVygRBXbu3FmJZRX55JNP5MEHH5TZs+dI27btpEePPaVp0yZ+KtXHhg0b5IsvvnBk/l46dGgvg4cMkY4dO/hPDeWCbN26jRQOLJQjjzxSDj74YGcdfpWFixbKsKHD5PLLLpfjjjtO+vXrJ+vXr5cFCxcob/Pzm0tRUZFawUULF6nimzsCo9Cvv/7addFfubo0VaLR6JAHJGzSpIl89913smDBArU8v//+u8rhxx9/VDKSRqNGjTxSOxIsd73BrI9mycKFCzUPyjDP6euPP/7Q3URsZeMez+fOnatuAtbN0mIf4vz58+Xjjz/WsnLdsGFD1TGEI030g7w+/fRTWbJkiVraJk4PxEtGuihImIeZ98ay7k8TjIbZCI4CInyOtCjbjMk5QBkmCCNk7YFaVrR0BrpO7fLcyL7EWRu1Fq67ouVjNbxyxWTq1Kny2muvydHHHC2nnHyK/Pa7tyY8/+tvZKgj6RlnnKHW6c4771RlXnfddbrj5/HHH3fuxC9yzTXX6Hr4G5PfkA9nfaiWFIJADAgAMc877zw54IADVC6z58yWhx56SC0U8unVq5cSbc6cOTJgwAAZPXq0XtPAX331Vfn111+VtFi4tm3byrnnniuDBw92DXu2vP/++2phly5dqv4mu5CGDh2qjQAr+O233yaIhs5OPPFEOfroo5Xcppco9ZMDQcrcSNKEzHVy9WQO0goCkvNXGfSVqArgoLVJI73Kap2X11AtcUGnAqecBrJs6TLdcoU1+nnZz0o2iAaJGExgqTp16qTKRVkqUz8gY7pWrDKWEctz8skn646gxYsXy5QpU9Sa4RdDciwjhLvwwgu1q8ZPxNJCRBrw8uXL1WKS7vDhw+Wqq66SfffdV62buThYcQgIubt27aqk6tOnj1rcJ598Ut/n+rLLLpOzzz5by/n0008rGZONxKNAjmvYrnUT8E9o5W705JSAdxCh/usUQUUTvJpUETgAje+17hx/Q6oOJtxxp512knaOKAwYIMeSpUtoTdKhY0e9R8A6QUTitmnTRtOCFASIQnmwLFz3799fSXf66afLIYccotaFNCAlXSckw2KedNJJShYsKu9gDS0dnpPG+eefLwceeKDmibWjG2UKByuHZe3evbt287g7EJRrulXy2GWXXeTwww9XUvbs2VPdIhoB7gLvI4MorR1w/Q9dEImWJ1ydLEzJJmQK2qFDB+nbt69Whtav8XwN8xxBIxTi0M3QinUIrzEiQrxi3ZIj9FyFbPdirustcQ2zTDoVdJbOnTrLRnwvZ2lWrFjpLFtnGdB/gHbPWCeUyXmXLl2UFKY0CwArQpwdd9xRu0a6tnbt2iV8RCwnVg2l84x0kC3POzqSm8vCPVwErC8j53vvvVdH49OmTVPr1qxZM0+mLh5pASW/P1qG5OSDVXzqqafkxhtvlJtuukm7X8qG1aUsvB81YJ2DCdr/zMblY3RMF0Y4hEpFUMyee+4pV155pfotbXZso/4FwVPaCiXjOeecI9dee630c+TD0UaZCCMaWL0MnFOzcKgI3AFv+z1+Z46zLI0dQZo4ZbRxXWNH2bhhk3z00RwdkHXr2l2GuMFL69atE4MEznfffXdp0aKF7zt60yYWGHBAHsjBkWsICHjOPXw3SINMGW2SBiRgIAGJICgkojucMGGCfrqAPLFmNGTSoMsnHmnQyLF4WhamrVza5IV1xXLS1eLzHXbYYXLKKadowB/lWa0QDyEbMiFaEFQMUClaH1Mkd9xxh9x+++3l4Q4v3Hbbbep8jx8/XsaNG6eBljpu3Hj37HZ57PHHVHnbC5WJmPp169ZNLQ8Kp650Wfvss49ad7qnn376Sbs7yIdyDUHlcZ4IWPjgtQsQEd+PdBgwMNpkAIJPSIBMkIbyYJ0YxVIG/DOIQ5dpxCLQkCEtRITEDHQgHFaZ8kNyppOGDRsmhx56qFo7SEqdmjVtpvlEDW3uJKxpu+CdlzvE6QDi0fpMEG+88YZ+wzFjxgwdTX344YfOQnykoysC9/myzcLrr78uU6ZO0e5i8uuT5btvv/NTzgxB5YWDR6lUIQD/0uQQBErEktEtokysCkTER0JxgPvcw88ifnn+LukK5fGukXnwvj0jDVwUSMGAg4bK1BN+m+kHYMnw55g6YnT7xBNPqKytOydAZLpoLOLPP/8sDz/8sE674MsVFhaqBWW+lYHGAw88IHfddZcOTPBj9Yu/kByiQO7IkSPHModDa+3iHE/m8WC6IZ1METBAGKTDfBItCr8NhXCk4hwZ7dmRgLOLAFq1ai1bireokAYWDnCjvB4uby/dTOtN3jaPh+UYMmRfzVO1nDSAuH73gS/HAAECofgePXqon2Wg67HJcKwM3SyWCWuCVcEaMh3CKJXuk64R14I0GFkiB/xAullGq/i4+GL4U7gapAUZOCIXyk+jhkhMofA+9eK43377qQxJizpjbWkMlAsQx8qHBSMNLB51Y/CDbnbddVfVMXmjO4iNFWQwQ3kpW20QL+Yc4jhzUcxR2TcXFNxaVKaZYu3uv/9+rcgJJ5wgI0aM0PuWjrVqbxDh5dGgQUNnBd93Le4JvcbvGzFiuJp54POvSliZ6XoqfnMxWkeDqWDvAcqJ/wmJsBBYFBpDECuWu+dFFZ8Tn6kUCARZeAZIm/JgeejCsE6kzzWE4JqGC3kgKcTAWkJw/GEGAKTFu5CKOUECXeqll16qDQoi0Vis++R98mS6hGvyAOSJG4MVJU3u0yXzHvlQfhoL7+Of0ljMqESNWkmVFopFYDRG66FV0R0RONewm390gRWTlk6BCDZIAiNmbcMaBUfyx+JTbvy0MOlAx4KOsvNOOyeeU1/KjoXBQirpKLpffNLDsmM9SB+y4IdhHU2xvA+JIS3EgIjM4zHK5Lvnt956S1588UVdgeC9gQMHav68T7q4AAwqyIsykQcWDfKQJ4H7DPioG3lBOu5DQLp20sTo8K41iNpCraUM8RAeRxQaDFSISlvAj1D7h4AY6vsKc7G9kzoA5bIj5atM6FqPgO+DJaGuHCEh9dA4flrUkSP3eQ4sfa2zH7hHlwg4Mi+HpcYvY7rjhRde0Gcs4dHtEod3yAdSQV6ukTl5ci+YZxCWp4G4Vp+6QCTEo6Jm5QAVMOLhV9h9A9fBe7yLg0t8FViDPE8xyCEDWUQhOFMUIaiYILhP+e053RMkSChP2473jHhGSOoEOQD37P1wesiB+JAON+GWW27RHTJMTbEMd+aZZ+oAJyhDzq3M2ph9WRgB7Zrnlo8hfF0XiIR4kAthUQFMNAEh4DcwHYCQw0IKWgf8GhxwfJJm+c20i8bHQVYRcCkjoCBTlpI/CbgfVC6gHtznPX3mtxjisIXJtjHptYtD/YjPtaVn+dHVWjp0p3R/Rx11lE53MBgx/ys3x5vns7zDZUoGK0M41DUiIV5QaPgK+Bu0bDZPfvPNN+r8GvkQEhXlHMISmD5hpAYRCzoWqJ9j6f0TQJ0qwOlRlen+aT1MrxEYFiOJo0siXfK3Mth5MNRHREY8a2040WwhoitgVIZTzLwSoz3rXohH94Q/xxCeub4li5eopezVu5cb6nd3CjNt/UMBL3yS1AoCSZNPZXnVRyJGQrxgxekimJ/C+aU7YT7t2Wef1ekarB9Ew1nGGk6bPk23/cyYOUOnJ5g3GzJ4sI646hKmkLALYPdsdYFz87/sOaEqJKyTz4103gkjSKzKSFYVUr2bbl2iQu4ll1ySmEDGWjF5mekEssWxI34Jfhoz30y2EiAdqxq2YZGVDWbk2b5DdzRwYKHusuDnxNh6VBNsO4E8xJ9ATg4TOITS7U7O36RxMN/GfCQT21hoyskgCCJpF8pr6ejKiQXZhGWZjmyDSBW/OunQgGhk5tKkIl2maaeLSIgHiGeBSjA5irJRFESwPWusEzJzzwQnimZitH//Abr1p88+fZzDzFTGtkrKBJkSj3JgzWgozJMxfzZ58mTd5cEHQBARS06ddFI1NKMNEflXFcJ1qk4d7Z3gu5mmwyoLjZ9eh9F4k8be5oFwOsnyigqRdLVh0IpQFDse+NbgrLPOkmOPPVa7YO4zamPieOgRQ3Vq4IILLtCumWkUPqaBBHUJ8sPS4Y9OmjRJd/hyD6sNiVlPZjUGEjIYqg1FVAfJyJIOmG1gXpD1XxooxqGu4Sxe+VptTSxeEFg8yEdgVp0VCwYcmHdaGkrl+4bT/u80GVQ4yCnY216dl5frRsOppzHSRaYWj4ERmx5RBm4B24NOPfVULSMjdAZGuAmUkdWAVi295TAUiNXgOwy6Zqy6TYUAumrKwDQRAbeCdLCs+L86ZeT+Fi9ZrLtOkBvPcEvoFVhCw8ISDyA/eg12xpAWlpilOksLuVJG1lspF24NeqX8zDLY2jE64OMfys/yGEuTOoXVqKFaQ9JmbyHv4moA6oReaHj2HFBO8sIvp+7p8sVJqHJHxfr+TAgYjEthqXTDBg0TyzAIkIrSzTqXVoWvP0dbA6TyUdIBLR7i0f2zpMSeNtZ4AdeU2wSrvlFZqRKNXTXsqGEeEsVAcvtgCD+XZ88//7xOMVFXSMdaKcpm9YG47du1l3fefkdeevklXamgLHzMAwFY2qJHoOGQPgpmLZzdPpAMWbJJgN6EPCkf663szcNdWL9uvX7tRrn2339/XTfHslNuWy9+99139Z227drqPj3KzBo39cMFgfhMZLNDmvlEiM43G5SRzRCQcPXvq+WWW29RmVGmdLhSK13tPw0IHkUgaHZtQJog6AVYNWDzAiRCeSxfPffcc0qAgw46SONgHfhWAevF3CXWBQvGt6xGapRDfnTf6uduLdNvi1EoVhoysOuEXofGwACMdCE3rgBbyiDbMccco+4JFpU8sU4oHNJBdibuBwwcoJPOWFusORtVsXpMQtPwsfR8x2GT0pDpscceU4Izw3DEEUdog3vllVeUjJQBI4LVpQ5Mk9Eo+caD9JBfugbgX0G8mlg7AEnojuhGbAdJECgIK4XlwPKwEwQlcY4VYQMmu6zZAo/CeWbdG10gmwb4tpYPcU477TQlDoTEJYBokJe8ITXP3YAvYTWZCyUtLAuExqphKdmdgqXr26evWie6VeJBctwFCId/ffWYq9VqQlIISP2wtrhVlA8CUweIN3PmTLXKkI5vOFim43sQBlVsRIVwQFdNnEywgOyQufg/F2t69Ab1jng2aKBgCJvAuZrlmvWyNQbKxBLQYrE8kMBAGbnG6uA7IVxIgz8HgbAWEBWFdunaRRWCJaN+KJZ3USpdKgrDMiAHrCbEMxnQRdG18px4bGeiXNZ1kSbEoitmThQrx8h77bq12gAoD2UkDmTHkmleTu7777e/fkHGBz3N85snCELalBPw8yFYMWQAidgBA/BpqSfps98P+RCHMuG3E9esJ/VVfaYB/byxtkEeCBsBmaPMdTBsT2BZ2KYE+bActGy+5gcoBkvDHjh25aJc6oPweYagIYrdQ6lWn+C1yRllIweuURQKg5xBGZEm5xCTI+9wJPAOJCegcLZC8f0rBLE4xAfkb42IXzrA4lEe/jcMFg99kB8+NmkTeM/SsPLTCCgbMD0Sl3jUgTS4Z+9VhTqxeBSKAjGFgkOKD8M5BaVSppTtBYSKA43FYcSIHzV33lw953sHfDl8JPwpFInS6XohKF0QlpARJiM9um0sBBaDeqM4FFkZqqo/MmIJEoKTHjuD6QKZcMe3ZLcz5YGIjN6xTvhp+K1YsanvTZXxd4/XAQc/t8EgAtKQLnFJk2vyANSL+ph/yjmzE9TLeir0SaCO1UGdEo+pCb4Nveiii9RMWwuzlrS9gDCZY+RDF0iIM80HSXx7wEdLTCozMMBPYzs600MonLgoky/xISa+Hc+wQnSv1Lkq4iGbsPLC11gU/D+6dRx8Bg/kR7j55pv1WwzIAdkZvUIQpkuIxzcYfE9BA7FdLcTDX6XbZJTMQId08QOxnDQgLDwDDd5lkMTudMpAw7PpIQJdvzWcTAxIhW8uks3jGarLbGDCRRG0Sro2M/G1gUzn8SAGyu3QvoPkN8/XqQwsBZaM+1hDvkHo17efKg7CYfVoMHS9TJEQn+4axx2LzooAFoe5MkbKjDCpN8piMMBzRsOQBNlDfohF48RnxKfjXcqNTtANxCFPBg+4BJYOW6aY7kC27IKmMUMq0mVwQr48p+Fg1dAD5cDa2YABwpE3zyEaFpNVJvJDfgxkIB5Wkmfkywid/Kpa+UiG2IIF38cnTpzkHNb3kn5zYagtkkSBcFlRWibfXADSgIB0lQicNGjdEA1rx8jOYLKAoJAOAtAV2a8HoBSIxAiXdFCe90FTq8Q7WAoUzXQFBMHitGjeQrfVkyc/j7Fy1UptoLgAWCnWjNdvWK+jasgHwWhYpB0ciUMcCEc9IArPIQh50ZAApMZKQjyeQXC6a9K0CWJzG+jKqROg7jRo5EV9zIqanxfmSSreZIkXAmmxG4X5NWDCTCVQ4pufypH7KIH1XNKgq4WEWEmUal0v8bkmLtfqLzG8559LQz8BcOc8I2i6Od5vB3JOfADJSMd6ECsHxOY+gfthYPFIF9KEXR3SsDKSD0cLlpblZdCf+wgtAgTjhlEnPt4/Dk5OKMOIYUCAFgCCR8kEIw/vmLK4xzNIYcrlOYCMPANYVs5RnL3Dig7nxONd0mBQoHD6NqUTB4TLZMTkOYH7wYAFy2+WrzujwyAt6p3YNY1AHCCXpW95UDaCySUYKkOWeCEgMARqggtfB8E9FAQpzKIl4rkDy4R0wUzTBN8nLl0n7wElCWTC0vKjjO6o5HNKJo6R3/KDgJYeXZ2lA0iLa4jFkXhGtiCIp0TetloeKI/7g2z8SqtaNJcWZGzUsFGiXNzTkOGSZ5Z4acCUHIYJPQzuKVnTVIYSxMWFbGo93DnvmyVJRhyDEoi8/LKEywM5jCCGcJxksDIYMbnWeynImizNZOUxZImXJtJRVqYwMpmCNI/os6mA6tYjUb5KkEnaWeJlABN+OkrIFJoe/2opfVDTNNN5P93yq93Mdf229dnAnEf71kBD8LwaIRmSxdN8Mg3uPSszwSptjnp9RVg5VSmruogi3ajLpr+doh/czJihE5hsQWcyEaU53lbM0J1WtwDJ3oMwQeh1co5WChbCg2COi1l7tgixCzqT6ZTtgbAcDFEruz5Bicf/Gp5PDJlItN/VQBhUPFj5KElnSEq+DME7wfeYtbeJXeYkR40apctB9RnJ6v2vJ97dd9+tH7YwmWhzSjaiCoLrKMmXjHTJFJAOgu/hNmCx2XqEpRszZowuO2VRfxBbsWJFnIVuPnCxyU994JOMkCAE5OGf6Vjv60mih0xFnFSEDcdP9X5VCL5HPbhmeYpfb2KdFfchi/qDWFFRUdw2OeqNAOGMLFhAFIlqPfXynYRHQILeT86rBFIRLwqEyWpzWwArzsI3E7lZ1B/ESktK46wpKrF8Bdq6G2ThnhLP/eHCc3R3NeS6v5wY64dKQ/+d2iVZOgjmz0I3o3VbqsqifiDmfCHHrXKLwTmKg3yYNa6VfDxzf8CI52jm/sqJR4yklEt6M2IEjZ7Lz8iXJV79RKwC65KAhyxD21ZGZvoIscT/9dER1E9BScqF/itPFnqmQ75qW8pwfi4dS4tFds5tjjKL+oEqiQe91mwSWfzLRvlr9UZp0zxfduneVFru4NlApSEHTcWp3+m7iiQTCBOt2sRLgmAZokw3iygg8j80D0G37tE/NgAAAABJRU5ErkJggg==;base64,iVBORw0KGgoAAAANSUhEUgAAAF8AAABeCAYAAABFEMhQAAAAAXNSR0IArs4c6QAAAARnQU1BAACxjwv8YQUAAAAJcEhZcwAADsMAAA7DAcdvqGQAABBDSURBVHhe7Z15bBXVF8fPe6WI4tZWEVFx3xERkE2WRlTigooxYjQGCGqM0cREEyFB/8A/MFESt78gGhUaFEtADf6URYpLFJWlQEERjQgqi0ulVqG0nd/9nDfnMX08mvbR9t3qfB+Xmbmz3fs9555z594z00RjY2MgDolEgoUEbrMxaJQg0OwYLUAymdR0OMAl/DY0NEhBQUGY6zh3O0C46eBWA/dzQgkzmsKEFEW2vP8SrP6H4wF+SXAaFVTiwIEDQZcuXWTbtm2yfv162bJli/zzzz96oSZCCZF5A7YPd9P/MqKcFBYWSnFxsQwfPlzOPPNM1X4EkNi3b1/wxx9/yKxZs+TDDz+UrVu3yv79+5ttRlHExKeQTSltCdndu3eXa665RiZPniznnnuubieclgdvvvmmPPnkk3LcccdJnz59VEoxWofDkQ+cgsuaNWukqqpKHn30Ubn//vuld+/eIrW1tUFpaWlQVFQUzJgxI9ixY0eAE45T61JzqKmpCcrKyoKSkpKgb9++gROEnpOsq6uT1atXy/HHHy9Dhw6Vk08+WaUWp9al5nD00UerycHcOOVG4dWfJnEGAKd7wgknqHOI0XZwGi6uUyPHHnus+lG6m3CtvR4kAFoiwRitByR37dpVlwiCzgxLUrKx4WB/3gQRo32QyW/L+pMx2gUx+XmCOtxwPUYHIyY/z4jJzwPQ+ljz84yY/A5F2NUMFzH5HQrHevgcm3CrMfl5APwzmBCT395A2TEzoaYn2SbDJW/Jz3wUNzAmkrmPwSryOxMS7pdMJA8OptngmnWFmksdDe7ZUN9wyL0Zm2LSv76+XoXgHRy9gdoZV1a3aNRt6tDop+ZHCUajGZKFeBSD0cHo6CvbBV0KdCicdc7N1jr8gNHtFNyV1SvyISxKmk30PPfcc/LszGdl9ZrVTYhXuE3yvvvuO3nllVfkmWeekU8++eTQ43yBVs8pSaLAL/IhzBLa++eff8pXX30lixcvlmXLlsmqVauymhYEtnHjRvnggw/02JUrVwpBAYZMoeYL6mdZ6oZrxSx9xd9//y2//vqrCuGvv/6SXbt2qQnKBALhuN9++02P5bgo+QYTQl4EocQHKeKx90G9h2YnFUCXtt+2DiA5m+ZH8y0iDJPlG9LkBw2OeJJHgGxzlmZ+coEKMRQcyNzOF9IlSNkdv83OvwqOcLqcdDd5vArEM4eLajgdVS2lBWBCTjrpJA25IJ166qlpExQFLYRAr7POOkvOPvts6dmzZ5MojFxbUFsDzUcAgfsvCFyXee/evcFpp50mp5xyipSXl8vll1/eoiba1hWye7LEqTLLz4MTS+w3ZBJ+QQxM5r05jqgwnDJLQjOIQyICD2FxfPScjhYGikQdRo4cKRs2bJAlruc2dOgwfzTfCCI5hZDt27fLTz/9pOsQSi+GvG+++UYTAb2W6OP//PPPSj4VRWBsE/jLOdEeUkcTnw3oGckbzTdA5GuvvSZffvmlkobpsZZAAt26ddNYGEAvB80HRx11lLYMtJ1Ia4QxePBgeeyxx9Rk0SLygUzNX7pkqUYHeudw0fDvv/9e++mE1UEgpFMB636yTT4JkiGf/QiJc8gDCIYHM7Sf/b4hTb7zAeoQ8g2ItD46Gk4II860pKREnS+xpCxtO5rIKyoq0vBrQOukJWC6fCQ/bXZ69HRm561y6Zdns/PFF1/I008/rQGlkE6A6YgRI7RMEKgtIJHSGRuRpSyWwNdffy3z5s3Tp16cLmbn6quvVmHmA5Q5q9nxQdszgYOlsNj1c845R+02iQIPGzZMl6QhQ4Zosv2DBg3SdNFFF8kxxxyjrYghCu/gdATF8Y587DTEQxzk08W04QNL9Q31mjLz0TBaCI4V8snDP7D0CdZCk9h6n4BTNceqpsT9mDAxk4NThcyoGTLSLY+l9e9Zt/Ee3+BdbweNJaH1tIC6A3WSLEiqNpMKkqmXySBUt92SFCWb8zBdOFu6nzxwsd83JM3u2FhzvkGPBUcLcXQbGSaGSGuqXQpThBuM/FQbSWjLoJtKl5VrnHjiidKjRw/vyKc+6RlcX6wPZPG6JBpLF5Gey7fffqsabQJgaevkAxwY40I82VZWVqoAME+M99AN9VLzdS7XQavigffF3DA4Blk8RG3atEm7nzU1NUo0mh0FeZZoIXY8vRy2L774Yu1imrB8Qtrh6iOIB+XDjl955ZVy4YUXqu2nv79gwQId+sCWo80Iht4QCVLJg+yPP/5Yj/3hhx+05TBkcu2110rXwq5+kh8uvcL5558vY8aM0XdVaQkQu2jRInnppZdUGNhzHrRwvrQOxoFeeOEF3Y+ZQmiYrxtuuEGFiJ/wEd4NrNEv59qYjIULF8r8+fN1dJMhAxL2myEHEschiD179qhjxjTROhiCgPiJEyfqcANjPTjffGk/3V/KZU+4BAPwsOid5mN2AGP3aD8EXnHFFWpa6P3gfNetWyfLly+XpUuX6pvdO3fu1H34A/zFXXfdJXfccYdeA9g1W6JUHQnvyMeekyAKDUZbJkyYIHfeeaeaELQXQUAoT78ch2m64IIL5Pbbb5cHHnhAtT4662XkA473RQiudNYU8++QjJSoecBsDBgwQG677TZtBZMmTVKfYMfgF8aNG6f5CIgve+hb9O5nQvQVrnRUAg1xyZNy6uNSSC4E4kDPOOMMJRYhXHrppeoTMDWYGUY+aSGsc2xngSM/tfBB89MIi4IA0k+woTAwMQwTA7QasjE/7LeEwKIBwL4iZRR9UfkMGJlAbXUYjYzWIxBsuY7/hP1/ED3Hd4T6QcHdY1aey2ykZSOQbQbYbIjZQDcOTUcQ5mB9tvNRuPaZml5LpJ5xvYNqfJgMCCKaRyuIEp95vK9wJTbyHTqHwjRpFdF1Izyz1fiK0OZ3HkBs9GmVQTM0vzNoeiYc+WFz5T8PFAZSm0sMmDFSyZg/zwDnnXdeuvcTReZ5PiI9qtlZ9IauJpPkTz31lMyYMUNHLRlE64zodGYHx8q0YL9+/aR///76NEtPx3ctzwYvQ0eag9l2WgApG9mdRQCdTvNbimhLyJbyC6Y8I3O4MToKEJ/ysf9azfcXTt1pee5fm5DfkU+U7WUyOrQO4fKIyafA0aixzoh0HfiUQCiEzNRmCJnP2exEC2QOjG0GvCw/eoyvsDKSVHn4HabMdtyRgO8uGFjNiXwdLw8Jt2362tbfJt9CO3wFZDPna4G0lF2HKRoPCsRS2+KgBHIi30yMEU0lCOH4/fffNZKASDOGfkkc6xus7JSP4QpIV2U5cKiycFxbw7Q+J/IpKOEYaAzrBCnNnj1bxo8fL9ddd52MHTtWHn74YX1ZzQTV1oh+hjgbmrsnhPKyHEFWKAygHg2NrQslp/4tVS6OChzrlErXXcqJfDTFSOU7B2+88YZGivGof8899+iLCnyE4vHHH9eWYO9UMQNFq0BwVmjLJ48lAVI2OwUh9j2dTCi57h+tjnNIFkrIPoghj3Xmerk29yLt2rlL44FefvllDUUBCITEhA0CoRVYHteh3FyDulA2Pcf9rBwtRigAkb2SUygXNp7mypJPsvCJFaIIHnzwQR1l5HUcgpveeecdDVxlLIYYm4qKCo04YzSSCW9e1cFczZ07V6OTd+/erRFnBLcSkcCLzxUrKjTQqLikWOMwIeKmm26SW265xWlOUtauXStvv/22XpdAKoKRaH3E7BBsNWfOHCUYEnm96Prrr9dyLFmyRH755RetD2W47LLLZMWKFfLpp58q+aeffrpO1pP/+eefaz6k4xuo4913363zxPz41xqg8Y1BTW6aHwWmhUixvn37aogHQ728ykMLmDJlikbCVW2sktdff13/KA5RCFQOUmgdVJxPtPD6Jy2KsXoTFJHGmzZvkvIF5Rp5zH7eVHz++eflxx9/1Htj7hAw96T1vPvuuxpQRd6rr76qn4BBiChLWVmZfPbZZ6o0RL8hIMrDOm8tEm7IPakLZokyIzj+jgzhikSacQ+EDKz1thQMKfD/AUymfvwiR6BJwOLgeeXeHBf7IJ3gJZYVKyv0/dqrrrpK/14ImkslIB/zwPGYjBtvvFEeeughHZ/fvHmzhgByPbSNEUwEOnr0aG1tvN6JNmK3mVAhnAQiEQrk00poEQMHDtRAKv5QzKhRo7RFMiJKmAnaTR7mknMwoffdd5/ce++9mk8MKH/nxMwX8UJEwvE+WGuJBynyHdyCWNOcybduJaEbaFLd/jotIAJgiXZDDiRDFNpFVBkm5ZJLLtGKYxYgHa3EbJFo5pip6upqbVEAwtBGzmM/94MQtBJ7TuthnTxi+xEeJgXzB1G9evXSkEMEywt0KISFnDAyyjVoRZyLOSwuKtZWDMH4LBQAs8gf89HW7fajNNTVlLAlsHD8QudXkoluuZNPgSAZ+wcZlesrZcf2HVooCvzee++pecBRUXAcFYTitGgtEAZJFJ59VIRzo4l9XJv7sM06rYwlxGE22IfmIkzKQuuCcASIgiBgSOQefDYARWCda7CkHFyLsiAEBEavh/hPzrOuKMdTHn0OcD+2W4uUmEz/ndLqMgdAIoQQ1YxGYiNnzZ6ljozm/uKLL2pFKCQmg2NxzNhNbDyCIB+CEAYaCAlsY0ZIbANr4iztvuyjV4VWcy5L/A0tjXtiIngllL/9hcOkNzZ16lT56KOP9FqQTRkwT1y3tLRUWwt/toqXK95//31trQgVAXAMyYinnK0Hqk+iPu4aZOUCtIHCoG0EsrJNgXF4FBYyZs6cqVN82HJ6LDgtbCtNnqnAm8ferNciqJXWYV1FtJuKQyoazLXIA1Sae9LzoPeC/8B3QCpCMbOGA+ZZ44knnpBHHnlENRyBYH54RwsfgVAQDg751ltvlcp1lao0CJFrEf+JcuELEJaZ2JyRfvGNhznnG3OJz4d0CofTgDA+rUih0HSaNQRhPyGefPrq2O/de3arGSAfrURIaDKV4zjKwb1p8mg+lcUUYMupvGkreZgcuqyYDu5LV5Pj8RvsM+Wg10MPiZaCo2Uf+VyT+7DkvpSJa+Gw6ZUhROpAOeylPHo5KEVr7DzgfnV1+2X4qBHqwJcv/Z8MGzow95cjuKD1ca0wahMj57Ju5GNH2SZxXDRxLbOr1luyfEA+24b0dcP9wO6rx7lVvU84VRTdZ9chr8k5ISwPZB5viB4fXT8cUuTvk+Glw6VqwyZZvmy5I3/QEXY1w/taRbiJrZM4RpeOBFoDyex61ImxDjg/SjTrJBC9LogSDzjHzlOFiMzRRfdFr9HknBCWl+34tgPXdvVPbbQPrODtU4H8IFNYrYFGK1hyaFfyY0ThhBYguIPCOyKz819MuaMp8azHmp8XpOxOTH4eEZOfR8TkdyiczVeLk7L/MfkdiqYOOyY/j4jJzyPc03vMf76g5DPax1g2w8GMDmZ7uIhT9tQSMHJKtARTqQxlMzrLcEuitrY24AOg06ZN0zFz5jYZz7aJjBhHBkhmCJzYJqY6p0+frvMf+n2I6urqgNkfZvqZ+iN0g+2WSjXGocjkDkVmRowJG4IAmOgvLCyU/wO+pqk/Zv4zXgAAAABJRU5ErkJggg==;base64,iVBORw0KGgoAAAANSUhEUgAAAGAAAABhCAYAAAApxKSdAAAAAXNSR0IArs4c6QAAAARnQU1BAACxjwv8YQUAAAAJcEhZcwAADsMAAA7DAcdvqGQAAA3hSURBVHhe7Z0HjBVVF8fPNpSyC4hUBakahSgfYmgawYoQRDGaaIIxiIqA+UCCJkCigBorBCxRY0NCaBqxANYoVUJkEVRAqkooUlQ6W97ON7/z9ozDc/djRXhzH84f7s6bmTvz5v3/55x755aZLM/HgQMHpFatWpKVlSUx0gOfduU7u3xdwcYYpxZlZWUB+br0/wQeYDuO5wnkOx6qkuffBOPUeDGeAwGqVasmf/zxh2zevFl+++03OXr0qKoVRmXCpJKt6zH/AeANfgtqF8j5558vZ511lpxxxhmSnZ39pwAHDx6U999/Xz744APZsmWLsK20tDQ4gS0thZEqAKho278VEF29enWpX7++9OrVS26++WZp3bq1ihAI8Nlnn8nIkSPlyJEj0qxZs6BQDhNeEfmGmPD/j+LiYlm/fr38+uuv8thjj8ldd92lgkCct3//fq979+5efn6+N3r0aM8PQ16iNOElEgnPD0NBinHi2Ldvn/fSSy95vmF7HTt29AoLC72ioiIvqAUtWLBA6tatKz169JDGjRtLVnbVLD9G1VCzZk3p27evXHjhhbJp0yb1CMqFQABfJMnNzdUCgh0xTh6ozPjWLgX5BVoesF5SUqLLY+4DzNJjyz+5gPQzzzxTcnJz9DOVG1KFAhhi4k8utMrpc0qkIZlxHyNAjPQjFiBixAJEjFiAiBELEDFiASJGLEDEiAWIGLEAESMWIGJkvABliWQfq4H2lUQiccw2l5H5HpAl4pUl21eAtrWE1l1HRgqgJJcTTINWUXGRdqkeOnRIrT87J9nwlQlwXoAw2QYjlzZ1wACCwsJCWbdunXapAkJRGBWdxwVkjAeEyeMzlg7J9Gd//vnn8uabb8rq1auDgQSVEe6aCBkhgJFJMstGgG3btsm7774rL774osyfP1/27NkTtLtbzxOgTHAVzgsQjuUmAP2phJspU6bIE088IUuXLlXLz8nJ+YtQQLeVi+Ba2ZARHoA1kwCF7ddffy2PP/64TJgwQX755Rcln/5sAPEmAoKwTrlwtOjoX6qsLiBjygBIZkzNvHnz5P7779fQA8FYNAmvgFwLQUY+o/wWLFygQiFCLEAVYFZsIN5v3LhRJk+eLEOHDtUBTgzzYDs1IcimJnT48GEVghEIWP2uXbtk5syZMnjwYFmzZo0KY57kCpwUAJLsZoq6/SeffCKjRo1SAfbt26fDZszaSXhHu3btpH379nL22WerIBs2bJBx48bJiBEjtHDmPC7C2RCkcdu36unTp8vYsWPliy++0HWIx+rZzzI/P18GDBggTz75pFxxxRVaRrz33nvy4IMPyrRp09RLOIali3BWgERZQl577TV5/fXXZe3atVrfJzRh8YyxgVSs/eGHH5Zh/x0mnTt3lp07d8pzzz0njz76qCxbtkzFID+hp3bt2rp0DU4KgGV/+umnMnv2bI3dFuep6diova5du8r48ePljjvukJatWsrixYvlqaeekrffflvLCzvGwLqLcFIALPejjz6S77//XgtUs2KsvkaNGtKzZ0+1/GuvvVby8vJk1qxZ8sILL2gNaceOHXoOs3Y7jvOwdA1OCkC4sTkKFr8JPw0aNJCbbrpJhg0bJldddZXWcl5++WUlf9GiRTrBBMIRzGBe4GL4AU4K8PvvvwcWC/HUcqh2dunSRe69917p0KGDVkVfeeUVbQNatWpVhbUcEyNVFJfgrABW40EA0Lx5c7nuuuu0usk0KsingN67d6+S6yrBx4OTV00Vkxsqs14K35YtW0qH/3TQfV9++aVWTxGHRDlAqCGvq6GmMjgpgBWWJgA1H6bzNGzUUHbv3q0tn3gIwliIChewJkRYEFu6BicFMOJtyWS2OnXq6EQ3Qg4FdCrCAmQSMiZwcvOFEHgA/QCZD596zy+7ytechjWw4RGEnBOxdisjXENGCADhJAtLpOOBvCTKBxC+K3YDvhFlpUxRchVGfHh5PFgevAe41xhXXtHQv44DMsOkV0WAMAoKCnT2Z1U8J91wUoDK4nw4FFUGO46l3SNwE9eqVaug29IN+L/B8z26fM0pmMVbMuJBRQIY2SxTQxSWf+ONN+rkc3c8gOujTHJUANp9KDSxWJbciGHJkAysk8US29lGXqqr1mQN+bSY3nrrrbotVbjogPX71LvqATQ5W7WRjpSLL75Yp/gbTAgDIgDyY+Uci8X37t1bhgwZouHHHfL/BFftpAB0rmPRCEHHy3333ad9AEYi3hAGpLONY6j10GzRr18/eeihh+Syyy7TPE4K4F+SkwLQtEzTwy233CKPPPKI9gHUrFFTTQYi6d3C6sOkIgCh65JLLpEHHnhAhg8fLi2atwi8hSXJvCV6JK/DSQEaNWokY8aMkdGjR0vbtm2TMd//xxNcwrACF2JZXn311fosnkGDBkmTJk10v46I4z+jLOxzedkRKbL4fr/SkFxzCwwvueaaa1SIVEAcxHKHS9M0nyEbT6FDvlOnThrCtEm7pFhKE6VSUlqSfPyOnxAyeuCVfnIxBBFeIA+CiecQTg2GGhFk0yBHMmD1U6dOlYEDB2qXJfl42hctp+TLzUnWpFxEtm8LzgkAgdXyqmlYgTgLMywJRfQDAGo2zzzzjI6EwGMg3YQiP+HG4r/LcE4AyOO5OhSqYctFAADRhCfGDN1+++3SpnWbZAEdBnG+PNSEyw3OTXID/vW53BhnhBOCsHxCU15unrS9qK3WchiIRcgxD+FfULASW8u3u4vktTorgAESIZOUm5cr9RvUl44dOwYCVQa3rL1yZIwA5gksifOk0wHOCwAoTKkV2fBCCzUVWbjtC8KR43BSAAsfYYI1BJXXcGymC3G/ImQK+SAjPEDJ9+vzpOys5CXrXe1pgIwQAIsO38HaXW04VeIMziNyASoLFxb3WaoAZvEnSLTemPmhy3QMh7coQ1akAvDDIZjCtaK7VvZbzafM8/OVJsf8G3lWTlQlAc6BJ9l6GCpyBEJEKgBEQCiFKxZqIxiAFbp2R2z5wIkQpeT7x/GdtDXRpIG45mGGdAvhRBkACYcOH9JR0fv37w9mO1rV04hiCtK3336r4pDMuiuy6FSoiNk5OsALIVVMeE6/0R+DyAVgnD8zIGnDv/vuu3VKKRPy6JRBEIagM+2IqUq8XILHEiDS3wUiMe8M4plztmLFCtm1e1dg8SaiWX+6PCHtAtgPw7p5wsnzzz+vD9uoV6+ejv1nYjXTUb/55hsdiAtRy5cvV4+gX5jJGXiEnYtQom3//v4gpPjhjM8kvsdaUPECPGDGjBk6rWnr1q1aJmj543NthKeDeENkHoB1L1y4UGcz8loP3iiB9eMJEIBn4AWEIAg0IiEQIlnnrR8TJ07UJmn6BBg1TR4Ee+utt+Sdd96RV199VXvJPvzwQxXp448/1nnHc+fO1f3frf4u8A4TKgyu5VQKEokHQN727dvlxx9/1FEP/fv3lzZt2sg555wj119/vdxzzz36shuAAMR7rByvYPIeRDEtiXAE6UzEZjuC8DiDVatX6QwatvFQD0Las88+q5O3yYsQiMukbx5fYDd3USDt34y7QypEMNScidbnnXee1nbYh3XjEUy6ZoyPbQMcB2nMomSGDILQN3DbbbdpHojGcwAFedOmTeXOO+/Uqaw84INZl927d9ftdOjccMMNcmmHSzU/x9OLlm6kXQDcnYKQH0yMtvDCj0cEPmPFxH/y0suF15APLwCEIUIXoyB++OEHJdeOZ6Yk+fAsRkgwpqhbt256LqyewVqMFSXRuROu2mpKcxNH2gUgnEA+VkiYoSwgZkMwFs7U1DfeeEPn/NrseLb7lc2AHMiEfMhjCZmMH+L1UIQyK5A5DrDOMYjL97OPbezXAri8FstnCuV0IhIPgAQm3V1++eVKxNNPP61WjDVTA+IZD1grBJu3cCNF4lhCE8NVCDNXXnml9OnTRz2A0ATJJKyZfIDPAIKNeDyFcMaoCc4J+B5SOpFWAQI3LyeEbkXm/XJzRSxnGioPYaJGpIOxfOsm3EAoxBFiGLBFGOGZQRdccIHmJa4zc557BUZCQCIeZZaPiGy3eWYU9NxLMIxlzpw5ej2J0mSV1a4tXQhe5IYb83Y3ns9A7OTCTyX4oVgkVvzzzz9r4cl3Quq5554bDKZlNjx5GKbIEuKwfo7Fgu1xBpDL9fMADwp47prr1qkrTZs11f3cfDHOqGHDhuop1J6soObFdam/N1WIk8EHRsFrwni4ICGWCMAX6Yvc/P2e/wO8lStXpvWlbXyXHxI8nxQMQT+zzbdefZGcb5X62ZJPmuf/EN1H8kOVHusXvJoXsPRJ94qLir3SklI9H+t2blvnGM7JejrA9/le7/nG5H311Vd6nWkvA1KBZVlharUStpnFEU4IPZaI68RsS3gGx7Ld4jdLPCivWl7wENfwmCFb5xjOad8VBSIXoDJAbmXEWKFZFURJblXgrABmqalg298RwHU4LUBlcN2q/w5OH1PKUMQCRIxYgIgRCxAxYgEiRixAxIgFiBixABHB7mUCAegWpOVxyZIl2iNVRueE92fzcZz+WaJ/gwEBtPy2aNFC27DgOGiOph1+0qRJ+mQRZqDQrHs63XFGCQSgCZymc972wSRyZnXS7B4IgPUzhIN2avpj6bZDoRj/HAgAGPtEH4A9vwIvCASgKfinn37SZ3Ly8GsUQ4DTqeErStD8jcXz9Bb6wq1RMRCANnUjnB4kPIDPsQAnB0a49UkkvULkf2RB7t0hp2MGAAAAAElFTkSuQmCC;base64,iVBORw0KGgoAAAANSUhEUgAAADUAAABNCAYAAAAGlyzcAAAAAXNSR0IArs4c6QAAAARnQU1BAACxjwv8YQUAAAAJcEhZcwAADsMAAA7DAcdvqGQAAA0VSURBVHhe3ZtpjFTFFsdP9wzDJgOyDAyyoyYTImCiIAJRMQokQNhMTEwQPjySMfJBEgwfXCCoHx6okSUgxkBciCzKKmEP4SmgwAMUVJ4giwyLbAoiMDM9/ep3bp+eO0033F4Ywf9wuPdW1a06p85Sy60OVVVVRUOhkNQWotGoZNKe/z3Hs1I4HFYiz/KhMIUqKyuVyKDw3w34SAUTwHjlasJUVFR4z2gqEonIb7/9Jjt27JDt27fLuXPntFBeXp6QR8FsYYyAunXrxhkw0B6wctrjTguWZpqxZ9NS/fr1pX379tKvXz/p0qWLJ6DTUPTw4cOyYsUKWbJkiRw9elQuX76sLyCUaRBYw0Fh7yVeYaS8vLyGVSgzjihDOve0D3j2CwXIg+rUqSNNmjSR+++/X1544QXp26evhK5duxZdunSpTJs2TX7//Xd54oknpLi4WCulksSG04EJAbi35wYNGohrN22hePYLRpmrV6/KoUOHZOPGjdKrVy+ZMX2GhM6cOROdPn26zJs3T/r37y/jx4+X1q1bx1+yK3/6L5YWBCqE/vMEMkJTmF+iUNaJmLxpAlRFqqQyUqlasTQTHqG+++47ef3112Xv3r2yfPlykR9//DE6duzYaElJSXTGjBlR11icME0oUhnxKBKJuooCE+XtXeqxegF5lRVe/dpGrG6u1ra/HtK490PzI1XREydOREtLS4ni0QULFkTDLkP9hl6iB/Pz8+O9RBoUCjs9OdJ7tBaQEt/1977m53n1W73xdF+aEc+JcDn8p3kNGzbUNCe8hF0vqBoRhqjkOiAe4smzfNLtGpS0fJW7OvPRerhWRrRxNalYOxDP+k4snfK8W+P9WPtAy0Y9XyOPwAP++usvb5yygoZwyPUU5OsxA2WDkoLOjGlKH909eXENxNoCCAC0TfcHwxBIxgOgHOUJPvpMnXZj0ETMwhH3+hwTLlvKy/fMz9pQUyctgZKlm1tcx5OPT0C56w3VwQr5C99JSCrUnY5aEyruYw44M+MLQYN0HB3KFWpNKL8Z4xvY/tZtW2X9+vVy8uRJ9Y9codaEIooxNUIjzAx2796to/9HH30ka9askbKysljJ7FGrmoIQbs+ePTp53rdvnxw5ckTWrl2rgh0/fjxW2oOF+HQRFyoXUQ7/sLHF70MG0g8cOKDa+fbbb+XixYtqhgizbt06nZS6KY+WVV+rCuZnibyHrQdzAZj+5Zdf1LROnToVd34YZMRHK4sWLZJvvvlGAwVpV65cUX86ffp0XLALFy5oXZnylTPzY2oD05jVnDlzlEEWngiEGV29clUDwvnz56V3795y77336iyA/ObNm+sCr2nTpnLs2DH1LzrE5onpIj92zQowBiMffvihrpwvXbokZ8+elYKCAhk0aJAyX1C3QB566CEl0nfu3Clvvvmmaox10IgRI6Rly5a6QCWQZBMNs9IUwmAmCLFw4ULZvHmz/PHHHyoE5rd48WJZtWqVRr169erpTJqVABNnnu+66y71KZ5JLywslBYtWsTTM0XGQiGQWw+pSU2ZMkU++OAD7WX8hACAIPv37xe3RlMNkk7v+5mlQwC+o2bqiHwEzgZhYlS6gRP/genyinKNZvjOY489Jg8++KA0atRIy+Anjz76qHTt2lWDAAKaEAZdciSkZQ0XW8JR9x/EQ1DgwJgM9MADD8gbb7whr732mjz33HNyzz33aI8//vjjMmHCBHn11Vd1Q6RTp07XTYUol2tUIVSFq5cxLp36bRhAuLvvvlu10qZNG2nVqpWaGMxjRuzykFZUVCSFjQrj6yYD7yMY5XMlYJXzqHC51pWGmnwwwSxaYUosp2EQ0+LezzALRAN+g+DUwdXCN2X9lD6cUDTjLZurV5npwJiCefypWbNmGr0Yb3799VdlFg3BIGUB/vjTTz/FwzcaJfplJkRN0EI45CKY40gFqopdMwEdg0CdO3dWBpnXbdiwgd0quVZ+TSoqK1QoIiZjGXM9wn/btm2lXbt20rBBw6yEMhsIuzrCYcdMiF4kJZuOchUwPj3yyCPSsWNHXTNt2bJFpz1skoI///xTp0ifffaZfP/99zpu9ejRQzp06CB1CupomUwA70Z5CFWvwNmz84c8ZyJ5zowyHcnNDJkdDB8+XMM7Pc/MAt/Cx9hsfH/u+7Jt2zbtAIaBvn376oBrdWQCvy5QkJPAVYTNE5kyrBTgOzBFmGdqNHLkSN3C7t69u6b98MMPOi9EUwjPhv7zo56X7t26S/16zp/wa8fQzSgRpLg1gSPvniLsRbnY7l6gRA6BBkpLS+Wpp57SWfenn36qPobfsb3N2NWquFWstAc3UMTuMgdjrptRuL+Qk1Upd6IRshs3bqwa5EsKyxHw9NNP6349+fS87eBquM9AJl6pybYzPwTJvZ5i+2/OP/0zdmYVTz75pE5ciZCZ+u+NoJpSpeNPOmJ5XYV9+ikTMDTANH7GZBYiYKAhtMezasrl34gSQfffmD/Xrr7me5mXcLYa5GVlBASAzNGN0WROHwRB3vKiX5xid+4/P2WLZD0O/BpJVSZdoLmYUVNhdaVxDcUoEzg2Y3fUcX0lyfwpV4JpzUQPf3XU7aeMoO9Wv2yTXQIGIJCQb2ZplAkIDtVvhnzhQVOrmcgWxiQaYfbApgozB64Ik8vIB+s1hPJuavaQCeqndGFCEe3uu+8+GTJkiAwbNkzXXrkys1RwQpmcflmzEwgQ8dAG4xFL+tGjR+vUycwP3CrhcmcDSQDTfsaZ1EK3Gj6hamorl0BjLAahRO2Y4IEp9t6NkNSnbhVgCsFuNap9KoeT2b8b4Qif7TMcH25HOGNw45TTEHYaqfDOIiAg+wnXkRs4b0QWBPyUrFy2VJ6Y5njjnEV5+TUVSne28vLy3ehexxWo1M16dURdBVcTs3icPR3CfxKfc/JHPQnEIRH2P1y2rrLDhYWNpKhlke747N79X/n54MGaPRGQbGlR28SqeueOnbJt+3Zp2qy5tG3XTkKXLl+MrlmzVmbMnCllx8ukT+8+Uty6WFVpCBJD6DE/ks3jkqWlDdeMvxa+ex343wH5z1df6axl6r+ncjIzEi07cUK+XP2lfP7553Lw54PxLS1gzDpF6zUVEoUCOREiBaxuttaKilrqrOVfY8dKzx49vOOmMHThwnnZs3e37HCqPFF2Ul8A5BnZ89+BxA6yZ6ZdHDdl54qvk0zPQi4TuELetjNBw0D67YRUHWq7ymxnEyjimnJmqEIgKcbmhyd0tYC1LWwqSzG+II9vD3FNpeqFOwnIAeJCBcHtIPjNeFWtBpboDkJslv7Pwj9SqLTML1lR0pjb3Qz2bm34Zdaagsk0+qVWEFhTDHD8/IDzRxySAnwJ5CsgG/+mgWTVMSjy/ZeDJD179tQBMrFc4vupnoMgsFDMiOfPn+/97MCBXSIGPKYozz77rM69MEOqM+3Z/ZkzZ2TlypWyadMmPQHD3p81m4pZv1BQEBM33LSkNc71oFuW8GGazUmEQFMIOdPN8PnGSxk+23C6hW+6nN1jScI6jV/+8BWRZ0A5vi5yoJEv+ZTh+A/l6ASAdaBdLIT8oAh8qsl6ihMtfNNFO3xMe+WVV/RnSpx64VsUQvJtF5PjuBsf2ThSwDazfbPi91lffPGFCsTijs3OgQMHqsAcqeND+JgxY/R5wYIF2gEvvviith3EDNMKFPQcDdGjnEeiR9EQPsIyeu7cufLee+/pUp40TpZhsnZQkbMWzKr5aj979mxlkK+NfK3/5JNP1O/Q8LJly7QdOglzRVPUaaZ4MwTWFJXBOA3DPD3K8TfMcdy4caoFhHj44Yf1ey5+8/bbbyuT/ILODn/ALAexOFlGkMH00DjnBTkSxAfujz/+WOvl8AiHtVj8UV9QpH2ojh5HC5gNDRPNJk6cqP4Gw7t27ZKXXnpJO4CetjWOLQ+458zs1KlTtYMohyY43MhJGQ6KUJbDwpRFk3369NE8NBvE/AILRWWYDwerRo0aJd26dZNZs2bJ1q1bNSBwsAptcTaCfH5YBtOAXkZo8nH4yZMn6+r6rbfe0tOY/KCLdOqnHnwK36TzBgwYoIKh5SACgcA+RaWEdRom+nEk7plnntHnSZMmqa8QFL7++msNAjj4O++8o8zhU5SDYIy6MDdMk58Ock4J7UAc68GEycMShg4dqu0FFQjkOYYmxe6Twl8ZGsE3MBV+2IhJYI6EXTREmCfqMUDjK/Q6y2yiG8GFujg4wm8eCTT4Eoe0+G5VUlKip2QwP+rg+A8+xnlByvBuUMECD74Ug1GYg1kYoXEEwswwR8YtxhnK4V+YFqZER+DwhGY0TB6a4OSz/aiT71gcHMEPiX5EvcGDB8u7774bFyjnQgGKQtaAPQNr0PKTIVUeZkc6Qq9evVpDPCb38ssvayDiPRsngyCtcSoRMOJnMvHZkFgmFYh2WABHVRkW8K1Udd4IaWmqNmDaTKXVm0Pk/w8m465EB/VNAAAAAElFTkSuQmCC;base64,iVBORw0KGgoAAAANSUhEUgAAAHQAAAB4CAYAAAAjWNZcAAAAAXNSR0IArs4c6QAAAARnQU1BAACxjwv8YQUAAAAJcEhZcwAADsMAAA7DAcdvqGQAAC3bSURBVHhe7d13sGRF1QDwuwl2YVmSEhQQkCBBESQZUUEUQQUjZhcVpYyopX9YZX1qWVb5h1qimEVZQVERUcSIOaAoYAKRoCwKAoKSd9nwvv6dN2fovd+8mTfvzVuW/TxLc+fe2+H0yX26Z96ssQJNgdtuu63ZZJNNfLzvgpnMappVK1c1q1avambPnt3MnTu3Wb16dWOaK1asGK82PuV4r8yZM6eZNas0rECdVatWNWOrS93yas7sOc3sObM7b8eh3WZdgPWGock0ZeXKlVHuvvvuKLfffnuzfPnyeHfHHXc0t9xyS9wvWrSo2WijjZqFCxc2CxYsaObPnx/MnTd3XjN33txm3rx5zexZhYkdvrUZ/1+GThI6KPUkmHeeuyq0KBl35513Nv/617+af/zjH82NN97Y/O1vf4vrtdde29x8881RH+MV9TF24403DsZi6v3ud79mm222aXbYYYe4PvCBD4x3W2yxRTN/w/nNgo0WrKHRgxiaOCa06w9qPxVYJxmK2NBiLhEwJ07raBgm3nXnXc1tt98WDLv66qubv//9783vf//7mMe///3v0EoM1kcWWpiAqfoB+k+N9sy9+ltvvXWMv/POOzd77bVXs9tuuzWbb755s9VWW4UA0OgNNtgg6gJ9apv4htVgsjswa/b483zfhomeDwPrrMnlB1euWhl+D7GZyOuuuy607pJLLmmWLl3aLL16aXPTzTcF4xBevQ033DC0jindcsst4x7hPdt99907vY8TT7n11ltDAFxprCttJhBZBxgfw7fbbrtg8Pbbb9885CEPaR70oAeFNhvDmMlgZNW2Fpw039lnXhPa91OBdY6hmIJBCAgnDPzTn/7U/PWvf21+97vfxXPERiTEYw4xTTvEfsADHtDstNNOQeRtt9222XTTTYOxmyzcpMRM92gLAahBf5h5/fXXh8l2NTbNv+mmm2LMf/7znzEOIUM25hgjjfPgBz+42XfffYPZTDWmes8PY2pbe8F6wVDD1YgjJCbdddddYU75uz/84Q/BQCa0DmKYO4RhOhEL4xCTpiAkE4mAGBzBTfkMjLl6VSHq2OpyUx6U4b2vmaoOZsEtfaRnGMkaYC6cMNo9U08A4I/B8NOGFYAX4TrggAOCuZiuwFvfNdS0qD9PFWaUoSYLyRpRRMOUZcuWBRMR5s9//nNz2WWXhSlFNBqqDoYgAn/FnCHSXnvu1ey6266hefvss0+n13EIk1YgfVWC8TvTDJ/W9mV5zToJNd7eKfCGM8b+9re/DXwJIeZ6bs7pi+GIoTvuuGOz9957h+CxIMw/66LA2XJI3+3x2lC/nwhmjKG6Jd3pU0wwte2KK67olr/85S8R1NAW7zGOGTVp/om077nnnvFZ9Llgfok0OwTQZ0IRm3sYNCKG1kDAtIVn3T8cMJdVufTSS0OT+XpCaf78MwazGiwMDTafDLRSWOHgmtALl8SzH8yohmKQfkmuifGBClMq8Mj1XwYTAg1auMsuuzQPfehD43OaToRs+72E1MyEmWBol5ilSghSuQ3mVkTGdFaHr6W5GJwCiw60mIZrR2Bp6/777988/OEPD9fBZWRAZ076rudSjzURTIuhJhCDdgZyTzIhjpkXXXRRc9VVV8VVoGGM9F2uJBRDMTCXBTSRRCexoJeExvQa8l29NKijyITsB7jm+/Y160wEdb12G/c+86c+E0KMty5GA5p74YUXBh3+85//hOthrVgvtLAGDpdS6PCwhz0smM1kY3AuixLQWZs2vsadFkMxbcMNNiw9NYEoLSSRF1xwQZhTUgpIbS7SaSWfwp+ICu9///vHZDAQoiCJldca2pNwnwztpZk19CLAdGCY/r0TOGEsGqGNuOGGG24I2lECNCAQ1rksFMbut99+EbFjrsBKnwSeIoB6DJ+nxVDmgwRec801zSc/+ckIbkhl+jbSxR+SNj6DJu6xxx7B0GSeScydM7frF5VEskY2oYNuQH4Ohpaq7frt+7otMHb72TAwqP8azLcrsOVfmWloKJpdfPHFocVMtQDLMolW0mLLIcrw6Ec/unnkIx8ZZpl2grR2NR5TZqhmJOyMM85ofvCDH4SE6ThTZZtttllz0IEHNTvtvFNIGwkjfd4DAQOzBCkMNcGERLBNMFATrR8BQa/2NXg/qI9+0O6/X1/eJVN9xtR5G4wvq2gcemCqNbdoX9yRzDUOd/OoRz2qOfLII0Mp0DgZCxKXoRmqOg1kUt/97ndH6E79mU7LiF133TXMBMnadNGmXc2DMATkRLvaWDTL2tDk/Ae6iJVrm2Cgg25A/bkNdVuf23Xzff28V71+0MZvsvioZ13MRdAwgNEEPjUTc3/zm99EAHnllVd2kxsCxxe84AXNYYcdFkqiX22zn6EYqqoienvnO98ZpgIzRWnPetazmqc//emdmsNBB4U1CALRNsHaUNf3eTJtJoJsX/c5CKY61mQAkygO7aU03/zmN5tf/OIXgZ/M14tf/OLmiU98YiyF1Mu04pz/KaCDXCv1A4NYbrz//e8PyWEGHvvYxzZveMMbwsZPdYI1I9qfJwvZrmYISQd1nzWom/XVTSmfLAyD37CQeOVyztpVUMXPKtxdxia1Lx1qBhqcddZZISnMAxP7xje+sdlpx526xLs3ARHgZVlgsW+Bjwi9QF1CnPWYs16QhF3bgEGK+SjbbrNt84pXvKI56qijYqUgIP3xj38cvhZQNjAUQzX+8pe/HMwTwb7kxS8JCRFOt9eIMwmIrJhEfiZsrnD8xje+0ZxyyilhqjCtBm0U9TH7O9/5TvOxj30sTFrWzT4RkjlTV6nB+4zm68+jBAxlNdFWrCHQPPzwwyM4st7n8iwRjQ3XaBP/nwQgAomwZjLA0572tOaQxx8Sk+HcXacLSbheBKwhiUewkjkJJnr22Wc3S5Ysab7//e+H4KX1UNfEs5091V//+tdhdc4999xwJ0D/3mdOOecWc+2MpR8Coa7SFpxRAsZmtkxG6XGPe1wET0zvj370o4h/UqGG0lALYqrOEWPovQUmg7CkNz/3g5ohCKMNRpH6WhCzLz7JcxF5Ea3xvdkiBKkFwHv1PcdQ/dZ9zQTAjTXkUyX73csBiILNBwxkaCLpqiH7LRqWKJ9paBOIFphAnSOVnWrX68VghLeus87TXkIEaKs+bcsdH/OU3Zq/YPyM0d0rxteJ2hvXki3z07lnKmu2NoCWWiIKksyJ/4eL52BglIvzKjM//JKAQ9rumc985v8hXC9CTgcQO00ecygYk8hgUn/2s581f/zjHwOfhRsvbBZtuijqSXD88Ic/jEny73yOiSP6Jz7xifCvv/rVr8IUy52qy43A3cbBT3/604jgEY0m0EoMlI8WP/C5v/zlLyN1d/nllwc+crTSlzJgMw3owSIQMDTAG8tGDPZ5sIaWxb9i0qTaxOUaEWmmITUHM7/4xS8273rXu5qvf/3rQUgE/va3v9189rOfbU768EmhXYifps+k03SSYu3POeec0E4+Jy0MAhmHQGMS7eRXzdfYhOYjH/lI8973vjcEybgW/PA4/fTTQ6NtndHemQZzgavTF3wpa8l3slqTMrk6wHXMw0wEc4+h0nUzDZDnp37yk580n/nMZ+KZpRKte9KTnhS7M5hGYxCXCTRBeGJQmiSMxAC4sy4nnnhibAzINiZDWafHPOYx0e+Tn/zkyJ9KnH/uc58LBvNdkuXqHHTQQd2tvUx11nuZMw7FEDpqysqYq7gGr0B/hhbNlKZzWMvkSL3Jkw7PZxogKeXFrEGcID372c9u3vKWtzRvfvObm5e+9KWxuIbXz3/+89AWTMI40svsfv7znw9mq4NJixcvjiR3zgW4SqNZ573uda+LguGWBfolJAThrW99a8NDvf3tb4/0GzPLFcERfjMN8MwiDyyWIbgZjYP+DC3/UoIhDUgl/wIQPCUDtO+nC4jODArP4SAbdfQzjg7iYy5NOuboY2JMOxcCFsKHoTSHGeQzaarJv+hFL2oOf9Lh44Ja6mT+WHsaaptKvzSOuWWeBTusxBFHHNEcfPDB8Y5gHHrooaGp6KOgy9pwQwlcizkZE0NpKejLUCG7BiQ0s/46smxZG4DQuVmO4BF0FCYgHoDPbrvvFubQpARI3qUQ5lXRHiNoEkHVN4FJE43B6pN442Gosc2fJtJQbdRV9MfsqsvcIuiKu1dEHzMN5gNvwmU8wpxr6L4M9f0QjYEGJoehCmIkmKgyajA2bURcQGN89hwOrp7BRT0+BaFlVEw0T0N4xvyeeuqpzWV/uSyYp8DZ/qKrFKAljbr6ZrK5Fn1goN0PkG0xUDCivvHd56bzTNCiDQSXIMMFfkmj/gwtiDI3TJQJIxJpNOHsACBsMn6UAGlLB1tyxhP8yP5YfzLDfJyUnajVDoSghdCpS2NJ8AknnBA+073gxtLFMgPRMUPfGIHhAicbzjRTHwIw1ojm2/O1nEEHSyB9KcCalf++/IrLQ2PRQv8zwdikNdrA22dWJU1u33VoaiQJyChSuG+TNfO3vRjZ69lUQD/GRyRMFGnTIpErwmOAJQR/iWm28OD61a9+NVyEPdnjjz8+TDXcaZnlCL/MhNJOY0gOxEn8UmidsRBIYGQ55N6Ylifqnn/++c23vvWteEbo4UioLHlYBzTyPF3DTAABhQ8hY53494i8ByUWUqWt4xCFxjzjGc8IZtJegCh1GRWwCIgikoVbrjUx1foQPp4LluwPOmCG+fKy/Ir7pzzlKTFhSxzMoG0YgXEOZDlWybSK4mkmzWcJaOjRRx8d7wgS+miDiAQjfSt6aJtCp76TfGAmGJpazyqggXWx+RnTkdeBDMUgyMuSkHqBhYgvGTpKBtYAceMC0RymikL5NmaficUQ1uLYY48NrYAPyUVwc5E9OfDAA+M5zdl+u0L8G28IX5uaRQtpKoanCVP0LQnO5BIMVsB7BQ0QUD7bulVfcNKPyJeQYOaoaVObcBZE/GBHCU2c0hcv9D2xQENoKOl73vOeFykwBPrQhz4UE8DUmQAoRSm+O76+UCClnQ+jSVJflhiIi/FK4kNTvDcfQoDgGCHJvvSapTFXDDY3gpKE1wctpt00zTsWIQnJIigEJE8r6tuzXItqw3ePEnL8GlgaruWkk04KXF7/+teHgPUNigCmQjonTaqVtQkmBA84YBBtclCKz/AOgeGIIT7L4dJO79PXq7fBhhuEFMt9Mk80D5gP5mK6fvkjGm9Mz/SRGkj79EEg9KkdBubRVBrdiwFThYn6Mi680YQgsbDxPP4/AaiMSIiVkGYHGKwuowLjpgABX4cvT9YYBw7q0FyTo40IDzzH2BQ819qfrdF353n9HqjDbOcYwBUursZMfNQhNFmvxnOmIPFyrccbqKEqpnYo4w87lxbi7ftpQxkOI2cSMGbU0KXTDEOvcQZqaDLIZ5PHXH6t+92LqtP2/XRh1P2tb9BLeQaKZxI1i04wdSYku4b2uCAmMIQBSMuSn6cKxl1jbNch8JgJSD641jQamqHdTlrfIxk1iHD57ohyO0N1CduB+nMb4Mn/J+F9ngpTu2P6rzNe91kH2vdrA4yXEThfKmYAAxmapjWvibzPMwnGwICMXpMZZfQuDnHfufYCViSCurJcmYpF6Y7jvz7j3BuAHpIf8BL0ZQ5hMEMLIYJ5/qsYCtzXZZSQ+60W0NaeVy8dPz/k3mTaBG7fw8da9Pobrm9u/NeNMfmMQoeCyTJzElVGCQTdnFxF2LkG78tQhGNaM/w3MZkYUp/qXpfpgj6BNZW0lsS7DJU8smKj25keqT+MrQWpxgN+jqlIV2pnk/sLX/hCnEmSVAhT3tH4foBg8Djra2c1F//u4u54UQpd4lr+GdPOlH5B4lDjpIwa0nLhT1qggcn5XHNJhNMUkiCXy2an3U5I4k4FTDglTjrLWSHMlHzHHIlzh6LssLi3mJccMKa22mUfNrodaHMADO6YKOfpcJi1qoRC4p4MaoO+tDv3W+fGQWyJBGlCOdTf/2H8xzxkioCxFf2gl7boGcd0Ch/b/fcab1gwPjqZl2yZlKN59dXQ5DoEEnmagdEIA3EloX0/DBgDkZ0ER0CMJDwQJUBOCDjPo3/bX3Y2avAcUe3bnnfeecF8OV5HVRwZeeUrXxlCYMsL/or6vcx3AgGXVZL2tAHAgtitsQVnA4DweBaWrOCfliw/Jz3aZRRgXClQ/Rkrv6bZl6GkzaRBHjvB0OioRKGjBESxm3HaaacFw+RS7aC89rWvjbJ48eJgzstf/vLm+c9/fjC4DWl67G1KwNstocXShb5U5Xs4viGHUcZTzK9N5LzXhyS8s0uS9errW67YVc6XC9KHcQmJnC6mu44a0DxxYwGMb1yKYMcF9GUoMAlgd0NnkBaclK7j+ahAv7SKZjJvGEYzMAQDMEWO9rnPfW4wN/O4wJVWuJJU7RHUZrhzRYTQxOVpaTkCIIj3/GpORXsm1fbZed8/LzTQVpskODPO3PPhgAs488wzY28UqGeP1Fcw+GynFB0ztRmAhvCbDgTtV93z1Q/04hJyyUL4wECGJtEQNJFi1hDIfY1o+34YIOW2vXIXxRda5WeN46yOnR77ofyn/Ue7Ip7ZdTAmPBXMp42Yh6gf/ehHI7hyiJogGgcBaJYjml/72te6a2rtje/Zks8vCeYaA4OYeGPRTgAHPhk+LJbDaH6WQH2Awaedflq0JVSpGCBxzdIPkqZJV/1oQ9gw1FxyAwGsGdX0gPgiaQGOV2Od2QQehMiwoD+OHuJ8nY1j4N6PNH7qU58KE0PbMhHPxz7hCU+IPUn14AccHXEUk5+zo4+ZJJiQ2P6zEzPsEsZ4B+x/QCTnT/7oybHj8sIXvjBwselNG/30APOMVjbFjU+YnJxgWZIpU4GcX/wiWmEqgUQvbkZ8kwwdqKE6Qmw2WmOdYWj61lECqcvCJBqX8zeWMZk9hKKdvgnnaws0B05wA/wMibXh++pXvzoOVTu1wCfTIlpJy4wxCMw95++62eabNbs/ZPf4zLQLmBATQ+FHEGms6JoQZcSbgdh0IfFBDwxNDRXf5PwnxVCFKUOoZOgoEKzBGBBjYpkoBIG45/z3cccdF0HRa17zmubxj398EIqGMs9wwnjP/IMbhml3yOMOiTbailQRV7hP0/WfwZ02xkqIYKMsOzzTr7o5DjogYKFMEFYQ5N45Jz5W4Z+tYbkqe6TM9yhAKtTcBGVwRoMMiMBghnb8C9NCGk0OQyHo86gAQZhPO/6Q5cf4TESEtN8ToGk2kjPIYUad2gOJC3/G1Dnx7jeUgsXlHTPoYLZ2AhoCijDeKcbJKz+q3py542bZM8UzVwy14a0+3BSBGPwcVLNccrI+Azin/Y2XkGMmtO8ngqyD9oQIoEEuWcCkNdQE7OIzI4IDAcYogenYb9/9QvuMIeIVZPiCkO+20Kz8ghBTi0AiVqcXEJRAYDS/IiqVmLjyqiu7ptuVqfU53YcrjRPgYJbPefIPDu4VjE/me04rzX/FyhVdoTI2jbHMgZcr4cwx0W+6gA/whEt+1wgzt95q606NAZmihGQq/8CMkBAawy95nlB/HhZMWljOTCIOK+AQlDSfwMZyxtlY/goj/HSOdapjIYBJNFGEo2GYrg8a6xwtARGgmKNghhlkCS74zQURbBEEc9OOr2aRBFv8NfPpmCjhMXfrZOdw9QXvZJykCBxk1LgMppevx3BBVBva9BpEv3yvf8kTx1H1/dSnPjVoQn8nxdAEam6NhkgiOsUgaY6mC5gisBCF8qeIxbwhEo0gjd759tkxxxwT0WOOqy6to625diUQlhGI7zOzi0msgHqIIKgiqArNZDq1p3nqwYkGOwHIH2pnzhioGIdv5gos5wif8YxLm0XV+iFogxjYvu8FaE1ACSdBtDxDjw1KlCuqmfTvFKlm3fWmN70pOpJxec973hMEZWpyyTAq0CcmMG/Gc0U8hJOzHGTCCCjiWg8SCAxyiIsFSJ/DZGEo4hOYPASGsJhIYBFQsEPDMFNhAWgx10MAZJHQgcbD2RUtCZy4Y/PNNu8m82sYhqHoDxd0YW3oIWHDBz8rtEERfMfEhvrhKZIh9WbyJv7hD3+4WbTJogg8RHwZQI0CoIURCFVrv0mbmPeIOxFke+uzJIS2tCb7UPTtirn5Xlv1abzinfWneXqPkNqp77NniROI+uVZ7CH3YGRC+/lE9UDiSLD9yMfHP/7xECb8YK3mFDylLoayk6SNdpB+Eswx5+QMOGpAoCz6N5aS7/qB93wxn5dCoQ+M0ocrSCayMOoA9wTBOwVTMRMkLmigH+08CwaW9vk57ueMj5v9TAf0C2fzufpvVwdz0woYa1ZZfs0tKA7FUN8aloXRKTMoVZdaOUrtBAjAfzKzCJoEc3U/yN9rrw7i1wT33L3PmJHE1qd7Wp/MVWrQDuirhtLD+LXTlz5yrImg37tekDgGQ5deHQLFfViH66mY2qLGQzLUhDhhhCb98Y3pDrQnP2pIRraJOREgAC2DK7wVjNI+z9bm84S6b+1zTj5HO22KJrjHtKzfFery3Bj5uV8ZFuBiPIGX6N1n0bVYYnXMQZ9FUKP2EGCpoiCEgEK4f1+BLvMmSc9ehJ8KM0YF/CeriOZWAztsv0NXYIvDDvWcFkN1LpgCadrqMiqYan+1RoyMETPAz8nODyNF12huHW0Do+t6Cl5j4zwdDpg9a0ERpI4zOd5rwzsRnQjZDFAAJ++zRILsEB/tvZL99+rLvTpThVEwGn7oASaaK+glXHX9nF+vPjxDE0uolStXlHX6/Zqddt6xmGKuQX+l3bAmV9TGdj/iEY8IX2EdZk0EBgVFvZAEnmMmosh82CD2u0C2ozh+UBMhr5ivHWbqIwWjH2Q/dZks1PXbbdv38FEw2RzMLSHfRaEEE/Df+xr0I7Fz7bX/KGvqjZoH7bhD0dDtyriFL4X2kvZ3rlg2JEOLY6bi+Q0sGirdZV2KoDWyk4EMUoDozfaWHyN02sApPdqPYRExFqRrotVQE6wNbWJPF3r1lXPGwMQlaeA+hS0/m5MrJtS06kc3tJaaXL787marrbdq9txjzxKYMbfw0a6Mv7rQSuXJggFJigWtdBfmSmYzk22i9kOuhhQEuUm5T+k5Px9qC82xTXlLwUASJYEgEAgTtbPCWvSDUTIVvuaLFj7DAQ1YGFYj4e5CfDtG0qXyv2hVu5JeMBHdjGFVYczMaI0zswNlfrPnluVS53bSYCIGxVALWxNgdhF3ImQmAkxS7E/KfkhW2OLye0IYi8lf+cpXgqkgJds4iskZ2yk8TG1H3OrUgubeciu1tl28zzGyfkJqV/anPoCDPLDdHdt20oL5/NI/XxouxDwk+AkoyyPhj15l1KgLajzWgILCsruWRQAqRTl//oaxXEGfeFmK/8N41px5wzOUVkKGybWdhgC2tiTso+chQFsJccc2OXu7GYqQ3PFNWugUIIIgZD1ZxDbmd7/73SA0gpF+AoaxiMzn0ApXGuxd1tFGpkvBZO+t8fSpPoYsX7Y8+sktMFAT3VrUb+46PGYcLkIUCphf60VtaZPTDQ620eIzv3JmjAt6MrEDxmSWb7n1ltBwuC9atGkxt3s0Cxe2vm1fil6GYqiB+TORLu30m60IjSk0pA2JbC+kIQvBU089NaRPCsseIuGw5YTIdhGE53YWbGuB9LmpGUyzzWR5ZuZNv5Ljft8vT907KIbY+v7e974X7fXPX5/zjXPCpBuT8Di5Z6sOY8/++tndc0G27sw1kw3O9sQcCrEddnZeiSBqS1AJPTpZJ/q5HQfXbH7b7bnwogvDHwZdOrFBmz5A/4TPfPIEx5ZbblGEY9+CR5UEKUU6w9ewh9ZQYFKkU7QrU2EgxBkEaa4AhiC4HRHnfuxt0tLzf3l+7JCIcuWOHR2xneWQGIYZCwii7P442pk/6eJIZS1szBIzpfhhCZpks1wfNAjx+TeE4wMJjflIp2Gws0G5Q2NzXT/wBjTnjtvviP1ZJtH2GuuCUYK6COQKk4wjY4VerJtcOPwoQb9AL8E8jUtg4bbrrrvFXO8xh9rParDXVsWUGApoiu2l3LglpU4IpLT1QpRUAwTlN2kPJA855JDoh7bdfse4D6K9TCdTRXsRip9NH2WiGEQTBAsY5sqU0Wob0p7Bk0/mdwgUhiRTQP5dbYDQNA0uNBmjaEiaYwKV89IGrny4jfnAveCG8HAlJOYJP1f1jesznHrRKJ/V76wgCCqLQcDl0hcsyK3DcWbWZcoMNWCeSIc8qSTREG77u4R6rWqiGEUbTz755Di0DFkaJ4o+6sijggi2iWg/KbfprW9Sb98R0xGHf9EfAaC1cLjqyqvC9zoO4qySdswsE5iEpc32RuEPjGvfNOsSDPVFlU7hw1ebJLjxr1l6TWgf60KY9JeHr41jDikwGJ4H1GjzIMgYg7mFk5hln4ft08yeRR9r+o6AoYAJcRTFhA0uMOn3FYD0f6ndr3rVq+KKmdagotw8UcCsONXO1GGU866ISuvc0yCm2C9r03DRMWGw9BGMnPGlM8JUMZ80WaRscxwT8uQfc4mxtF2fiIa5rAbhuuPOO4KhCAkfxz3UB+oz1/wvHET9hx16WOCiXz7bPAVYxsuIPf0tUz4ILFUIK6YSLl+W2vYB28ZPpqcQ3gPjDB7qCEobaAr/QkovufSSMA/SgggHUjITEIxka2eyNI5PAYgPcWeF5IqZV6aLJPsdWwzLw10YgCEYj5Bw4C89F1XSMr5ZXQRHVARxssA47uEGH7juvdfeMTbtEl3TdgGOeuozp3DGZO3MgbaxBluUIMUZJdYK3hsv3DiWJfKs+sBYbfWFQfqnBHBu0weT9O1KcIzt5D1Bt8tlI9s84G1upXK0W0NXS+NgtcH4kGGAEOiYBjipzt84Q/OOd7wjJpMamcCHSh9qVyOeh55EvMwXJjJbJNkBKP5QX6yA95YTV1x5RWgNJhgXHvpBOFpFg9T3Tht1WRKRMdOIAQiqID7fh1D8pyu8MAajMZj/IqwJmCQ6Ny5TnMJKqDwnrNyEz/pS0JcAed6mDVoo+tAXS+Io6wc+8IGYo+/5vOxlL4u5wHleudZhUfeKoaA43c6n4aAMPlaIN3b88cePFfM5duihh44Vs9d5uyao24XysTB4rBB8rPiUsRJ0jBXTO1YYOFa0bqxEvmPFT44VpkSdLIUw0W6NvkYMM9n3RGBMZdXKVVFKADZWLFPQ9Nhjjx0rFinmHvNXt/xbWcqq0lZJjKflQwHJY6qtGWke6efHaEgbSF8XykdBEkkl5XwjU+QQmnUl/8pnFeQ7DcZNuD4mE+5PB2ay74kgx5T3WbZ8WQRZompuhrnN1UTCuF0dr1/DtBmqP0Tn+ywxmG7+S9J+MmAiGMWsMZXyuMzLLg/epfD8niOiGJ8MXV/B3BSuwzqYn8ZQKwkCPxmYFkOLhncPQgkIRHv8hCjzS1/6UgRJgL9Rtx+YCE3nIyJgKP16htE50fUd0Mh6U3QvAWLO/HZ+2bimg/8XCkWpKTMthuo8tQczZEssQwQGsjC5HoNMMfLxeRBksBDId0xyTmJ9B+5LTlh+mhJYcqEpLe1FA0/qAqZvcjtgQCG1g7+iOPdOHjAftK5OKvwXegPtlH7kP1k6X4m0akC/FPRBMDKGAuaRD/R1ehIGMQHSVHxfmuhBpnoYGGVfowZLLGvW1E7raj/ujLHwnizuI2UoxjETolRpNKbXrofsCHMCErm69IIUgMkIgj70X/flM8JILFiLtuu4ImKWfNcu/cD7bDsscENSgHD0WfLATo+1r6jfxkd+LWMQHjWMlKEmZ3CJAQkBny2sMbVexnjeq0wE+c4V8RBAkiI/g16MJ2CsBkA4OMgLS4Sor2Qf2T7HyvcJ5kaDBHu2s9TzLOtMJBQTgXYZH4hmrQxs0YlF0M/PwHNdmGsek4WRMRTyObmNFmwU5kKulRTyC/Kb1qkgGNIhYrbpBzSMfwHd+p2LYCuJqc8konoIlkGbAhc5Y/nRqFP+YXgyPYVDHykw2Z8r/FOjQPbtqhgz64N+c/MOs4xNO8Ub8uDiEMyU6x2WmWBaudwaIKgEAmVO/vYmZJlbmgFpTj53N5SccHvi9b16iCif6jQAppDcJMR1/7wucp5MlWjQO4DJdmSk+rTnCpjfTOrL3/oNwPy2mPxvBG+dsdWVVJeCy1Qlf4ZG1suIb17Z3nNJfaBue06gnnOC/u39SvMZ396u7T74EJZ+0GuMkTEU5EQgTrrkSx25kA+1n4gQfENKcxvaz9zDS6BgpwLTLIdko2SRfFPbGR37lbROkUPGVESygU4QnKaQ8LAnqk7mWf3sjf4ICjOM6Zimvh0gZvDii8b/oB3impMdJTlhGiX/bDPgkj9dEltc8sUSAKnxa0ARctYEbfwuIIFTWC4JePSxqyNfSztZh6kwdKQ+NCEnj7ikDaEwhi8l9QBTTU5JqO9dSa/0lwlLoKcpYjZpPmHBKFtWft+AWTaGNiR+9912b454yhGRNnO8RNQNtMEYaz5/dV4mhpbZcLfD44op3u1/wP6RuCeU6jjZwEpoi6C2+w448IBIpuTxk4mgzC4YlaBPggpfyRRxhx0d/Q5i5kQwIwxNyYGURAN/6rPNbN8pzaCC1EapQNssmM5kYpQslCWRbTSmjWSrY6eDmbKNRsIRXyCG2cvvXh6Mp8HGMy6C84GICDf5YwJhE5zpvvSSS8OcWtDr1zuZGn3UwNpId9oJyr8iYcz0eSmYXegoE+1EC0LlrBIBZy0IKoE1t5rpw8KMMDQB8RBdsgEzSLZI0W8FZVqwHyCOCdIWZhYR8lC35/wcS6AgIB/qitiWTK577rVnWAp7p5gPJ76Kj8IkVkB/tt3i29ZbjP8EDf+sLuYyh8moBON4L2DLZZF+4eLevHsBYUIHuW5mW117wvY6uSjt9AWHqcCMMpQkYoZFst8ZcqJAgMK/8X/xtz47Odu6gPIp2splSvr7gzPO37oy4TTDxEk332QshTbTKCcI+UbnjGgjv5eb4MZgKplPf1Togx/8YGyYS4gwefy8Dfb3ve99cd42NQ8zMM1njMhnij7NzTN4tEEdbQCrw6wTJkEiUysjlHPX3jhTgZEGRW0wOQWiwnHXPI7IfyCwDV/rMGPnhED6G0FGbgq7t0bDDM9MWnCEwT5rz1868UcbBTi0mlAwjzSQdnjPxLlHaJpNg5lOeDKfEiNAoEND1WV+WQYCYyz92JQgePAXdMGLGyFs9XyA+xuuvyEEk4aiDZOfPzGX9V2Tbv2g1/tpnVgYBgzDhzmOKSPCXCHI2972tiAE89hGUB2CxoyRfu0RFlGtE/lIbfTNhGIWQiAwMKfcgsr+mVnt1dOOKVdfv54xtdKVGM1NcBG01I9H8eMsAK2Kfsp6259O1g9cAcGDK5wTD6COvk8/7fTm1CWnxnuCZv6Ey/uEQYxM6FVvRjW0BoObLOmXsGfurOMsKxx+QqQ2pJQyQXAjcBgTz8s/h6WyXwShpepihh+s8Kex1Fe8z360SYK79949CwBErHnQi9m2fqadtNdYxtdm7rzCsMIH9/rRXxLZMyWBYHE1InZCwZIsXrw4LIdxs222nwz0qrvWGAoggBCcP9OLsRhKuvk811qqQTCvIlIXOnPBJF+xd/A56pZ/8bmzT6tttsv7fJaf9ZH3aMCMMp2WSqwIf82s1226xemJzgmKLPrLz4Dfdn5XMCjS50asNwkJAQHZdw3Zx0SlF6w1k5tAGgUHJuh3jozLXFqv+o28kPzCVCYVU/oB1AP9+G/8hzASJprw2gJ4masi4HL2mNazIn6R27FU9IZzL2aCqcyhP8VGDCaZ0nXwQQfHb+zwZ9aOFthMEv8TYf8Q+6fqrkvMBOZqLta2NFMmylz9SUiC6zM8+2nmVGCtMdQEmR5XGsi/WUiTVibImlLw4SyNSSLGfRnMk6DSTMxkeSyJnJdi0vnsWghHBWvdh+ZfaFL4mtyRcQrdMyk1wYdlhwkzWRk1tmEiKZ7o+UwC/29dySfC2Vrz05/+dBzD8UwmyknGnFdqZo1r+34qsFYZWkskxN3TTsEHMytlJxMk4W0diNm0GjNz+TIZmC5Rpgo5v2Smk/ViBAGf0/+WJzUN2jAKvNcqQ2tIhrpaJwrjSThiWONhqqBBtEnimWka3Q/0dW8x07jMLPzt4ji1Z/kky5VnjAcJ5Chwv1cZmhPAWGYJU61NBRKu1oDysIiR67QExGvDKAgyVWBy4SsL5BimaFZW64QTTgjfORmXMQr81xpDE1lXBUPqCfhs+YKpJNvGsQW4XCwf6vQ4omiXOdG6zxra9zMFcGE94Ctf7Od4BECY62t/J77pxDgXBO8y606rwfhOB/91QkOBzxjFzIoCgb1JZlgCgsbKoWbiASHTBI+SIMMARsJL4GNb0OY5ny+zxGfCN3G0TvZfDYnnKPFfq4mFzlBdaCOOSfAg0RLi0mS2mJKJRz71yOa4lx8XOyeImTBKgkwWzEUA59SCkxF2ZOAtP+sHiZnbDIBqfNbQ1M5ae5T432saCtqIIwCJRizmV4jPhzK/UmaIJmCS9912m6LFnebZj3Y+T4cgNRCaifqCx5IlS+KnauAG7ALZJkxLkkIXS7XOvxqy7/YY08F/raf+JgMIAS0+1NWZHssAwZJlji0thHN6oWvSSj2l37JgGNCXvwwcCfgCcLJeBpL3mGlXhpsQpUuSSBrIU2NmtC8Wp81EEAyrHo+Sofeqhk4EJqRgFk1FJNpKE/LkggQEgtntF4SANM2jAOPze6FlReSZRzRybuiUz5wSyxL+3bLKL7g4ZkPQ1jCzLZ+Z0E5rthnYvh8G1kkNTeigFoCYNNRB58z5IqCtt+c85zmxKzIq7QTJSJpko+Cmm2+Kg2dOIN56y63xp6D9/pBdE4kDgtdemgT+vZg6gF/rNUNNDnFFj9aqsknWeU7xeaZYvPujsRLfk4XseyJwrMV+K8GhlRgp80OwWA6H0mimUxd8OivRk6FTgPWSoUmMZGiu91wl8i1p/Flmi3mmlh9zFogfE2kmpDnGhJpQdf8+61cdPtHfPLN1J/Dxd7wdG+XPjZvHSR18s0cKWAZ99LIQOU4/mA4D27DOM7QmSJuxdjMchRRpAhos/8sEOjJiPojsb6Dl3zGrQd/6wXREVdfVURfHKzGSmUcbmmlD2uk85j2PrNTQizE1/hPB/1uGgrzHCJqJ+L6A5AS9g2eIw59hrCjY+VpnljBN/SSeflIrfVYEOZIEvjRkqeQMEOFx0l5fAh8aqp+6r3UJ7nMMBQiJ0JjhyhSKep2GxwzRMI2SgMhTgI5J+myO2d4yhFZLYvDLgh4CImGQPpFAMLFSj8y651YD6yIzwTofFE0EbYJiEEYImmgZBklESM35mkHu6Mjg5NFLPtIBa37YgTCMxWCnCfhhGqk+rcTcFIRevnJdgfWGoQmCGgGM7TdrRRqLyaJVOyD2WZ0e0Hdqufree2cjWsF8goCR6txX4D7J0MmYO4ylsb6xlt9Mw1h+EgMxM49lSlyIkH1pyTFTPlOk62Q/Tf4vQ0cE02Gotn4eVeoOA80PM/lajAZMJ3Oq0E7zz2BH2u/W224NhiuTGXNdgHWaodMFWogRKRiiWpqbyxTADCtthmmjvue5nLkvwHrNUJDM7AcTMUtbJd+v+0xtmv8FupL5/SIBs1YAAAAASUVORK5CYII=;base64,iVBORw0KGgoAAAANSUhEUgAAAJ0AAABgCAYAAAAHKnARAAAAAXNSR0IArs4c6QAAAARnQU1BAACxjwv8YQUAAAAJcEhZcwAADsEAAA7BAbiRa+0AABzeSURBVHhe7d13kCVV9Qfwu5GclyhJBRXMCkbMOYsRMCCWCUpF/1AQq/RXyqqlAmWVqQQFjGAARXbNu6gkFVQMYE6oKCCgrJJmZn/9OfPO256382bexH09M9/dO92v+6Zz7veeG/r27UXrK5QFLGAWsbh1XMACZg3z3tL1u/iLFi1qnc0d9AnpRsvCzCi7yXVsrhCwD0gn+W6k613JN954Y7nttttav3pHU0i4yy67lCVLlrR+NRubmHSdhKuTrHfCDQwMlHPOOaf87ne/K0NDQ2Xx4sVdrQJx6yL3K+nkK+XYbLPNyite8Yqy3Xbbte42G5uYdEOtI0x+TPPvf/+7vPOd7yzf+MY3yi233FKWL18eBdYNnSL3I/EGBweDcKwbK/fZz3627L777q27zUafWLqpDaKR7pRTTinf/e53g3R77rln2WKLLVp3R6IJhAOV5ve//31Zd/O6smLnFeXzn/98WbFiRetuQ9FSdR/06Vi7qZPuPe9+T1mzdk3ZaaedypFHHln23nvv1t2RCHFrEleNbV8ST6U57dTTyoUXXRiynH766WHxGgeq7VDvpifd+op0i6ZOuve+971l9erVZd999y0nnnhiOeCAA1p3O9CSFtni2KeWbsniJeUtJ7ylnHfeeeUud7lLOemkk8rd73731t0+B5WOodaplfY0YH2vA4YUpOWQpZsLPxX0iTZyi1uu9Vsz1o/OgMgAySDCqNx5yNavaJVLNFzjZHOTk07BL2B8IBwi9i0UI4dRlVtfnXdzm5x0C+gdSNfX1q4GtoRbIF2TUBVOZyvgd99bvA4gWLa66eYt6bJP18+uM5/138hXd/2MkVWnoaRjoknSjIZmZrGoUgLXz8pAsk7XALS0Ovw/HDMdfYTqOB8xgmwNUELYicoiOzaCdEOVUtfHn2H9BuEq1zJ4M4JuzZZr+lQeU3Gd/asM1y38tCKVMTILfYkoK12D6tgI0lXFVxWgkzgrg6HtuDGtQKKBgYE4TzLV+1C33npruf7668uf//zn8sc//rH8/e9/LzfffHM7DH+QpGwTb5rzOcLCpZup2jcDaIalq1kT+p0JIEydLJ4ImJS95ppryq9+9atywQUXlK9+9avl7LPPLp/85CfLpz/96fKFL3yhrFq1qnznO98pV1xxRfnTn/5U1q1bF/GZ4FWvWeghT11mCsjWsBVPffDsdXzcNnB7Wbp+cVmyaEkZrBQ8WCk6OqRVzum88zHYyhNXlgMOPKBtecZDEs7xv//9b7nuuuuCbP/85z/LH/7wh/KXv/wljtJx36ICatt8883LVlttVbbccsuy1157lTvd6U5lv/32K3vssUfZZ599yo477li23XbbILCnICBcL/ni77jjjgtCe9BvQYPHYFadhKULT8OuUk07/iagEaQbqjS7aLBy1chhqCLdUKVfKkY6mCzp3E/xEcx6PO43v/lNWLebbropCMbiIRaScZZOCXfHHXfEPUd+EWLrrbeOh/X3ve9940H9/vvvX+5973vHw/q02EuXLo3jWBiLdPUCQ8D1FeEa0WS10AjSySDSxUml3SRdYiKkq18juuYUsc4999x4uK6fJr5ly5aVHXbYIdzOO+8cViyPVrIg3n/+85/wzzL+9re/LTfccEOsYHYdGRF0m222KU972tPKoYceGpbPs9SwVuNUiLFIR369SOpYVv1ZXMU1dmz9hUaQLrQrm44t7cZcXQuTsXTuZR/uqquuKitXrozBwfbbbx/k0FweeOCBsXCSs0aPtUMaoDbhDSJuv/32sJScpvivf/1rrIW7+uqrg5RIeuyxx5ZHP/rR0dwKMx7xxiKd7sWt/FRu88otaxTlhrtGzUFNt+15qkkiSaOpQ5Z//etf8VtTePTRR5c3vOEN5bDDDitPetKTyr3uda8gombTAEHYHHAgISLd7W53K4ccckh54QtfWI455pgInyRj+ZAREG08KzceiD1YudaYOf42CbNDuimQI8Gy1a3bdACBwLRHWq373//+5QEPeEA0o9F/qojVaZX81vwibN1i8us3i2g93+Mf//jo47HEml5+uBjZjkM89+sur8WxcnqFyys3XQU4PBHVi9PD5jp+G6HXXXWtG2aHdGPrd1KYDhJm4edgAJH01bJwx3rXgp86eRAuHWIB8iVxETrv5X1hu7k66tccqypQNavDbrpmS4ZjZzs7nbwiEMtRudZh+I/rtfuVfOEitu7Umh3STSOmy9p1FuxUgVTiZP0WWwkdBbMB9fSQbyoQE7IF4aYWVQ9o5btdy1uu2znZx9FtM0jXIUPIOEVMteBZxrRcnlD85Cc/iZGrpjb1z8qxhixoNtFImc3ytGCaohmJlgDtyDuPUJ13EHE9mXqQq3GWbjQowPa/EHz42lhADg5xDAYMEjzmMhJ1LUkFjkmwvJb3Ec6TiY9//OPxNtr//ve/YeJVMBUjDJKZOkHAdP0JOuPkL1312+xz+14if2+43mtF6lfpN0IQq4vL+2TvvNbNIczQ4DA5zMV5kVnfjrUaaPW/kmD8/frXv44RLrK5jzhXXnll+dznPhePxy6++OKYcnE/SWW6xBMMVs60CfL1L+iMq/KeFixcB+HyeqB1PX7ntfHRGNJNNxAPOSoKxtMCE7ks3t/+9reweHVyXnb5ZeXUU08Ni+ZpBXIimGewX/va1+JpxD3ucY9y8MEHtwcPLBzSsXzSMeXielrBvkWbUD2i5b9SVc+Y36Rbsrjqh68fQToTu5rFNipj973vfa98//vfj4f8LJtzb9z/4Ac/CHJ53nrE4UfENIn+myaaQzoEdc0EL0s30LKizUEtr3VCOp8E4WDeki5hFYj+lnk5/TpEsVqERUIQrYYJY5O/CLRmzZrykY98pHzzm98Mcnq4/+IXvzjm5DzNQGZNrHg8lUBKTzNYurCeE2iGZh/1vDlPNwZ68NKJeUe6el8tjpXCzMfd5z73CfJZmvTjH/84JozT74Me9KDyohe9KCyaphcpEc5L0J5APOYxjylbb7N1e4Qqvl/84hdhNeF+97tfPJlAuCVLx378telQ5aluyYJJ6VrIx0A1NxlR5nXzWodHXZpZxPn5z38elkpfjNNPe9zjHhc7J3n+aTmT1SNHHHFEPMz31IG/HA0jJuIiML+ecjhafsRf/2IUos0A5n3zmrBQQJ+MlbKsSX/NM1MkyuVMT3ziE8trXvOa8pznPCcI6NkqQuoLIlMS2ZzdD3/4wyDdXe9613LPe94z/NWJHla2r1An3IZ8tlHrwyUma7HnHek6FZW/keqRj3xkrCgxzXHRRRdFn0z/DLKpRbRXvepV5QlPeMJwk1mLj5W89tprY0RruRPrFk1vyxJOtpBmCz3lr4N4k8G8tHTdiGfAcNBBBwVZEO5b3/pWzM0ZDNSBbKPNuSHo2rVryy9/+cv4bSHnQx7ykLBynehXAg4PdIYHPCP+VZfbLn5PPv+NJN1MNUzIwYJpDhHISPXb3/52rBLppTm88MILw8oZhJgieepTnxqrh8Xb3325GlrEchzTTQGNJN0UZR4VSIVoRqTPfvazY5WwSd8vf/nL5ZJLLhk5dzcKDD7M43mXwkDCFIolUprtBYxE45vXsD8VC9MOOfbiVGdNRLqEQcOjHvWo8vSnPz0ejVl8aRdMVk9fD8zfISiianp/9rOflU996lOxAtmk8MMe9rDyzGc+M0bD4s7+YN3NZzSedOgSREK8Fvl6cRtotgGskr6aPhvSmCYxYez9hzPPPDOsnqmUXBSg2bWc3GTx5ZdfHkQ033f44YfH22DiW7B0G6PxpIPly6a/YHfdddeYh3vKU54Sk8aI51nrGWecEZbNb+/AfvSjH43pFUQ0CHnZy14WfUJkG82SzhSaZD3nBOmWLZv+1Rsmelkrc3ImgDWV//jHP8r5558fy5hyAYBXFo12H/7wh8fTCRPBW2y+xawQrY7ZTm8qmBOkW7pk6qSrW6V0rIfRJ+K9/OUvLw996EOjP2fi10jVMqg73/nO0RS/9KUvLQ984AOjT9gN9bjnMyZMuoExXrjYVLjDg/lpRj5H9bRht912ixGtpxAveclLYqCh7/aMZzwjJoo98Pd4LBdqjva2/XwnWh0TJt3SPjSOOvAzAURBIgTURzN5jHQehb361a8OEnpF0QLNznm4tGjpFrABjW9edZ/vGJgZ0tWRTyVYMy9hH3zQwWEBF0g1cTSedLMBfTvWLh99+e1f/G/dy+sLGB99R7qhPuwzsmSaz+ivVedBrup/XocgYs0toDs2CelGPj7fAO+KD2P8QuMj3QKahUmRbqoFzZbdXsUyuH6o3DE0WIYqy+CaeKseEi9t1Mk1mltA8zDrpBNWD2hpdaIZio549U9GbJcwTLr+6pjnQCHy2uHq6Py9gNExYdIhzVRUK6zNDBevX1SWVjSzw6bl9t2YzH83t0nRkYkFwvWOsUmXZKi5fCcjfk8GGS4Lre4SGf84aYwIXvmNfM1hzJVByuikI1d2ssZzvYLf2sC0vSqk5droMe4gWsvxm1HUo5pLCML5rMEcwMY7cY5V4Fmi9fu9NtBJuBZTOpOIqLul2wVVMcTRCzR2qly9anXZbY/dY0NCizFHQ1vcCVqMiVqYqTa3Hr/5RLwlU554vO9974s30KyoadKm1qNhJOmcddPtaHKm37GI1xmneMaKC+r3u+QnCQe5/asNbMybeQ7q5ebOR1NA3HT5ux9hVwCvMXrBx5OP97///VGRPI4bTa4mYQPpxtP9RIhSR2e83fxNEHWyIN3b3/72eIPL3iG5NVc3CJsuf/cb5N+jN6uVvcb4wQ9+MPZBztcdm4xmbHQ9CurZRrrTTjst3lcdGBjeRHosCJvh+1X8fOSGdLarOOGEE+K9jfEqVBPQSNJ1EsaqXfvEsXJ1yzpav6qiWxxjPrD634/iy3fmXSVybksLa/WQccHSzTI6CYdDkxGhaZ1xTS2yJSGTlE1Es6tMC00ugF5RJxyoaA2zF200n3TKIN0cxlyqWI0fSLSzP1EpqjJsckE2Oe9zonkNKIMJuLlkOZqGxpMOeRYI1CzMHUu3gMagsX26TkxGjAULuWkwby3dAuE2HRaa1xkE65tuLmC65Jl10nms0/cf8OgR3ZQ/HQUzl9Hu0+XO4HEx5hRGNkFxz+3W9ck2Tx5gW57jwfVcQL0S5TPRfHowFprQvLf5UOU1z7thIvK0LZ1AlBUKWzySVJTqoTrXuf/uRNEEZU8E9GXVR35uMwnXJDkRqk4qFUlZJ2zb4dp0oevo1eW0fumlU6G9KtYya2QdWj8UYcQ3F1ZLpI60DKEL/6tjWD4qq6mnU1e96m42kOWbyDJPCz7aUqqpyNMmne/YW5eWyK89Z4ZEah82GzjbFhVp3OslMf7sYmkDaFvc+7RRErgpSD0k5J01sPu6vYnpz4bW9rHzVUW6ShnrK0QS/SS7/JHFfsnOrVAmr733/Lasyu6kdXTmfyLytElnG9Ozzjorlkfrc7nMpCIX8tm82Rp9OxXZvch9CXFZs33gLRMnhBrCny8Hvutd74r1bm9961tjq3txuq9vl2Gk0blIMSxJdT8/7DZarXNPocorv9LMggbX/PblQoq0ApfLrb1SFptZS086rmdarne+m8C6iev8VefHFv5kVBkRztd3bKRoU0XkI6s4s4nKc/rwjYlOmeRBnvI6v5kv+bRY1V7I8m9PPOWV4FdTf9vtt8X6O/4hm8uMIyEd98hgSTyjYsGofCura665przuda+LfZTlRxllvMKJjzGxTa7zhHjlubOyQbt9oyxr8dVU7xeIyLetBKI8bLdBoMgllmRIBwqWgjnh0vkgiC22fF+LleM/FSpzSCOsTPMvfr9BOgo940q/dSCb+DIf9XyRg6LEY7Pqj33sY7Ht/rqb14VfhSQPIP14B6EqNGHd4yJfvphY+dNV4Ow9fMaZZ5RVq1YFmZHYyl4Wz26dn/nMZ+JcmMyXfNYrhsJLotfhPlkTeU4OurniiivinZBzzz13xK7vvkvLr8ohz/xKRzhIHSkfciX41crZIT6tHb/OkdHmj5C6yG/iKgsgR5anuDM98Ui/nhYs+b8KTphP3yx98IMfHFuY+vILq2dbUzuNO/qM0Q033BBCS0jN9ikiu4pfffXVkbAmxgjVp4rsy6vGpFAyYC9ffoTxYTdKEuell14a8SoUtV8YQlGSuO1+SSneESA0ZXgLTFyIQliF72UW/jR7CjNHytLzMRJ5kuctt9oySCI8JWkifUROOlYhky9rr8LrhA8Lf+UrXwl/dul88pOfHBtjq5wsEXlUUp9/IiNyqMTyRk7flfWWlzTIDD5anEvur7/++viUgDwpvPxIMeuq8vzoRz+K35ayKwdyXHLpJWGZyGerWu+MsFx0IH1vltkfmZWkQ0aGbMqNzCqj+Gz2KF+2t+XP5wl8BRKUoQ8uX3DBBVF+ykAaygXkW958/IX8X//610NWO5a2K1/8rSBjPj8pAyJCFoUucYEVEOLom/nspO1OWUQR2s6eMmyT6vtZBD/99NPLdddeV447/riI2wbRBD/22GMjTgVGyYRhEZBUmogtbt9gUOCa/S996UtR6+TLDphIKT07YtrnlzCrV6+Or9W4rtD48UKLnc4R4Ytf/GIoXV5UKBaPn8c+9rGhIN9vRWTkU5is+3Of+9zog2YtdqR0ZLbZtcqCbPxoKcRNVwqcsrOiKRCEV6hk9lsa8nfooYdGhVZpfDoA6R/xiEdEwSIHWVTUN73pTbEvHl34oIryoHs2Q9eFsfjEJz4ROuJP5RPW5tuIZY/kn/70p0EiJAG7iz7/+c8fto6VDusO6ueA/Ih4zjnnRAUig7L0wZfXvva10dzT/8knnxytmzLFDWVW12PbhrvASUQmOMp1pEwEUKMQg7IVkKO+jEKjANbENecSZ01kChQ0MlIuICDLhAiadF+XYW0p3Ud9KQfRzjvvvFCgmmKbVYUqTZYsP2+ulrI8yCueY445Jppx+wIjLctLaASXP5XFPsGaRHGoEF5f9Oqid2af9axnRVw+RkK2um4cWR+yUrpWgXWQRlZS4b2zKi+ILQ7NrXAKyC6eiEFWm2YjOh2zHAhLfhaSxaFz8mqyySpOfWJyIK8Kyq+86CPyS1+u+dYZC4kkKjn/ujnPe97zgkBIymoip8oBeRwN8ksn5BTPK1/5yujn+/Cypl767il7lYulpQuVqE7eNumS7QnndQdZk5FE0ysRjE9l6+c4p0SQIRYg45AGOFd4BNfpVts0UWqr68imL6amI6ZazaJRln4h8lAUV8UcH/FlQY8//vhy2GGHxWfNWRHpER7BkcOoTOVh0W3Vj2TIg/jy6WNz/LE8rAsyC59NUOpBfJpklQSB3VMZE/Sjq8JayqPmVFzSYD0NMjjWAElUYIWtqeaffD4nkJtnS/eqK68K0hnE0RmSaR5tP7v3XnuHLsnLIaWKd9RRR0VTq/K5Tz5dJWS2abeK5R553E+djuaAlRWGfpSV7oRv4cq31k/a9MviiRMpDUIQL3UHG3qr44BSOAWnFqlpGM2pTZpFZFOr9cFkhPIUikwTSngZk4EUkuIUhjiYfX0TfkBTIfPicJ9FQRhkFlYhiCv7XZqwd7zjHdHkqJXiyf6hsPKU5xSj5uuDOCK5psDIzSgOGRVYWtM6kE0+ycMiZ8fZUeuQpExZNZUqI5IjpDywdCwtObIZlT9y8Lf7bruHXlQeacmffCAb68cApM6Wb7Y80kv9qjhaBrolHyusUqTlk39pqCxIL2355sRRP+Y5mZSvc5b4Qx/6UHnb294WXQLXyCAP4iSfvOsiqbzyOynSmRJBFFaFQ4iLL744Mk0A/SuK0FF1TUGq6Qo9hapDBllHhe8oo6BwKFgY8VGya5TpHCifoGCkhmCUoE9HuWqftCkK5Fv+b73l1ohbWEowCk3rggAsAcuiJr/+9a8vb37zm8MiyJswIUMVDyWSC+FYQhZf3sgsXuRHXP1feZV3YTMeLuWRvjz7LZ+OCtdEunOFF2GXD08XiR8xEQmMtKVPhs2Wbxa6qlcSaak80qZPR3Fw0hbWubyky/v5W7o+m0Cf4qYjfUVHLcbRRx8dfTqVgwzS227b7UIffksn5Q7ZW3nbCISSoSxghStxtYS1kYBmCXmQTo1UEDqrSKfQd9l5l7bC68TLa+LnIJswmaQY5yyS35ptTZRCZoHEn0QUjxEhC8vkH3nkkdHE6gaAdMVl3mpgcCDC1GViRSlYOpol/UbNATmFYxmSTAm1Vx9RhUGwtWvWRn9VlyOnS/RFDSSE0z1ALF0RlZWsOtnkkJdsolN28fotbKbt6BqopMKRbXBomKjukU9498VFRk04i4cwRpzC0Z2RsXi1UAglnDTcd51zLq8qmfjkS/61dtndMXBEqki/yg8/4pKGNBHQ9Trao9dOJFEI1GZoSzgEUwMVNoEoDck0u0hB2X7vuNOOEZcwwqeiMl6/A5X1MPkq81krCOtzR2oUZen0OhLEPaRXc8WhNhLOdAg/BFaoFMWv+ChUUyRdQ/oPfOADMdFtZKU50qH2jS99MZ15hEAUCjYoAWFBukatKoIByMmnnFzWrF0T6RlEIaB+JSup8IyQtQpGvCtXrgw9qZwqk/5ZfTqBPPKf+a7rK/2QhZ5Mr5x00knR/2MI+FFuWSHlBwH1vTTxRvDZ3BpgqVj6d+RJawlIIzy9ikPrwNLqj5LBwEG3Q7nmJ6tUdGGQUprmNTMOR7IAGbpaOhnKqRIBUwGEUjCaWGRTYPwhoVpDoUjJD9YDa8E6OCaxhN13n32DCEuXVTWtEsrnjZBYmhTLcvo4CNPNmlKmfoJz+VBAFGYeSQdZs8TCGHxk/pJoHOvEisFll10WxJKXo6oO9wte8IKwpDrELDgra4Cj/0j2VFpC38xIl2UkW1pgaQpnYEMv4pcXheKDw/q7Clzhmy7RhGvaxS9N8dJTfgVIobM0Khn5+TOYQGqyq2Tkdq4M5EUeyIsUKo4KYlCiPHRByK4yv/GNb4yuSGdYeZaOsiCDOHDgkEMOiX4cbpgSSl27bvqFH3Fxmnpl6HzJ4mGrnZVm1Af+mK22siq77TpsyRCD0CJW4JTHn3syq3YYXAhHUazDDtvvEOHUIgMOJFGIjvxqmglL0eJV6MITUnjpmWqh1FTEip1WlLPOPis+Dqcfqe+lUBWiPKnF8iRe17bfbvuy5157RnjWgxVjiVUgyhNW4UjbyEx6rsuDzvw2224T+Vfo/CXSokiDlZWu3wpWpVFhpEku9wYHBsuNN90Y6fPPHxlVCnIpIPl3X5NIp67JFzKTR4V2TbloqsVLFt0CaSGAuOlY/pUJ0Dd/rJP46AHBkUr6ZFEWWi4kYX3JzBJLiyWmR+e6KfREbvLKp7QYENaN/ozUt9pyq7Lf/vuFzlSAJByMSjqkgWRnBpC5emAY8buKSQc4kWElIayjDGRzwXXGqXPvNwEQ8MMf/nBYHk2V5tY1/SgKYQHNt1E4BWc6wmflyDxkGvzkOTkppX5PAQkLGY6/TsWB+MH1etopV4Zph6/+6Xe515luEppuMo6871qnfw4yrvq1/J3+65CXzCdX9ysdkM8qtsiDe44gHPid8SBpXT/O089oiHSrSDci3UyiM7n8HcfaLeRVI5lxE49qNgVRDKujn6QZ0zQRZDx0+uklzHwFMnUjzWRQL/O+IF1itOsyqLlgzjU7rJzmRTOjadLXySYEsiaOhgXS9Q5lMZP66VvSsWiaOcK7l/0mfSXEc48lRDomvd78jIYF0vUPZp10nRiLhIiRpIs+xOBw/yXhut9h4SoOLZCuGehb0tVJwU+6er8vwFt1LfyPwaMF0vUPNjnpesVG2RyNfGNggWT9glL+HwdcLV3iXMhdAAAAAElFTkSuQmCC;" parent="1" vertex="1">
          <mxGeometry x="600.2" y="562" width="99.6" height="39.71" as="geometry" />
        </mxCell>
        <mxCell id="S9Cv3rVsNq0ONA8z7l8G-68" value="" style="group" parent="1" connectable="0" vertex="1">
          <mxGeometry x="-1260" y="450" width="100" height="90" as="geometry" />
        </mxCell>
        <mxCell id="S9Cv3rVsNq0ONA8z7l8G-36" value="" style="sketch=0;pointerEvents=1;shadow=0;dashed=0;html=1;strokeColor=none;labelPosition=center;verticalLabelPosition=bottom;verticalAlign=top;align=center;fillColor=#505050;shape=mxgraph.mscae.intune.account_portal" parent="S9Cv3rVsNq0ONA8z7l8G-68" vertex="1">
          <mxGeometry x="28.5" width="43" height="50" as="geometry" />
        </mxCell>
        <mxCell id="S9Cv3rVsNq0ONA8z7l8G-65" value="DevOps" style="text;strokeColor=none;fillColor=none;html=1;fontSize=24;fontStyle=1;verticalAlign=middle;align=center;" parent="S9Cv3rVsNq0ONA8z7l8G-68" vertex="1">
          <mxGeometry y="50" width="100" height="40" as="geometry" />
        </mxCell>
        <mxCell id="S9Cv3rVsNq0ONA8z7l8G-69" value="" style="group" parent="1" connectable="0" vertex="1">
          <mxGeometry x="-1260" y="670" width="100" height="90" as="geometry" />
        </mxCell>
        <mxCell id="S9Cv3rVsNq0ONA8z7l8G-38" value="" style="sketch=0;pointerEvents=1;shadow=0;dashed=0;html=1;strokeColor=none;labelPosition=center;verticalLabelPosition=bottom;verticalAlign=top;align=center;fillColor=#505050;shape=mxgraph.mscae.intune.account_portal" parent="S9Cv3rVsNq0ONA8z7l8G-69" vertex="1">
          <mxGeometry x="28.5" width="43" height="50" as="geometry" />
        </mxCell>
        <mxCell id="S9Cv3rVsNq0ONA8z7l8G-66" value="DBA" style="text;strokeColor=none;fillColor=none;html=1;fontSize=24;fontStyle=1;verticalAlign=middle;align=center;" parent="S9Cv3rVsNq0ONA8z7l8G-69" vertex="1">
          <mxGeometry y="50" width="100" height="40" as="geometry" />
        </mxCell>
        <mxCell id="S9Cv3rVsNq0ONA8z7l8G-70" value="" style="group" parent="1" connectable="0" vertex="1">
          <mxGeometry x="-1330" y="562" width="100" height="80" as="geometry" />
        </mxCell>
        <mxCell id="S9Cv3rVsNq0ONA8z7l8G-37" value="" style="sketch=0;pointerEvents=1;shadow=0;dashed=0;html=1;strokeColor=none;labelPosition=center;verticalLabelPosition=bottom;verticalAlign=top;align=center;fillColor=#505050;shape=mxgraph.mscae.intune.user_group" parent="S9Cv3rVsNq0ONA8z7l8G-70" vertex="1">
          <mxGeometry x="25" width="50" height="37" as="geometry" />
        </mxCell>
        <mxCell id="S9Cv3rVsNq0ONA8z7l8G-67" value="Developer" style="text;strokeColor=none;fillColor=none;html=1;fontSize=24;fontStyle=1;verticalAlign=middle;align=center;" parent="S9Cv3rVsNq0ONA8z7l8G-70" vertex="1">
          <mxGeometry x="-1.5" y="36.5" width="100" height="40" as="geometry" />
        </mxCell>
        <mxCell id="S9Cv3rVsNq0ONA8z7l8G-80" value="authentication IdP" style="text;html=1;align=center;verticalAlign=middle;resizable=0;points=[];autosize=1;strokeColor=none;fillColor=none;fontFamily=Helvetica;fontSize=16;fontColor=#000000;fontStyle=1" parent="1" vertex="1">
          <mxGeometry x="-1140" y="715" width="150" height="30" as="geometry" />
        </mxCell>
        <mxCell id="S9Cv3rVsNq0ONA8z7l8G-81" value="MFA" style="text;html=1;align=center;verticalAlign=middle;resizable=0;points=[];autosize=1;strokeColor=none;fillColor=none;fontFamily=Helvetica;fontSize=16;fontColor=default;fontStyle=1" parent="1" vertex="1">
          <mxGeometry x="-1020" y="755" width="60" height="30" as="geometry" />
        </mxCell>
        <mxCell id="S9Cv3rVsNq0ONA8z7l8G-84" value="direct connection" style="text;html=1;align=center;verticalAlign=middle;resizable=0;points=[];autosize=1;strokeColor=none;fillColor=none;fontFamily=Helvetica;fontSize=16;fontColor=#000000;fontStyle=1" parent="1" vertex="1">
          <mxGeometry x="50" y="612" width="140" height="30" as="geometry" />
        </mxCell>
        <mxCell id="S9Cv3rVsNq0ONA8z7l8G-95" style="edgeStyle=orthogonalEdgeStyle;rounded=0;orthogonalLoop=1;jettySize=auto;html=1;entryX=0;entryY=0.6;entryDx=0;entryDy=0;entryPerimeter=0;fontFamily=Helvetica;fontSize=12;fontColor=default;strokeWidth=3;strokeColor=#0000FF;endArrow=baseDash;endFill=0;" parent="1" target="3Y24ioC7CP_jq3oPdULe-45" edge="1">
          <mxGeometry relative="1" as="geometry">
            <mxPoint x="-10" y="610" as="sourcePoint" />
            <Array as="points">
              <mxPoint x="265" y="610" />
              <mxPoint x="265" y="656" />
            </Array>
          </mxGeometry>
        </mxCell>
        <mxCell id="S9Cv3rVsNq0ONA8z7l8G-96" value="relay twingate" style="text;html=1;align=center;verticalAlign=middle;resizable=0;points=[];autosize=1;strokeColor=none;fillColor=none;fontFamily=Helvetica;fontSize=16;fontColor=#000000;fontStyle=1" parent="1" vertex="1">
          <mxGeometry x="285" y="625" width="120" height="30" as="geometry" />
        </mxCell>
        <mxCell id="S9Cv3rVsNq0ONA8z7l8G-109" style="edgeStyle=orthogonalEdgeStyle;rounded=0;orthogonalLoop=1;jettySize=auto;html=1;fontFamily=Helvetica;fontSize=12;fontColor=default;dashed=1;strokeWidth=2;strokeColor=#66CC00;" parent="1" edge="1">
          <mxGeometry relative="1" as="geometry">
            <mxPoint x="-570" y="568.5" as="targetPoint" />
            <Array as="points">
              <mxPoint x="-364" y="568.5" />
            </Array>
            <mxPoint x="-364" y="569" as="sourcePoint" />
          </mxGeometry>
        </mxCell>
        <mxCell id="S9Cv3rVsNq0ONA8z7l8G-158" value="authentication controller" style="text;html=1;align=center;verticalAlign=middle;resizable=0;points=[];autosize=1;strokeColor=none;fillColor=none;fontFamily=Helvetica;fontSize=16;fontColor=#000000;fontStyle=1" parent="1" vertex="1">
          <mxGeometry x="-1080" y="630" width="190" height="30" as="geometry" />
        </mxCell>
        <mxCell id="S9Cv3rVsNq0ONA8z7l8G-167" value="" style="sketch=0;pointerEvents=1;shadow=0;dashed=0;html=1;strokeColor=none;fillColor=#505050;labelPosition=center;verticalLabelPosition=bottom;verticalAlign=middle;outlineConnect=0;align=center;shape=mxgraph.office.security.management_role;fontFamily=Helvetica;fontSize=12;fontColor=default;" parent="1" vertex="1">
          <mxGeometry x="637.5" y="980" width="45" height="45" as="geometry" />
        </mxCell>
        <mxCell id="S9Cv3rVsNq0ONA8z7l8G-168" value="" style="sketch=0;pointerEvents=1;shadow=0;dashed=0;html=1;strokeColor=none;labelPosition=center;verticalLabelPosition=bottom;verticalAlign=top;outlineConnect=0;align=center;shape=mxgraph.office.security.key_permissions;fillColor=#2072B8;fontFamily=Helvetica;fontSize=12;fontColor=default;" parent="1" vertex="1">
          <mxGeometry x="620" y="745" width="25" height="53" as="geometry" />
        </mxCell>
        <mxCell id="S9Cv3rVsNq0ONA8z7l8G-170" value="" style="sketch=0;pointerEvents=1;shadow=0;dashed=0;html=1;strokeColor=none;labelPosition=center;verticalLabelPosition=bottom;verticalAlign=top;outlineConnect=0;align=center;shape=mxgraph.office.security.key_permissions;fillColor=#7FBA42;fontFamily=Helvetica;fontSize=12;fontColor=default;" parent="1" vertex="1">
          <mxGeometry x="657.5" y="745" width="25" height="53" as="geometry" />
        </mxCell>
        <mxCell id="S9Cv3rVsNq0ONA8z7l8G-179" value="&lt;h1 style=&quot;font-size: 40px;&quot;&gt;Security LAB - IaC&lt;/h1&gt;" style="text;strokeColor=none;fillColor=none;html=1;fontSize=40;fontStyle=1;verticalAlign=middle;align=center;fontFamily=Helvetica;fontColor=default;" parent="1" vertex="1">
          <mxGeometry x="-150" y="90" width="360" height="40" as="geometry" />
        </mxCell>
        <mxCell id="fCth6MuDegtPYip4IIY3-2" value="authentication controller" style="text;html=1;align=center;verticalAlign=middle;resizable=0;points=[];autosize=1;strokeColor=none;fillColor=none;fontFamily=Helvetica;fontSize=16;fontColor=#000000;fontStyle=1" parent="1" vertex="1">
          <mxGeometry x="50" y="532" width="190" height="30" as="geometry" />
        </mxCell>
        <mxCell id="fCth6MuDegtPYip4IIY3-5" value="trusted device" style="text;html=1;align=center;verticalAlign=middle;resizable=0;points=[];autosize=1;strokeColor=none;fillColor=none;fontFamily=Helvetica;fontSize=16;fontColor=default;fontStyle=1" parent="1" vertex="1">
          <mxGeometry x="-1160" y="750" width="120" height="30" as="geometry" />
        </mxCell>
        <mxCell id="fCth6MuDegtPYip4IIY3-6" value="userÂ´s access device and resource&amp;nbsp;" style="text;html=1;align=center;verticalAlign=middle;resizable=0;points=[];autosize=1;strokeColor=none;fillColor=none;fontFamily=Helvetica;fontSize=13;fontColor=#000000;fontStyle=1" parent="1" vertex="1">
          <mxGeometry x="-1100" y="570" width="230" height="30" as="geometry" />
        </mxCell>
        <mxCell id="fCth6MuDegtPYip4IIY3-11" value="INTERNET" style="text;html=1;align=center;verticalAlign=middle;resizable=0;points=[];autosize=1;strokeColor=none;fillColor=none;fontFamily=Helvetica;fontSize=20;fontColor=default;fontStyle=1" parent="1" vertex="1">
          <mxGeometry x="-390" y="600" width="120" height="40" as="geometry" />
        </mxCell>
        <mxCell id="uph0zoPy45U3ovuQKrgt-2" value="" style="html=1;labelBackgroundColor=#ffffff;jettySize=auto;orthogonalLoop=1;strokeWidth=1;fontSize=14;endArrow=none;endFill=0;rounded=0;fontFamily=Helvetica;fontColor=default;entryX=0.498;entryY=1;entryDx=0;entryDy=0;entryPerimeter=0;" parent="1" target="3Y24ioC7CP_jq3oPdULe-45" edge="1">
          <mxGeometry width="60" height="60" relative="1" as="geometry">
            <mxPoint x="650" y="810" as="sourcePoint" />
            <mxPoint x="649.4999999999999" y="725" as="targetPoint" />
          </mxGeometry>
        </mxCell>
        <mxCell id="uph0zoPy45U3ovuQKrgt-8" value="" style="line;strokeWidth=3;html=1;perimeter=backbonePerimeter;points=[];outlineConnect=0;strokeColor=#0000ff;" parent="1" vertex="1">
          <mxGeometry x="-570" y="602" width="180" height="10" as="geometry" />
        </mxCell>
        <mxCell id="uph0zoPy45U3ovuQKrgt-9" value="" style="line;strokeWidth=3;html=1;perimeter=backbonePerimeter;points=[];outlineConnect=0;strokeColor=#0000ff;" parent="1" vertex="1">
          <mxGeometry x="-270" y="602" width="200" height="10" as="geometry" />
        </mxCell>
        <mxCell id="qQ-bPgCeEkWFOZFpEfJL-1" value="" style="sketch=0;pointerEvents=1;shadow=0;dashed=0;html=1;strokeColor=none;labelPosition=center;verticalLabelPosition=bottom;verticalAlign=top;outlineConnect=0;align=center;shape=mxgraph.office.security.key_permissions;fillColor=#2072B8;fontFamily=Helvetica;fontSize=12;fontColor=default;" parent="1" vertex="1">
          <mxGeometry x="310" y="380" width="20" height="40" as="geometry" />
        </mxCell>
      </root>
    </mxGraphModel>
  </diagram>
</mxfile>
